<?xml version="1.0" encoding="utf-8" standalone="no"?>
<!DOCTYPE svg PUBLIC "-//W3C//DTD SVG 1.1//EN"
  "http://www.w3.org/Graphics/SVG/1.1/DTD/svg11.dtd">
<!-- Created with matplotlib (https://matplotlib.org/) -->
<svg height="325.986375pt" version="1.1" viewBox="0 0 516.768973 325.986375" width="516.768973pt" xmlns="http://www.w3.org/2000/svg" xmlns:xlink="http://www.w3.org/1999/xlink">
 <defs>
  <style type="text/css">
*{stroke-linecap:butt;stroke-linejoin:round;}
  </style>
 </defs>
 <g id="figure_1">
  <g id="patch_1">
   <path d="M 0 325.986375 
L 516.768973 325.986375 
L 516.768973 0 
L 0 0 
z
" style="fill:#ffffff;"/>
  </g>
  <g id="axes_1">
   <g id="patch_2">
    <path d="M 140.826563 288.430125 
L 497.946563 288.430125 
L 497.946563 22.318125 
L 140.826563 22.318125 
z
" style="fill:#ffffff;"/>
   </g>
   <g id="patch_3">
    <path clip-path="url(#padb67ffed7)" d="M 140.826563 276.334125 
L 480.940848 276.334125 
L 480.940848 270.772746 
L 140.826563 270.772746 
z
" style="fill:#008000;"/>
   </g>
   <g id="patch_4">
    <path clip-path="url(#padb67ffed7)" d="M 140.826563 269.382401 
L 298.652763 269.382401 
L 298.652763 263.821022 
L 140.826563 263.821022 
z
" style="fill:#008000;"/>
   </g>
   <g id="patch_5">
    <path clip-path="url(#padb67ffed7)" d="M 140.826563 262.430677 
L 274.837707 262.430677 
L 274.837707 256.869297 
L 140.826563 256.869297 
z
" style="fill:#008000;"/>
   </g>
   <g id="patch_6">
    <path clip-path="url(#padb67ffed7)" d="M 140.826563 255.478953 
L 258.314174 255.478953 
L 258.314174 249.917573 
L 140.826563 249.917573 
z
" style="fill:#008000;"/>
   </g>
   <g id="patch_7">
    <path clip-path="url(#padb67ffed7)" d="M 140.826563 248.527228 
L 234.79313 248.527228 
L 234.79313 242.965849 
L 140.826563 242.965849 
z
" style="fill:#008000;"/>
   </g>
   <g id="patch_8">
    <path clip-path="url(#padb67ffed7)" d="M 140.826563 241.575504 
L 230.26533 241.575504 
L 230.26533 236.014125 
L 140.826563 236.014125 
z
" style="fill:#008000;"/>
   </g>
   <g id="patch_9">
    <path clip-path="url(#padb67ffed7)" d="M 140.826563 234.62378 
L 222.268175 234.62378 
L 222.268175 229.062401 
L 140.826563 229.062401 
z
" style="fill:#008000;"/>
   </g>
   <g id="patch_10">
    <path clip-path="url(#padb67ffed7)" d="M 140.826563 227.672056 
L 221.150925 227.672056 
L 221.150925 222.110677 
L 140.826563 222.110677 
z
" style="fill:#008000;"/>
   </g>
   <g id="patch_11">
    <path clip-path="url(#padb67ffed7)" d="M 140.826563 220.720332 
L 212.624547 220.720332 
L 212.624547 215.158953 
L 140.826563 215.158953 
z
" style="fill:#008000;"/>
   </g>
   <g id="patch_12">
    <path clip-path="url(#padb67ffed7)" d="M 140.826563 213.768608 
L 207.920338 213.768608 
L 207.920338 208.207228 
L 140.826563 208.207228 
z
" style="fill:#008000;"/>
   </g>
   <g id="patch_13">
    <path clip-path="url(#padb67ffed7)" d="M 140.826563 206.816884 
L 205.92105 206.816884 
L 205.92105 201.255504 
L 140.826563 201.255504 
z
" style="fill:#008000;"/>
   </g>
   <g id="patch_14">
    <path clip-path="url(#padb67ffed7)" d="M 140.826563 199.865159 
L 195.865804 199.865159 
L 195.865804 194.30378 
L 140.826563 194.30378 
z
" style="fill:#008000;"/>
   </g>
   <g id="patch_15">
    <path clip-path="url(#padb67ffed7)" d="M 140.826563 192.913435 
L 195.160172 192.913435 
L 195.160172 187.352056 
L 140.826563 187.352056 
z
" style="fill:#008000;"/>
   </g>
   <g id="patch_16">
    <path clip-path="url(#padb67ffed7)" d="M 140.826563 185.961711 
L 189.397517 185.961711 
L 189.397517 180.400332 
L 140.826563 180.400332 
z
" style="fill:#008000;"/>
   </g>
   <g id="patch_17">
    <path clip-path="url(#padb67ffed7)" d="M 140.826563 179.009987 
L 188.809491 179.009987 
L 188.809491 173.448608 
L 140.826563 173.448608 
z
" style="fill:#008000;"/>
   </g>
   <g id="patch_18">
    <path clip-path="url(#padb67ffed7)" d="M 140.826563 172.058263 
L 186.751399 172.058263 
L 186.751399 166.496884 
L 140.826563 166.496884 
z
" style="fill:#008000;"/>
   </g>
   <g id="patch_19">
    <path clip-path="url(#padb67ffed7)" d="M 140.826563 165.106539 
L 186.633794 165.106539 
L 186.633794 159.545159 
L 140.826563 159.545159 
z
" style="fill:#008000;"/>
   </g>
   <g id="patch_20">
    <path clip-path="url(#padb67ffed7)" d="M 140.826563 158.154815 
L 186.633794 158.154815 
L 186.633794 152.593435 
L 140.826563 152.593435 
z
" style="fill:#008000;"/>
   </g>
   <g id="patch_21">
    <path clip-path="url(#padb67ffed7)" d="M 140.826563 151.203091 
L 186.516189 151.203091 
L 186.516189 145.641711 
L 140.826563 145.641711 
z
" style="fill:#008000;"/>
   </g>
   <g id="patch_22">
    <path clip-path="url(#padb67ffed7)" d="M 140.826563 144.251366 
L 185.692953 144.251366 
L 185.692953 138.689987 
L 140.826563 138.689987 
z
" style="fill:#008000;"/>
   </g>
   <g id="patch_23">
    <path clip-path="url(#padb67ffed7)" d="M 140.826563 137.299642 
L 185.63415 137.299642 
L 185.63415 131.738263 
L 140.826563 131.738263 
z
" style="fill:#008000;"/>
   </g>
   <g id="patch_24">
    <path clip-path="url(#padb67ffed7)" d="M 140.826563 130.347918 
L 184.164085 130.347918 
L 184.164085 124.786539 
L 140.826563 124.786539 
z
" style="fill:#008000;"/>
   </g>
   <g id="patch_25">
    <path clip-path="url(#padb67ffed7)" d="M 140.826563 123.396194 
L 182.69402 123.396194 
L 182.69402 117.834815 
L 140.826563 117.834815 
z
" style="fill:#008000;"/>
   </g>
   <g id="patch_26">
    <path clip-path="url(#padb67ffed7)" d="M 140.826563 116.44447 
L 182.69402 116.44447 
L 182.69402 110.883091 
L 140.826563 110.883091 
z
" style="fill:#008000;"/>
   </g>
   <g id="patch_27">
    <path clip-path="url(#padb67ffed7)" d="M 140.826563 109.492746 
L 182.282401 109.492746 
L 182.282401 103.931366 
L 140.826563 103.931366 
z
" style="fill:#008000;"/>
   </g>
   <g id="patch_28">
    <path clip-path="url(#padb67ffed7)" d="M 140.826563 102.541022 
L 182.105993 102.541022 
L 182.105993 96.979642 
L 140.826563 96.979642 
z
" style="fill:#008000;"/>
   </g>
   <g id="patch_29">
    <path clip-path="url(#padb67ffed7)" d="M 140.826563 95.589297 
L 181.870783 95.589297 
L 181.870783 90.027918 
L 140.826563 90.027918 
z
" style="fill:#008000;"/>
   </g>
   <g id="patch_30">
    <path clip-path="url(#padb67ffed7)" d="M 140.826563 88.637573 
L 180.400718 88.637573 
L 180.400718 83.076194 
L 140.826563 83.076194 
z
" style="fill:#008000;"/>
   </g>
   <g id="patch_31">
    <path clip-path="url(#padb67ffed7)" d="M 140.826563 81.685849 
L 180.106705 81.685849 
L 180.106705 76.12447 
L 140.826563 76.12447 
z
" style="fill:#008000;"/>
   </g>
   <g id="patch_32">
    <path clip-path="url(#padb67ffed7)" d="M 140.826563 74.734125 
L 179.165863 74.734125 
L 179.165863 69.172746 
L 140.826563 69.172746 
z
" style="fill:#008000;"/>
   </g>
   <g id="patch_33">
    <path clip-path="url(#padb67ffed7)" d="M 140.826563 67.782401 
L 178.813047 67.782401 
L 178.813047 62.221022 
L 140.826563 62.221022 
z
" style="fill:#008000;"/>
   </g>
   <g id="patch_34">
    <path clip-path="url(#padb67ffed7)" d="M 140.826563 60.830677 
L 177.989811 60.830677 
L 177.989811 55.269297 
L 140.826563 55.269297 
z
" style="fill:#008000;"/>
   </g>
   <g id="patch_35">
    <path clip-path="url(#padb67ffed7)" d="M 140.826563 53.878953 
L 177.931008 53.878953 
L 177.931008 48.317573 
L 140.826563 48.317573 
z
" style="fill:#008000;"/>
   </g>
   <g id="patch_36">
    <path clip-path="url(#padb67ffed7)" d="M 140.826563 46.927228 
L 176.40214 46.927228 
L 176.40214 41.365849 
L 140.826563 41.365849 
z
" style="fill:#008000;"/>
   </g>
   <g id="patch_37">
    <path clip-path="url(#padb67ffed7)" d="M 140.826563 39.975504 
L 176.108127 39.975504 
L 176.108127 34.414125 
L 140.826563 34.414125 
z
" style="fill:#008000;"/>
   </g>
   <g id="matplotlib.axis_1">
    <g id="xtick_1">
     <g id="line2d_1">
      <defs>
       <path d="M 0 0 
L 0 3.5 
" id="m7768e54e0e" style="stroke:#000000;stroke-width:0.8;"/>
      </defs>
      <g>
       <use style="stroke:#000000;stroke-width:0.8;" x="140.826563" xlink:href="#m7768e54e0e" y="288.430125"/>
      </g>
     </g>
     <g id="text_1">
      <!-- 0 -->
      <defs>
       <path d="M 31.78125 66.40625 
Q 24.171875 66.40625 20.328125 58.90625 
Q 16.5 51.421875 16.5 36.375 
Q 16.5 21.390625 20.328125 13.890625 
Q 24.171875 6.390625 31.78125 6.390625 
Q 39.453125 6.390625 43.28125 13.890625 
Q 47.125 21.390625 47.125 36.375 
Q 47.125 51.421875 43.28125 58.90625 
Q 39.453125 66.40625 31.78125 66.40625 
z
M 31.78125 74.21875 
Q 44.046875 74.21875 50.515625 64.515625 
Q 56.984375 54.828125 56.984375 36.375 
Q 56.984375 17.96875 50.515625 8.265625 
Q 44.046875 -1.421875 31.78125 -1.421875 
Q 19.53125 -1.421875 13.0625 8.265625 
Q 6.59375 17.96875 6.59375 36.375 
Q 6.59375 54.828125 13.0625 64.515625 
Q 19.53125 74.21875 31.78125 74.21875 
z
" id="DejaVuSans-48"/>
      </defs>
      <g transform="translate(137.645313 303.028562)scale(0.1 -0.1)">
       <use xlink:href="#DejaVuSans-48"/>
      </g>
     </g>
    </g>
    <g id="xtick_2">
     <g id="line2d_2">
      <g>
       <use style="stroke:#000000;stroke-width:0.8;" x="199.629171" xlink:href="#m7768e54e0e" y="288.430125"/>
      </g>
     </g>
     <g id="text_2">
      <!-- 1000 -->
      <defs>
       <path d="M 12.40625 8.296875 
L 28.515625 8.296875 
L 28.515625 63.921875 
L 10.984375 60.40625 
L 10.984375 69.390625 
L 28.421875 72.90625 
L 38.28125 72.90625 
L 38.28125 8.296875 
L 54.390625 8.296875 
L 54.390625 0 
L 12.40625 0 
z
" id="DejaVuSans-49"/>
      </defs>
      <g transform="translate(186.904171 303.028562)scale(0.1 -0.1)">
       <use xlink:href="#DejaVuSans-49"/>
       <use x="63.623047" xlink:href="#DejaVuSans-48"/>
       <use x="127.246094" xlink:href="#DejaVuSans-48"/>
       <use x="190.869141" xlink:href="#DejaVuSans-48"/>
      </g>
     </g>
    </g>
    <g id="xtick_3">
     <g id="line2d_3">
      <g>
       <use style="stroke:#000000;stroke-width:0.8;" x="258.431779" xlink:href="#m7768e54e0e" y="288.430125"/>
      </g>
     </g>
     <g id="text_3">
      <!-- 2000 -->
      <defs>
       <path d="M 19.1875 8.296875 
L 53.609375 8.296875 
L 53.609375 0 
L 7.328125 0 
L 7.328125 8.296875 
Q 12.9375 14.109375 22.625 23.890625 
Q 32.328125 33.6875 34.8125 36.53125 
Q 39.546875 41.84375 41.421875 45.53125 
Q 43.3125 49.21875 43.3125 52.78125 
Q 43.3125 58.59375 39.234375 62.25 
Q 35.15625 65.921875 28.609375 65.921875 
Q 23.96875 65.921875 18.8125 64.3125 
Q 13.671875 62.703125 7.8125 59.421875 
L 7.8125 69.390625 
Q 13.765625 71.78125 18.9375 73 
Q 24.125 74.21875 28.421875 74.21875 
Q 39.75 74.21875 46.484375 68.546875 
Q 53.21875 62.890625 53.21875 53.421875 
Q 53.21875 48.921875 51.53125 44.890625 
Q 49.859375 40.875 45.40625 35.40625 
Q 44.1875 33.984375 37.640625 27.21875 
Q 31.109375 20.453125 19.1875 8.296875 
z
" id="DejaVuSans-50"/>
      </defs>
      <g transform="translate(245.706779 303.028562)scale(0.1 -0.1)">
       <use xlink:href="#DejaVuSans-50"/>
       <use x="63.623047" xlink:href="#DejaVuSans-48"/>
       <use x="127.246094" xlink:href="#DejaVuSans-48"/>
       <use x="190.869141" xlink:href="#DejaVuSans-48"/>
      </g>
     </g>
    </g>
    <g id="xtick_4">
     <g id="line2d_4">
      <g>
       <use style="stroke:#000000;stroke-width:0.8;" x="317.234387" xlink:href="#m7768e54e0e" y="288.430125"/>
      </g>
     </g>
     <g id="text_4">
      <!-- 3000 -->
      <defs>
       <path d="M 40.578125 39.3125 
Q 47.65625 37.796875 51.625 33 
Q 55.609375 28.21875 55.609375 21.1875 
Q 55.609375 10.40625 48.1875 4.484375 
Q 40.765625 -1.421875 27.09375 -1.421875 
Q 22.515625 -1.421875 17.65625 -0.515625 
Q 12.796875 0.390625 7.625 2.203125 
L 7.625 11.71875 
Q 11.71875 9.328125 16.59375 8.109375 
Q 21.484375 6.890625 26.8125 6.890625 
Q 36.078125 6.890625 40.9375 10.546875 
Q 45.796875 14.203125 45.796875 21.1875 
Q 45.796875 27.640625 41.28125 31.265625 
Q 36.765625 34.90625 28.71875 34.90625 
L 20.21875 34.90625 
L 20.21875 43.015625 
L 29.109375 43.015625 
Q 36.375 43.015625 40.234375 45.921875 
Q 44.09375 48.828125 44.09375 54.296875 
Q 44.09375 59.90625 40.109375 62.90625 
Q 36.140625 65.921875 28.71875 65.921875 
Q 24.65625 65.921875 20.015625 65.03125 
Q 15.375 64.15625 9.8125 62.3125 
L 9.8125 71.09375 
Q 15.4375 72.65625 20.34375 73.4375 
Q 25.25 74.21875 29.59375 74.21875 
Q 40.828125 74.21875 47.359375 69.109375 
Q 53.90625 64.015625 53.90625 55.328125 
Q 53.90625 49.265625 50.4375 45.09375 
Q 46.96875 40.921875 40.578125 39.3125 
z
" id="DejaVuSans-51"/>
      </defs>
      <g transform="translate(304.509387 303.028562)scale(0.1 -0.1)">
       <use xlink:href="#DejaVuSans-51"/>
       <use x="63.623047" xlink:href="#DejaVuSans-48"/>
       <use x="127.246094" xlink:href="#DejaVuSans-48"/>
       <use x="190.869141" xlink:href="#DejaVuSans-48"/>
      </g>
     </g>
    </g>
    <g id="xtick_5">
     <g id="line2d_5">
      <g>
       <use style="stroke:#000000;stroke-width:0.8;" x="376.036995" xlink:href="#m7768e54e0e" y="288.430125"/>
      </g>
     </g>
     <g id="text_5">
      <!-- 4000 -->
      <defs>
       <path d="M 37.796875 64.3125 
L 12.890625 25.390625 
L 37.796875 25.390625 
z
M 35.203125 72.90625 
L 47.609375 72.90625 
L 47.609375 25.390625 
L 58.015625 25.390625 
L 58.015625 17.1875 
L 47.609375 17.1875 
L 47.609375 0 
L 37.796875 0 
L 37.796875 17.1875 
L 4.890625 17.1875 
L 4.890625 26.703125 
z
" id="DejaVuSans-52"/>
      </defs>
      <g transform="translate(363.311995 303.028562)scale(0.1 -0.1)">
       <use xlink:href="#DejaVuSans-52"/>
       <use x="63.623047" xlink:href="#DejaVuSans-48"/>
       <use x="127.246094" xlink:href="#DejaVuSans-48"/>
       <use x="190.869141" xlink:href="#DejaVuSans-48"/>
      </g>
     </g>
    </g>
    <g id="xtick_6">
     <g id="line2d_6">
      <g>
       <use style="stroke:#000000;stroke-width:0.8;" x="434.839603" xlink:href="#m7768e54e0e" y="288.430125"/>
      </g>
     </g>
     <g id="text_6">
      <!-- 5000 -->
      <defs>
       <path d="M 10.796875 72.90625 
L 49.515625 72.90625 
L 49.515625 64.59375 
L 19.828125 64.59375 
L 19.828125 46.734375 
Q 21.96875 47.46875 24.109375 47.828125 
Q 26.265625 48.1875 28.421875 48.1875 
Q 40.625 48.1875 47.75 41.5 
Q 54.890625 34.8125 54.890625 23.390625 
Q 54.890625 11.625 47.5625 5.09375 
Q 40.234375 -1.421875 26.90625 -1.421875 
Q 22.3125 -1.421875 17.546875 -0.640625 
Q 12.796875 0.140625 7.71875 1.703125 
L 7.71875 11.625 
Q 12.109375 9.234375 16.796875 8.0625 
Q 21.484375 6.890625 26.703125 6.890625 
Q 35.15625 6.890625 40.078125 11.328125 
Q 45.015625 15.765625 45.015625 23.390625 
Q 45.015625 31 40.078125 35.4375 
Q 35.15625 39.890625 26.703125 39.890625 
Q 22.75 39.890625 18.8125 39.015625 
Q 14.890625 38.140625 10.796875 36.28125 
z
" id="DejaVuSans-53"/>
      </defs>
      <g transform="translate(422.114603 303.028562)scale(0.1 -0.1)">
       <use xlink:href="#DejaVuSans-53"/>
       <use x="63.623047" xlink:href="#DejaVuSans-48"/>
       <use x="127.246094" xlink:href="#DejaVuSans-48"/>
       <use x="190.869141" xlink:href="#DejaVuSans-48"/>
      </g>
     </g>
    </g>
    <g id="xtick_7">
     <g id="line2d_7">
      <g>
       <use style="stroke:#000000;stroke-width:0.8;" x="493.642212" xlink:href="#m7768e54e0e" y="288.430125"/>
      </g>
     </g>
     <g id="text_7">
      <!-- 6000 -->
      <defs>
       <path d="M 33.015625 40.375 
Q 26.375 40.375 22.484375 35.828125 
Q 18.609375 31.296875 18.609375 23.390625 
Q 18.609375 15.53125 22.484375 10.953125 
Q 26.375 6.390625 33.015625 6.390625 
Q 39.65625 6.390625 43.53125 10.953125 
Q 47.40625 15.53125 47.40625 23.390625 
Q 47.40625 31.296875 43.53125 35.828125 
Q 39.65625 40.375 33.015625 40.375 
z
M 52.59375 71.296875 
L 52.59375 62.3125 
Q 48.875 64.0625 45.09375 64.984375 
Q 41.3125 65.921875 37.59375 65.921875 
Q 27.828125 65.921875 22.671875 59.328125 
Q 17.53125 52.734375 16.796875 39.40625 
Q 19.671875 43.65625 24.015625 45.921875 
Q 28.375 48.1875 33.59375 48.1875 
Q 44.578125 48.1875 50.953125 41.515625 
Q 57.328125 34.859375 57.328125 23.390625 
Q 57.328125 12.15625 50.6875 5.359375 
Q 44.046875 -1.421875 33.015625 -1.421875 
Q 20.359375 -1.421875 13.671875 8.265625 
Q 6.984375 17.96875 6.984375 36.375 
Q 6.984375 53.65625 15.1875 63.9375 
Q 23.390625 74.21875 37.203125 74.21875 
Q 40.921875 74.21875 44.703125 73.484375 
Q 48.484375 72.75 52.59375 71.296875 
z
" id="DejaVuSans-54"/>
      </defs>
      <g transform="translate(480.917212 303.028562)scale(0.1 -0.1)">
       <use xlink:href="#DejaVuSans-54"/>
       <use x="63.623047" xlink:href="#DejaVuSans-48"/>
       <use x="127.246094" xlink:href="#DejaVuSans-48"/>
       <use x="190.869141" xlink:href="#DejaVuSans-48"/>
      </g>
     </g>
    </g>
    <g id="text_8">
     <!-- Count -->
     <defs>
      <path d="M 64.40625 67.28125 
L 64.40625 56.890625 
Q 59.421875 61.53125 53.78125 63.8125 
Q 48.140625 66.109375 41.796875 66.109375 
Q 29.296875 66.109375 22.65625 58.46875 
Q 16.015625 50.828125 16.015625 36.375 
Q 16.015625 21.96875 22.65625 14.328125 
Q 29.296875 6.6875 41.796875 6.6875 
Q 48.140625 6.6875 53.78125 8.984375 
Q 59.421875 11.28125 64.40625 15.921875 
L 64.40625 5.609375 
Q 59.234375 2.09375 53.4375 0.328125 
Q 47.65625 -1.421875 41.21875 -1.421875 
Q 24.65625 -1.421875 15.125 8.703125 
Q 5.609375 18.84375 5.609375 36.375 
Q 5.609375 53.953125 15.125 64.078125 
Q 24.65625 74.21875 41.21875 74.21875 
Q 47.75 74.21875 53.53125 72.484375 
Q 59.328125 70.75 64.40625 67.28125 
z
" id="DejaVuSans-67"/>
      <path d="M 30.609375 48.390625 
Q 23.390625 48.390625 19.1875 42.75 
Q 14.984375 37.109375 14.984375 27.296875 
Q 14.984375 17.484375 19.15625 11.84375 
Q 23.34375 6.203125 30.609375 6.203125 
Q 37.796875 6.203125 41.984375 11.859375 
Q 46.1875 17.53125 46.1875 27.296875 
Q 46.1875 37.015625 41.984375 42.703125 
Q 37.796875 48.390625 30.609375 48.390625 
z
M 30.609375 56 
Q 42.328125 56 49.015625 48.375 
Q 55.71875 40.765625 55.71875 27.296875 
Q 55.71875 13.875 49.015625 6.21875 
Q 42.328125 -1.421875 30.609375 -1.421875 
Q 18.84375 -1.421875 12.171875 6.21875 
Q 5.515625 13.875 5.515625 27.296875 
Q 5.515625 40.765625 12.171875 48.375 
Q 18.84375 56 30.609375 56 
z
" id="DejaVuSans-111"/>
      <path d="M 8.5 21.578125 
L 8.5 54.6875 
L 17.484375 54.6875 
L 17.484375 21.921875 
Q 17.484375 14.15625 20.5 10.265625 
Q 23.53125 6.390625 29.59375 6.390625 
Q 36.859375 6.390625 41.078125 11.03125 
Q 45.3125 15.671875 45.3125 23.6875 
L 45.3125 54.6875 
L 54.296875 54.6875 
L 54.296875 0 
L 45.3125 0 
L 45.3125 8.40625 
Q 42.046875 3.421875 37.71875 1 
Q 33.40625 -1.421875 27.6875 -1.421875 
Q 18.265625 -1.421875 13.375 4.4375 
Q 8.5 10.296875 8.5 21.578125 
z
M 31.109375 56 
z
" id="DejaVuSans-117"/>
      <path d="M 54.890625 33.015625 
L 54.890625 0 
L 45.90625 0 
L 45.90625 32.71875 
Q 45.90625 40.484375 42.875 44.328125 
Q 39.84375 48.1875 33.796875 48.1875 
Q 26.515625 48.1875 22.3125 43.546875 
Q 18.109375 38.921875 18.109375 30.90625 
L 18.109375 0 
L 9.078125 0 
L 9.078125 54.6875 
L 18.109375 54.6875 
L 18.109375 46.1875 
Q 21.34375 51.125 25.703125 53.5625 
Q 30.078125 56 35.796875 56 
Q 45.21875 56 50.046875 50.171875 
Q 54.890625 44.34375 54.890625 33.015625 
z
" id="DejaVuSans-110"/>
      <path d="M 18.3125 70.21875 
L 18.3125 54.6875 
L 36.8125 54.6875 
L 36.8125 47.703125 
L 18.3125 47.703125 
L 18.3125 18.015625 
Q 18.3125 11.328125 20.140625 9.421875 
Q 21.96875 7.515625 27.59375 7.515625 
L 36.8125 7.515625 
L 36.8125 0 
L 27.59375 0 
Q 17.1875 0 13.234375 3.875 
Q 9.28125 7.765625 9.28125 18.015625 
L 9.28125 47.703125 
L 2.6875 47.703125 
L 2.6875 54.6875 
L 9.28125 54.6875 
L 9.28125 70.21875 
z
" id="DejaVuSans-116"/>
     </defs>
     <g transform="translate(304.538125 316.706687)scale(0.1 -0.1)">
      <use xlink:href="#DejaVuSans-67"/>
      <use x="69.824219" xlink:href="#DejaVuSans-111"/>
      <use x="131.005859" xlink:href="#DejaVuSans-117"/>
      <use x="194.384766" xlink:href="#DejaVuSans-110"/>
      <use x="257.763672" xlink:href="#DejaVuSans-116"/>
     </g>
    </g>
   </g>
   <g id="matplotlib.axis_2">
    <g id="ytick_1">
     <g id="line2d_8">
      <defs>
       <path d="M 0 0 
L -3.5 0 
" id="mbf9c5750a8" style="stroke:#000000;stroke-width:0.8;"/>
      </defs>
      <g>
       <use style="stroke:#000000;stroke-width:0.8;" x="140.826563" xlink:href="#mbf9c5750a8" y="273.553435"/>
      </g>
     </g>
     <g id="text_9">
      <!-- this game is -->
      <defs>
       <path d="M 54.890625 33.015625 
L 54.890625 0 
L 45.90625 0 
L 45.90625 32.71875 
Q 45.90625 40.484375 42.875 44.328125 
Q 39.84375 48.1875 33.796875 48.1875 
Q 26.515625 48.1875 22.3125 43.546875 
Q 18.109375 38.921875 18.109375 30.90625 
L 18.109375 0 
L 9.078125 0 
L 9.078125 75.984375 
L 18.109375 75.984375 
L 18.109375 46.1875 
Q 21.34375 51.125 25.703125 53.5625 
Q 30.078125 56 35.796875 56 
Q 45.21875 56 50.046875 50.171875 
Q 54.890625 44.34375 54.890625 33.015625 
z
" id="DejaVuSans-104"/>
       <path d="M 9.421875 54.6875 
L 18.40625 54.6875 
L 18.40625 0 
L 9.421875 0 
z
M 9.421875 75.984375 
L 18.40625 75.984375 
L 18.40625 64.59375 
L 9.421875 64.59375 
z
" id="DejaVuSans-105"/>
       <path d="M 44.28125 53.078125 
L 44.28125 44.578125 
Q 40.484375 46.53125 36.375 47.5 
Q 32.28125 48.484375 27.875 48.484375 
Q 21.1875 48.484375 17.84375 46.4375 
Q 14.5 44.390625 14.5 40.28125 
Q 14.5 37.15625 16.890625 35.375 
Q 19.28125 33.59375 26.515625 31.984375 
L 29.59375 31.296875 
Q 39.15625 29.25 43.1875 25.515625 
Q 47.21875 21.78125 47.21875 15.09375 
Q 47.21875 7.46875 41.1875 3.015625 
Q 35.15625 -1.421875 24.609375 -1.421875 
Q 20.21875 -1.421875 15.453125 -0.5625 
Q 10.6875 0.296875 5.421875 2 
L 5.421875 11.28125 
Q 10.40625 8.6875 15.234375 7.390625 
Q 20.0625 6.109375 24.8125 6.109375 
Q 31.15625 6.109375 34.5625 8.28125 
Q 37.984375 10.453125 37.984375 14.40625 
Q 37.984375 18.0625 35.515625 20.015625 
Q 33.0625 21.96875 24.703125 23.78125 
L 21.578125 24.515625 
Q 13.234375 26.265625 9.515625 29.90625 
Q 5.8125 33.546875 5.8125 39.890625 
Q 5.8125 47.609375 11.28125 51.796875 
Q 16.75 56 26.8125 56 
Q 31.78125 56 36.171875 55.265625 
Q 40.578125 54.546875 44.28125 53.078125 
z
" id="DejaVuSans-115"/>
       <path id="DejaVuSans-32"/>
       <path d="M 45.40625 27.984375 
Q 45.40625 37.75 41.375 43.109375 
Q 37.359375 48.484375 30.078125 48.484375 
Q 22.859375 48.484375 18.828125 43.109375 
Q 14.796875 37.75 14.796875 27.984375 
Q 14.796875 18.265625 18.828125 12.890625 
Q 22.859375 7.515625 30.078125 7.515625 
Q 37.359375 7.515625 41.375 12.890625 
Q 45.40625 18.265625 45.40625 27.984375 
z
M 54.390625 6.78125 
Q 54.390625 -7.171875 48.1875 -13.984375 
Q 42 -20.796875 29.203125 -20.796875 
Q 24.46875 -20.796875 20.265625 -20.09375 
Q 16.0625 -19.390625 12.109375 -17.921875 
L 12.109375 -9.1875 
Q 16.0625 -11.328125 19.921875 -12.34375 
Q 23.78125 -13.375 27.78125 -13.375 
Q 36.625 -13.375 41.015625 -8.765625 
Q 45.40625 -4.15625 45.40625 5.171875 
L 45.40625 9.625 
Q 42.625 4.78125 38.28125 2.390625 
Q 33.9375 0 27.875 0 
Q 17.828125 0 11.671875 7.65625 
Q 5.515625 15.328125 5.515625 27.984375 
Q 5.515625 40.671875 11.671875 48.328125 
Q 17.828125 56 27.875 56 
Q 33.9375 56 38.28125 53.609375 
Q 42.625 51.21875 45.40625 46.390625 
L 45.40625 54.6875 
L 54.390625 54.6875 
z
" id="DejaVuSans-103"/>
       <path d="M 34.28125 27.484375 
Q 23.390625 27.484375 19.1875 25 
Q 14.984375 22.515625 14.984375 16.5 
Q 14.984375 11.71875 18.140625 8.90625 
Q 21.296875 6.109375 26.703125 6.109375 
Q 34.1875 6.109375 38.703125 11.40625 
Q 43.21875 16.703125 43.21875 25.484375 
L 43.21875 27.484375 
z
M 52.203125 31.203125 
L 52.203125 0 
L 43.21875 0 
L 43.21875 8.296875 
Q 40.140625 3.328125 35.546875 0.953125 
Q 30.953125 -1.421875 24.3125 -1.421875 
Q 15.921875 -1.421875 10.953125 3.296875 
Q 6 8.015625 6 15.921875 
Q 6 25.140625 12.171875 29.828125 
Q 18.359375 34.515625 30.609375 34.515625 
L 43.21875 34.515625 
L 43.21875 35.40625 
Q 43.21875 41.609375 39.140625 45 
Q 35.0625 48.390625 27.6875 48.390625 
Q 23 48.390625 18.546875 47.265625 
Q 14.109375 46.140625 10.015625 43.890625 
L 10.015625 52.203125 
Q 14.9375 54.109375 19.578125 55.046875 
Q 24.21875 56 28.609375 56 
Q 40.484375 56 46.34375 49.84375 
Q 52.203125 43.703125 52.203125 31.203125 
z
" id="DejaVuSans-97"/>
       <path d="M 52 44.1875 
Q 55.375 50.25 60.0625 53.125 
Q 64.75 56 71.09375 56 
Q 79.640625 56 84.28125 50.015625 
Q 88.921875 44.046875 88.921875 33.015625 
L 88.921875 0 
L 79.890625 0 
L 79.890625 32.71875 
Q 79.890625 40.578125 77.09375 44.375 
Q 74.3125 48.1875 68.609375 48.1875 
Q 61.625 48.1875 57.5625 43.546875 
Q 53.515625 38.921875 53.515625 30.90625 
L 53.515625 0 
L 44.484375 0 
L 44.484375 32.71875 
Q 44.484375 40.625 41.703125 44.40625 
Q 38.921875 48.1875 33.109375 48.1875 
Q 26.21875 48.1875 22.15625 43.53125 
Q 18.109375 38.875 18.109375 30.90625 
L 18.109375 0 
L 9.078125 0 
L 9.078125 54.6875 
L 18.109375 54.6875 
L 18.109375 46.1875 
Q 21.1875 51.21875 25.484375 53.609375 
Q 29.78125 56 35.6875 56 
Q 41.65625 56 45.828125 52.96875 
Q 50 49.953125 52 44.1875 
z
" id="DejaVuSans-109"/>
       <path d="M 56.203125 29.59375 
L 56.203125 25.203125 
L 14.890625 25.203125 
Q 15.484375 15.921875 20.484375 11.0625 
Q 25.484375 6.203125 34.421875 6.203125 
Q 39.59375 6.203125 44.453125 7.46875 
Q 49.3125 8.734375 54.109375 11.28125 
L 54.109375 2.78125 
Q 49.265625 0.734375 44.1875 -0.34375 
Q 39.109375 -1.421875 33.890625 -1.421875 
Q 20.796875 -1.421875 13.15625 6.1875 
Q 5.515625 13.8125 5.515625 26.8125 
Q 5.515625 40.234375 12.765625 48.109375 
Q 20.015625 56 32.328125 56 
Q 43.359375 56 49.78125 48.890625 
Q 56.203125 41.796875 56.203125 29.59375 
z
M 47.21875 32.234375 
Q 47.125 39.59375 43.09375 43.984375 
Q 39.0625 48.390625 32.421875 48.390625 
Q 24.90625 48.390625 20.390625 44.140625 
Q 15.875 39.890625 15.1875 32.171875 
z
" id="DejaVuSans-101"/>
      </defs>
      <g transform="translate(72.867188 277.352654)scale(0.1 -0.1)">
       <use xlink:href="#DejaVuSans-116"/>
       <use x="39.208984" xlink:href="#DejaVuSans-104"/>
       <use x="102.587891" xlink:href="#DejaVuSans-105"/>
       <use x="130.371094" xlink:href="#DejaVuSans-115"/>
       <use x="182.470703" xlink:href="#DejaVuSans-32"/>
       <use x="214.257812" xlink:href="#DejaVuSans-103"/>
       <use x="277.734375" xlink:href="#DejaVuSans-97"/>
       <use x="339.013672" xlink:href="#DejaVuSans-109"/>
       <use x="436.425781" xlink:href="#DejaVuSans-101"/>
       <use x="497.949219" xlink:href="#DejaVuSans-32"/>
       <use x="529.736328" xlink:href="#DejaVuSans-105"/>
       <use x="557.519531" xlink:href="#DejaVuSans-115"/>
      </g>
     </g>
    </g>
    <g id="ytick_2">
     <g id="line2d_9">
      <g>
       <use style="stroke:#000000;stroke-width:0.8;" x="140.826563" xlink:href="#mbf9c5750a8" y="266.601711"/>
      </g>
     </g>
     <g id="text_10">
      <!-- 3 3 3 -->
      <g transform="translate(108.382813 270.40093)scale(0.1 -0.1)">
       <use xlink:href="#DejaVuSans-51"/>
       <use x="63.623047" xlink:href="#DejaVuSans-32"/>
       <use x="95.410156" xlink:href="#DejaVuSans-51"/>
       <use x="159.033203" xlink:href="#DejaVuSans-32"/>
       <use x="190.820312" xlink:href="#DejaVuSans-51"/>
      </g>
     </g>
    </g>
    <g id="ytick_3">
     <g id="line2d_10">
      <g>
       <use style="stroke:#000000;stroke-width:0.8;" x="140.826563" xlink:href="#mbf9c5750a8" y="259.649987"/>
      </g>
     </g>
     <g id="text_11">
      <!-- one of the -->
      <defs>
       <path d="M 37.109375 75.984375 
L 37.109375 68.5 
L 28.515625 68.5 
Q 23.6875 68.5 21.796875 66.546875 
Q 19.921875 64.59375 19.921875 59.515625 
L 19.921875 54.6875 
L 34.71875 54.6875 
L 34.71875 47.703125 
L 19.921875 47.703125 
L 19.921875 0 
L 10.890625 0 
L 10.890625 47.703125 
L 2.296875 47.703125 
L 2.296875 54.6875 
L 10.890625 54.6875 
L 10.890625 58.5 
Q 10.890625 67.625 15.140625 71.796875 
Q 19.390625 75.984375 28.609375 75.984375 
z
" id="DejaVuSans-102"/>
      </defs>
      <g transform="translate(82.810938 263.449206)scale(0.1 -0.1)">
       <use xlink:href="#DejaVuSans-111"/>
       <use x="61.181641" xlink:href="#DejaVuSans-110"/>
       <use x="124.560547" xlink:href="#DejaVuSans-101"/>
       <use x="186.083984" xlink:href="#DejaVuSans-32"/>
       <use x="217.871094" xlink:href="#DejaVuSans-111"/>
       <use x="279.052734" xlink:href="#DejaVuSans-102"/>
       <use x="314.257812" xlink:href="#DejaVuSans-32"/>
       <use x="346.044922" xlink:href="#DejaVuSans-116"/>
       <use x="385.253906" xlink:href="#DejaVuSans-104"/>
       <use x="448.632812" xlink:href="#DejaVuSans-101"/>
      </g>
     </g>
    </g>
    <g id="ytick_4">
     <g id="line2d_11">
      <g>
       <use style="stroke:#000000;stroke-width:0.8;" x="140.826563" xlink:href="#mbf9c5750a8" y="252.698263"/>
      </g>
     </g>
     <g id="text_12">
      <!-- hat hat hat -->
      <g transform="translate(78.3125 256.497482)scale(0.1 -0.1)">
       <use xlink:href="#DejaVuSans-104"/>
       <use x="63.378906" xlink:href="#DejaVuSans-97"/>
       <use x="124.658203" xlink:href="#DejaVuSans-116"/>
       <use x="163.867188" xlink:href="#DejaVuSans-32"/>
       <use x="195.654297" xlink:href="#DejaVuSans-104"/>
       <use x="259.033203" xlink:href="#DejaVuSans-97"/>
       <use x="320.3125" xlink:href="#DejaVuSans-116"/>
       <use x="359.521484" xlink:href="#DejaVuSans-32"/>
       <use x="391.308594" xlink:href="#DejaVuSans-104"/>
       <use x="454.6875" xlink:href="#DejaVuSans-97"/>
       <use x="515.966797" xlink:href="#DejaVuSans-116"/>
      </g>
     </g>
    </g>
    <g id="ytick_5">
     <g id="line2d_12">
      <g>
       <use style="stroke:#000000;stroke-width:0.8;" x="140.826563" xlink:href="#mbf9c5750a8" y="245.746539"/>
      </g>
     </g>
     <g id="text_13">
      <!-- nyan nyan nyan -->
      <defs>
       <path d="M 32.171875 -5.078125 
Q 28.375 -14.84375 24.75 -17.8125 
Q 21.140625 -20.796875 15.09375 -20.796875 
L 7.90625 -20.796875 
L 7.90625 -13.28125 
L 13.1875 -13.28125 
Q 16.890625 -13.28125 18.9375 -11.515625 
Q 21 -9.765625 23.484375 -3.21875 
L 25.09375 0.875 
L 2.984375 54.6875 
L 12.5 54.6875 
L 29.59375 11.921875 
L 46.6875 54.6875 
L 56.203125 54.6875 
z
" id="DejaVuSans-121"/>
      </defs>
      <g transform="translate(53.304688 249.545758)scale(0.1 -0.1)">
       <use xlink:href="#DejaVuSans-110"/>
       <use x="63.378906" xlink:href="#DejaVuSans-121"/>
       <use x="122.558594" xlink:href="#DejaVuSans-97"/>
       <use x="183.837891" xlink:href="#DejaVuSans-110"/>
       <use x="247.216797" xlink:href="#DejaVuSans-32"/>
       <use x="279.003906" xlink:href="#DejaVuSans-110"/>
       <use x="342.382812" xlink:href="#DejaVuSans-121"/>
       <use x="401.5625" xlink:href="#DejaVuSans-97"/>
       <use x="462.841797" xlink:href="#DejaVuSans-110"/>
       <use x="526.220703" xlink:href="#DejaVuSans-32"/>
       <use x="558.007812" xlink:href="#DejaVuSans-110"/>
       <use x="621.386719" xlink:href="#DejaVuSans-121"/>
       <use x="680.566406" xlink:href="#DejaVuSans-97"/>
       <use x="741.845703" xlink:href="#DejaVuSans-110"/>
      </g>
     </g>
    </g>
    <g id="ytick_6">
     <g id="line2d_13">
      <g>
       <use style="stroke:#000000;stroke-width:0.8;" x="140.826563" xlink:href="#mbf9c5750a8" y="238.794815"/>
      </g>
     </g>
     <g id="text_14">
      <!-- the game is -->
      <g transform="translate(74.701563 242.594033)scale(0.1 -0.1)">
       <use xlink:href="#DejaVuSans-116"/>
       <use x="39.208984" xlink:href="#DejaVuSans-104"/>
       <use x="102.587891" xlink:href="#DejaVuSans-101"/>
       <use x="164.111328" xlink:href="#DejaVuSans-32"/>
       <use x="195.898438" xlink:href="#DejaVuSans-103"/>
       <use x="259.375" xlink:href="#DejaVuSans-97"/>
       <use x="320.654297" xlink:href="#DejaVuSans-109"/>
       <use x="418.066406" xlink:href="#DejaVuSans-101"/>
       <use x="479.589844" xlink:href="#DejaVuSans-32"/>
       <use x="511.376953" xlink:href="#DejaVuSans-105"/>
       <use x="539.160156" xlink:href="#DejaVuSans-115"/>
      </g>
     </g>
    </g>
    <g id="ytick_7">
     <g id="line2d_14">
      <g>
       <use style="stroke:#000000;stroke-width:0.8;" x="140.826563" xlink:href="#mbf9c5750a8" y="231.843091"/>
      </g>
     </g>
     <g id="text_15">
      <!-- of the best -->
      <defs>
       <path d="M 48.6875 27.296875 
Q 48.6875 37.203125 44.609375 42.84375 
Q 40.53125 48.484375 33.40625 48.484375 
Q 26.265625 48.484375 22.1875 42.84375 
Q 18.109375 37.203125 18.109375 27.296875 
Q 18.109375 17.390625 22.1875 11.75 
Q 26.265625 6.109375 33.40625 6.109375 
Q 40.53125 6.109375 44.609375 11.75 
Q 48.6875 17.390625 48.6875 27.296875 
z
M 18.109375 46.390625 
Q 20.953125 51.265625 25.265625 53.625 
Q 29.59375 56 35.59375 56 
Q 45.5625 56 51.78125 48.09375 
Q 58.015625 40.1875 58.015625 27.296875 
Q 58.015625 14.40625 51.78125 6.484375 
Q 45.5625 -1.421875 35.59375 -1.421875 
Q 29.59375 -1.421875 25.265625 0.953125 
Q 20.953125 3.328125 18.109375 8.203125 
L 18.109375 0 
L 9.078125 0 
L 9.078125 75.984375 
L 18.109375 75.984375 
z
" id="DejaVuSans-98"/>
      </defs>
      <g transform="translate(79.789063 235.642309)scale(0.1 -0.1)">
       <use xlink:href="#DejaVuSans-111"/>
       <use x="61.181641" xlink:href="#DejaVuSans-102"/>
       <use x="96.386719" xlink:href="#DejaVuSans-32"/>
       <use x="128.173828" xlink:href="#DejaVuSans-116"/>
       <use x="167.382812" xlink:href="#DejaVuSans-104"/>
       <use x="230.761719" xlink:href="#DejaVuSans-101"/>
       <use x="292.285156" xlink:href="#DejaVuSans-32"/>
       <use x="324.072266" xlink:href="#DejaVuSans-98"/>
       <use x="387.548828" xlink:href="#DejaVuSans-101"/>
       <use x="449.072266" xlink:href="#DejaVuSans-115"/>
       <use x="501.171875" xlink:href="#DejaVuSans-116"/>
      </g>
     </g>
    </g>
    <g id="ytick_8">
     <g id="line2d_15">
      <g>
       <use style="stroke:#000000;stroke-width:0.8;" x="140.826563" xlink:href="#mbf9c5750a8" y="224.891366"/>
      </g>
     </g>
     <g id="text_16">
      <!-- this is a -->
      <g transform="translate(95.109375 228.690585)scale(0.1 -0.1)">
       <use xlink:href="#DejaVuSans-116"/>
       <use x="39.208984" xlink:href="#DejaVuSans-104"/>
       <use x="102.587891" xlink:href="#DejaVuSans-105"/>
       <use x="130.371094" xlink:href="#DejaVuSans-115"/>
       <use x="182.470703" xlink:href="#DejaVuSans-32"/>
       <use x="214.257812" xlink:href="#DejaVuSans-105"/>
       <use x="242.041016" xlink:href="#DejaVuSans-115"/>
       <use x="294.140625" xlink:href="#DejaVuSans-32"/>
       <use x="325.927734" xlink:href="#DejaVuSans-97"/>
      </g>
     </g>
    </g>
    <g id="ytick_9">
     <g id="line2d_16">
      <g>
       <use style="stroke:#000000;stroke-width:0.8;" x="140.826563" xlink:href="#mbf9c5750a8" y="217.939642"/>
      </g>
     </g>
     <g id="text_17">
      <!-- a lot of -->
      <defs>
       <path d="M 9.421875 75.984375 
L 18.40625 75.984375 
L 18.40625 0 
L 9.421875 0 
z
" id="DejaVuSans-108"/>
      </defs>
      <g transform="translate(98.885938 221.738861)scale(0.1 -0.1)">
       <use xlink:href="#DejaVuSans-97"/>
       <use x="61.279297" xlink:href="#DejaVuSans-32"/>
       <use x="93.066406" xlink:href="#DejaVuSans-108"/>
       <use x="120.849609" xlink:href="#DejaVuSans-111"/>
       <use x="182.03125" xlink:href="#DejaVuSans-116"/>
       <use x="221.240234" xlink:href="#DejaVuSans-32"/>
       <use x="253.027344" xlink:href="#DejaVuSans-111"/>
       <use x="314.208984" xlink:href="#DejaVuSans-102"/>
      </g>
     </g>
    </g>
    <g id="ytick_10">
     <g id="line2d_17">
      <g>
       <use style="stroke:#000000;stroke-width:0.8;" x="140.826563" xlink:href="#mbf9c5750a8" y="210.987918"/>
      </g>
     </g>
     <g id="text_18">
      <!-- of the game -->
      <g transform="translate(73.05 214.787137)scale(0.1 -0.1)">
       <use xlink:href="#DejaVuSans-111"/>
       <use x="61.181641" xlink:href="#DejaVuSans-102"/>
       <use x="96.386719" xlink:href="#DejaVuSans-32"/>
       <use x="128.173828" xlink:href="#DejaVuSans-116"/>
       <use x="167.382812" xlink:href="#DejaVuSans-104"/>
       <use x="230.761719" xlink:href="#DejaVuSans-101"/>
       <use x="292.285156" xlink:href="#DejaVuSans-32"/>
       <use x="324.072266" xlink:href="#DejaVuSans-103"/>
       <use x="387.548828" xlink:href="#DejaVuSans-97"/>
       <use x="448.828125" xlink:href="#DejaVuSans-109"/>
       <use x="546.240234" xlink:href="#DejaVuSans-101"/>
      </g>
     </g>
    </g>
    <g id="ytick_11">
     <g id="line2d_18">
      <g>
       <use style="stroke:#000000;stroke-width:0.8;" x="140.826563" xlink:href="#mbf9c5750a8" y="204.036194"/>
      </g>
     </g>
     <g id="text_19">
      <!-- a great game -->
      <defs>
       <path d="M 41.109375 46.296875 
Q 39.59375 47.171875 37.8125 47.578125 
Q 36.03125 48 33.890625 48 
Q 26.265625 48 22.1875 43.046875 
Q 18.109375 38.09375 18.109375 28.8125 
L 18.109375 0 
L 9.078125 0 
L 9.078125 54.6875 
L 18.109375 54.6875 
L 18.109375 46.1875 
Q 20.953125 51.171875 25.484375 53.578125 
Q 30.03125 56 36.53125 56 
Q 37.453125 56 38.578125 55.875 
Q 39.703125 55.765625 41.0625 55.515625 
z
" id="DejaVuSans-114"/>
      </defs>
      <g transform="translate(66.535938 207.835413)scale(0.1 -0.1)">
       <use xlink:href="#DejaVuSans-97"/>
       <use x="61.279297" xlink:href="#DejaVuSans-32"/>
       <use x="93.066406" xlink:href="#DejaVuSans-103"/>
       <use x="156.542969" xlink:href="#DejaVuSans-114"/>
       <use x="195.40625" xlink:href="#DejaVuSans-101"/>
       <use x="256.929688" xlink:href="#DejaVuSans-97"/>
       <use x="318.208984" xlink:href="#DejaVuSans-116"/>
       <use x="357.417969" xlink:href="#DejaVuSans-32"/>
       <use x="389.205078" xlink:href="#DejaVuSans-103"/>
       <use x="452.681641" xlink:href="#DejaVuSans-97"/>
       <use x="513.960938" xlink:href="#DejaVuSans-109"/>
       <use x="611.373047" xlink:href="#DejaVuSans-101"/>
      </g>
     </g>
    </g>
    <g id="ytick_12">
     <g id="line2d_19">
      <g>
       <use style="stroke:#000000;stroke-width:0.8;" x="140.826563" xlink:href="#mbf9c5750a8" y="197.08447"/>
      </g>
     </g>
     <g id="text_20">
      <!-- recommend this game -->
      <defs>
       <path d="M 48.78125 52.59375 
L 48.78125 44.1875 
Q 44.96875 46.296875 41.140625 47.34375 
Q 37.3125 48.390625 33.40625 48.390625 
Q 24.65625 48.390625 19.8125 42.84375 
Q 14.984375 37.3125 14.984375 27.296875 
Q 14.984375 17.28125 19.8125 11.734375 
Q 24.65625 6.203125 33.40625 6.203125 
Q 37.3125 6.203125 41.140625 7.25 
Q 44.96875 8.296875 48.78125 10.40625 
L 48.78125 2.09375 
Q 45.015625 0.34375 40.984375 -0.53125 
Q 36.96875 -1.421875 32.421875 -1.421875 
Q 20.0625 -1.421875 12.78125 6.34375 
Q 5.515625 14.109375 5.515625 27.296875 
Q 5.515625 40.671875 12.859375 48.328125 
Q 20.21875 56 33.015625 56 
Q 37.15625 56 41.109375 55.140625 
Q 45.0625 54.296875 48.78125 52.59375 
z
" id="DejaVuSans-99"/>
       <path d="M 45.40625 46.390625 
L 45.40625 75.984375 
L 54.390625 75.984375 
L 54.390625 0 
L 45.40625 0 
L 45.40625 8.203125 
Q 42.578125 3.328125 38.25 0.953125 
Q 33.9375 -1.421875 27.875 -1.421875 
Q 17.96875 -1.421875 11.734375 6.484375 
Q 5.515625 14.40625 5.515625 27.296875 
Q 5.515625 40.1875 11.734375 48.09375 
Q 17.96875 56 27.875 56 
Q 33.9375 56 38.25 53.625 
Q 42.578125 51.265625 45.40625 46.390625 
z
M 14.796875 27.296875 
Q 14.796875 17.390625 18.875 11.75 
Q 22.953125 6.109375 30.078125 6.109375 
Q 37.203125 6.109375 41.296875 11.75 
Q 45.40625 17.390625 45.40625 27.296875 
Q 45.40625 37.203125 41.296875 42.84375 
Q 37.203125 48.484375 30.078125 48.484375 
Q 22.953125 48.484375 18.875 42.84375 
Q 14.796875 37.203125 14.796875 27.296875 
z
" id="DejaVuSans-100"/>
      </defs>
      <g transform="translate(20.878125 200.883689)scale(0.1 -0.1)">
       <use xlink:href="#DejaVuSans-114"/>
       <use x="38.863281" xlink:href="#DejaVuSans-101"/>
       <use x="100.386719" xlink:href="#DejaVuSans-99"/>
       <use x="155.367188" xlink:href="#DejaVuSans-111"/>
       <use x="216.548828" xlink:href="#DejaVuSans-109"/>
       <use x="313.960938" xlink:href="#DejaVuSans-109"/>
       <use x="411.373047" xlink:href="#DejaVuSans-101"/>
       <use x="472.896484" xlink:href="#DejaVuSans-110"/>
       <use x="536.275391" xlink:href="#DejaVuSans-100"/>
       <use x="599.751953" xlink:href="#DejaVuSans-32"/>
       <use x="631.539062" xlink:href="#DejaVuSans-116"/>
       <use x="670.748047" xlink:href="#DejaVuSans-104"/>
       <use x="734.126953" xlink:href="#DejaVuSans-105"/>
       <use x="761.910156" xlink:href="#DejaVuSans-115"/>
       <use x="814.009766" xlink:href="#DejaVuSans-32"/>
       <use x="845.796875" xlink:href="#DejaVuSans-103"/>
       <use x="909.273438" xlink:href="#DejaVuSans-97"/>
       <use x="970.552734" xlink:href="#DejaVuSans-109"/>
       <use x="1067.964844" xlink:href="#DejaVuSans-101"/>
      </g>
     </g>
    </g>
    <g id="ytick_13">
     <g id="line2d_20">
      <g>
       <use style="stroke:#000000;stroke-width:0.8;" x="140.826563" xlink:href="#mbf9c5750a8" y="190.132746"/>
      </g>
     </g>
     <g id="text_21">
      <!-- in this game -->
      <g transform="translate(71.739063 193.931964)scale(0.1 -0.1)">
       <use xlink:href="#DejaVuSans-105"/>
       <use x="27.783203" xlink:href="#DejaVuSans-110"/>
       <use x="91.162109" xlink:href="#DejaVuSans-32"/>
       <use x="122.949219" xlink:href="#DejaVuSans-116"/>
       <use x="162.158203" xlink:href="#DejaVuSans-104"/>
       <use x="225.537109" xlink:href="#DejaVuSans-105"/>
       <use x="253.320312" xlink:href="#DejaVuSans-115"/>
       <use x="305.419922" xlink:href="#DejaVuSans-32"/>
       <use x="337.207031" xlink:href="#DejaVuSans-103"/>
       <use x="400.683594" xlink:href="#DejaVuSans-97"/>
       <use x="461.962891" xlink:href="#DejaVuSans-109"/>
       <use x="559.375" xlink:href="#DejaVuSans-101"/>
      </g>
     </g>
    </g>
    <g id="ytick_14">
     <g id="line2d_21">
      <g>
       <use style="stroke:#000000;stroke-width:0.8;" x="140.826563" xlink:href="#mbf9c5750a8" y="183.181022"/>
      </g>
     </g>
     <g id="text_22">
      <!-- член член член -->
      <defs>
       <path d="M 41.015625 0 
L 41.015625 23 
L 24.265625 23 
Q 16.796875 23 11.8125 27.640625 
Q 7.328125 31.84375 7.328125 40.828125 
L 7.328125 54.6875 
L 16.3125 54.6875 
L 16.3125 41.65625 
Q 16.3125 35.9375 18.84375 33.0625 
Q 21.4375 30.171875 26.515625 30.171875 
L 41.015625 30.171875 
L 41.015625 54.6875 
L 50 54.6875 
L 50 0 
z
" id="DejaVuSans-1095"/>
       <path d="M 3.71875 0 
L 3.71875 7.46875 
Q 12.59375 8.84375 15.328125 14.984375 
Q 18.65625 23.640625 18.65625 45.75 
L 18.65625 54.6875 
L 55.609375 54.6875 
L 55.609375 0 
L 46.625 0 
L 46.625 47.515625 
L 27.640625 47.515625 
L 27.640625 42.09375 
Q 27.640625 21 23.34375 11.53125 
Q 18.75 1.421875 3.71875 0 
z
" id="DejaVuSans-1083"/>
       <path d="M 56.203125 29.59375 
L 56.203125 25.203125 
L 14.890625 25.203125 
Q 15.484375 15.921875 20.484375 11.0625 
Q 25.484375 6.203125 34.421875 6.203125 
Q 39.59375 6.203125 44.453125 7.46875 
Q 49.3125 8.734375 54.109375 11.28125 
L 54.109375 2.78125 
Q 49.265625 0.734375 44.1875 -0.34375 
Q 39.109375 -1.421875 33.890625 -1.421875 
Q 20.796875 -1.421875 13.15625 6.1875 
Q 5.515625 13.8125 5.515625 26.8125 
Q 5.515625 40.234375 12.765625 48.109375 
Q 20.015625 56 32.328125 56 
Q 43.359375 56 49.78125 48.890625 
Q 56.203125 41.796875 56.203125 29.59375 
z
M 47.21875 32.234375 
Q 47.125 39.59375 43.09375 43.984375 
Q 39.0625 48.390625 32.421875 48.390625 
Q 24.90625 48.390625 20.390625 44.140625 
Q 15.875 39.890625 15.1875 32.171875 
z
" id="DejaVuSans-1077"/>
       <path d="M 9.078125 54.6875 
L 18.109375 54.6875 
L 18.109375 32.375 
L 47.265625 32.375 
L 47.265625 54.6875 
L 56.296875 54.6875 
L 56.296875 0 
L 47.265625 0 
L 47.265625 25.203125 
L 18.109375 25.203125 
L 18.109375 0 
L 9.078125 0 
z
" id="DejaVuSans-1085"/>
      </defs>
      <g transform="translate(52.498438 186.98024)scale(0.1 -0.1)">
       <use xlink:href="#DejaVuSans-1095"/>
       <use x="59.082031" xlink:href="#DejaVuSans-1083"/>
       <use x="122.998047" xlink:href="#DejaVuSans-1077"/>
       <use x="184.521484" xlink:href="#DejaVuSans-1085"/>
       <use x="249.902344" xlink:href="#DejaVuSans-32"/>
       <use x="281.689453" xlink:href="#DejaVuSans-1095"/>
       <use x="340.771484" xlink:href="#DejaVuSans-1083"/>
       <use x="404.6875" xlink:href="#DejaVuSans-1077"/>
       <use x="466.210938" xlink:href="#DejaVuSans-1085"/>
       <use x="531.591797" xlink:href="#DejaVuSans-32"/>
       <use x="563.378906" xlink:href="#DejaVuSans-1095"/>
       <use x="622.460938" xlink:href="#DejaVuSans-1083"/>
       <use x="686.376953" xlink:href="#DejaVuSans-1077"/>
       <use x="747.900391" xlink:href="#DejaVuSans-1085"/>
      </g>
     </g>
    </g>
    <g id="ytick_15">
     <g id="line2d_22">
      <g>
       <use style="stroke:#000000;stroke-width:0.8;" x="140.826563" xlink:href="#mbf9c5750a8" y="176.229297"/>
      </g>
     </g>
     <g id="text_23">
      <!-- bad bad bad -->
      <g transform="translate(70.995313 180.028516)scale(0.1 -0.1)">
       <use xlink:href="#DejaVuSans-98"/>
       <use x="63.476562" xlink:href="#DejaVuSans-97"/>
       <use x="124.755859" xlink:href="#DejaVuSans-100"/>
       <use x="188.232422" xlink:href="#DejaVuSans-32"/>
       <use x="220.019531" xlink:href="#DejaVuSans-98"/>
       <use x="283.496094" xlink:href="#DejaVuSans-97"/>
       <use x="344.775391" xlink:href="#DejaVuSans-100"/>
       <use x="408.251953" xlink:href="#DejaVuSans-32"/>
       <use x="440.039062" xlink:href="#DejaVuSans-98"/>
       <use x="503.515625" xlink:href="#DejaVuSans-97"/>
       <use x="564.794922" xlink:href="#DejaVuSans-100"/>
      </g>
     </g>
    </g>
    <g id="ytick_16">
     <g id="line2d_23">
      <g>
       <use style="stroke:#000000;stroke-width:0.8;" x="140.826563" xlink:href="#mbf9c5750a8" y="169.277573"/>
      </g>
     </g>
     <g id="text_24">
      <!-- hats hats hats -->
      <g transform="translate(62.684375 173.076792)scale(0.1 -0.1)">
       <use xlink:href="#DejaVuSans-104"/>
       <use x="63.378906" xlink:href="#DejaVuSans-97"/>
       <use x="124.658203" xlink:href="#DejaVuSans-116"/>
       <use x="163.867188" xlink:href="#DejaVuSans-115"/>
       <use x="215.966797" xlink:href="#DejaVuSans-32"/>
       <use x="247.753906" xlink:href="#DejaVuSans-104"/>
       <use x="311.132812" xlink:href="#DejaVuSans-97"/>
       <use x="372.412109" xlink:href="#DejaVuSans-116"/>
       <use x="411.621094" xlink:href="#DejaVuSans-115"/>
       <use x="463.720703" xlink:href="#DejaVuSans-32"/>
       <use x="495.507812" xlink:href="#DejaVuSans-104"/>
       <use x="558.886719" xlink:href="#DejaVuSans-97"/>
       <use x="620.166016" xlink:href="#DejaVuSans-116"/>
       <use x="659.375" xlink:href="#DejaVuSans-115"/>
      </g>
     </g>
    </g>
    <g id="ytick_17">
     <g id="line2d_24">
      <g>
       <use style="stroke:#000000;stroke-width:0.8;" x="140.826563" xlink:href="#mbf9c5750a8" y="162.325849"/>
      </g>
     </g>
     <g id="text_25">
      <!-- love this game -->
      <defs>
       <path d="M 2.984375 54.6875 
L 12.5 54.6875 
L 29.59375 8.796875 
L 46.6875 54.6875 
L 56.203125 54.6875 
L 35.6875 0 
L 23.484375 0 
z
" id="DejaVuSans-118"/>
      </defs>
      <g transform="translate(59.885938 166.125068)scale(0.1 -0.1)">
       <use xlink:href="#DejaVuSans-108"/>
       <use x="27.783203" xlink:href="#DejaVuSans-111"/>
       <use x="88.964844" xlink:href="#DejaVuSans-118"/>
       <use x="148.144531" xlink:href="#DejaVuSans-101"/>
       <use x="209.667969" xlink:href="#DejaVuSans-32"/>
       <use x="241.455078" xlink:href="#DejaVuSans-116"/>
       <use x="280.664062" xlink:href="#DejaVuSans-104"/>
       <use x="344.042969" xlink:href="#DejaVuSans-105"/>
       <use x="371.826172" xlink:href="#DejaVuSans-115"/>
       <use x="423.925781" xlink:href="#DejaVuSans-32"/>
       <use x="455.712891" xlink:href="#DejaVuSans-103"/>
       <use x="519.189453" xlink:href="#DejaVuSans-97"/>
       <use x="580.46875" xlink:href="#DejaVuSans-109"/>
       <use x="677.880859" xlink:href="#DejaVuSans-101"/>
      </g>
     </g>
    </g>
    <g id="ytick_18">
     <g id="line2d_25">
      <g>
       <use style="stroke:#000000;stroke-width:0.8;" x="140.826563" xlink:href="#mbf9c5750a8" y="155.374125"/>
      </g>
     </g>
     <g id="text_26">
      <!-- it is a -->
      <g transform="translate(106.65625 159.173344)scale(0.1 -0.1)">
       <use xlink:href="#DejaVuSans-105"/>
       <use x="27.783203" xlink:href="#DejaVuSans-116"/>
       <use x="66.992188" xlink:href="#DejaVuSans-32"/>
       <use x="98.779297" xlink:href="#DejaVuSans-105"/>
       <use x="126.5625" xlink:href="#DejaVuSans-115"/>
       <use x="178.662109" xlink:href="#DejaVuSans-32"/>
       <use x="210.449219" xlink:href="#DejaVuSans-97"/>
      </g>
     </g>
    </g>
    <g id="ytick_19">
     <g id="line2d_26">
      <g>
       <use style="stroke:#000000;stroke-width:0.8;" x="140.826563" xlink:href="#mbf9c5750a8" y="148.422401"/>
      </g>
     </g>
     <g id="text_27">
      <!-- is one of -->
      <g transform="translate(91.234375 152.22162)scale(0.1 -0.1)">
       <use xlink:href="#DejaVuSans-105"/>
       <use x="27.783203" xlink:href="#DejaVuSans-115"/>
       <use x="79.882812" xlink:href="#DejaVuSans-32"/>
       <use x="111.669922" xlink:href="#DejaVuSans-111"/>
       <use x="172.851562" xlink:href="#DejaVuSans-110"/>
       <use x="236.230469" xlink:href="#DejaVuSans-101"/>
       <use x="297.753906" xlink:href="#DejaVuSans-32"/>
       <use x="329.541016" xlink:href="#DejaVuSans-111"/>
       <use x="390.722656" xlink:href="#DejaVuSans-102"/>
      </g>
     </g>
    </g>
    <g id="ytick_20">
     <g id="line2d_27">
      <g>
       <use style="stroke:#000000;stroke-width:0.8;" x="140.826563" xlink:href="#mbf9c5750a8" y="141.470677"/>
      </g>
     </g>
     <g id="text_28">
      <!-- in the game -->
      <g transform="translate(73.573438 145.269895)scale(0.1 -0.1)">
       <use xlink:href="#DejaVuSans-105"/>
       <use x="27.783203" xlink:href="#DejaVuSans-110"/>
       <use x="91.162109" xlink:href="#DejaVuSans-32"/>
       <use x="122.949219" xlink:href="#DejaVuSans-116"/>
       <use x="162.158203" xlink:href="#DejaVuSans-104"/>
       <use x="225.537109" xlink:href="#DejaVuSans-101"/>
       <use x="287.060547" xlink:href="#DejaVuSans-32"/>
       <use x="318.847656" xlink:href="#DejaVuSans-103"/>
       <use x="382.324219" xlink:href="#DejaVuSans-97"/>
       <use x="443.603516" xlink:href="#DejaVuSans-109"/>
       <use x="541.015625" xlink:href="#DejaVuSans-101"/>
      </g>
     </g>
    </g>
    <g id="ytick_21">
     <g id="line2d_28">
      <g>
       <use style="stroke:#000000;stroke-width:0.8;" x="140.826563" xlink:href="#mbf9c5750a8" y="134.518953"/>
      </g>
     </g>
     <g id="text_29">
      <!-- is a great -->
      <g transform="translate(86.91875 138.318171)scale(0.1 -0.1)">
       <use xlink:href="#DejaVuSans-105"/>
       <use x="27.783203" xlink:href="#DejaVuSans-115"/>
       <use x="79.882812" xlink:href="#DejaVuSans-32"/>
       <use x="111.669922" xlink:href="#DejaVuSans-97"/>
       <use x="172.949219" xlink:href="#DejaVuSans-32"/>
       <use x="204.736328" xlink:href="#DejaVuSans-103"/>
       <use x="268.212891" xlink:href="#DejaVuSans-114"/>
       <use x="307.076172" xlink:href="#DejaVuSans-101"/>
       <use x="368.599609" xlink:href="#DejaVuSans-97"/>
       <use x="429.878906" xlink:href="#DejaVuSans-116"/>
      </g>
     </g>
    </g>
    <g id="ytick_22">
     <g id="line2d_29">
      <g>
       <use style="stroke:#000000;stroke-width:0.8;" x="140.826563" xlink:href="#mbf9c5750a8" y="127.567228"/>
      </g>
     </g>
     <g id="text_30">
      <!-- a good game -->
      <g transform="translate(68.0375 131.366447)scale(0.1 -0.1)">
       <use xlink:href="#DejaVuSans-97"/>
       <use x="61.279297" xlink:href="#DejaVuSans-32"/>
       <use x="93.066406" xlink:href="#DejaVuSans-103"/>
       <use x="156.542969" xlink:href="#DejaVuSans-111"/>
       <use x="217.724609" xlink:href="#DejaVuSans-111"/>
       <use x="278.90625" xlink:href="#DejaVuSans-100"/>
       <use x="342.382812" xlink:href="#DejaVuSans-32"/>
       <use x="374.169922" xlink:href="#DejaVuSans-103"/>
       <use x="437.646484" xlink:href="#DejaVuSans-97"/>
       <use x="498.925781" xlink:href="#DejaVuSans-109"/>
       <use x="596.337891" xlink:href="#DejaVuSans-101"/>
      </g>
     </g>
    </g>
    <g id="ytick_23">
     <g id="line2d_30">
      <g>
       <use style="stroke:#000000;stroke-width:0.8;" x="140.826563" xlink:href="#mbf9c5750a8" y="120.615504"/>
      </g>
     </g>
     <g id="text_31">
      <!-- this is the -->
      <g transform="translate(84.826563 124.414723)scale(0.1 -0.1)">
       <use xlink:href="#DejaVuSans-116"/>
       <use x="39.208984" xlink:href="#DejaVuSans-104"/>
       <use x="102.587891" xlink:href="#DejaVuSans-105"/>
       <use x="130.371094" xlink:href="#DejaVuSans-115"/>
       <use x="182.470703" xlink:href="#DejaVuSans-32"/>
       <use x="214.257812" xlink:href="#DejaVuSans-105"/>
       <use x="242.041016" xlink:href="#DejaVuSans-115"/>
       <use x="294.140625" xlink:href="#DejaVuSans-32"/>
       <use x="325.927734" xlink:href="#DejaVuSans-116"/>
       <use x="365.136719" xlink:href="#DejaVuSans-104"/>
       <use x="428.515625" xlink:href="#DejaVuSans-101"/>
      </g>
     </g>
    </g>
    <g id="ytick_24">
     <g id="line2d_31">
      <g>
       <use style="stroke:#000000;stroke-width:0.8;" x="140.826563" xlink:href="#mbf9c5750a8" y="113.66378"/>
      </g>
     </g>
     <g id="text_32">
      <!-- this game and -->
      <g transform="translate(62.040625 117.462999)scale(0.1 -0.1)">
       <use xlink:href="#DejaVuSans-116"/>
       <use x="39.208984" xlink:href="#DejaVuSans-104"/>
       <use x="102.587891" xlink:href="#DejaVuSans-105"/>
       <use x="130.371094" xlink:href="#DejaVuSans-115"/>
       <use x="182.470703" xlink:href="#DejaVuSans-32"/>
       <use x="214.257812" xlink:href="#DejaVuSans-103"/>
       <use x="277.734375" xlink:href="#DejaVuSans-97"/>
       <use x="339.013672" xlink:href="#DejaVuSans-109"/>
       <use x="436.425781" xlink:href="#DejaVuSans-101"/>
       <use x="497.949219" xlink:href="#DejaVuSans-32"/>
       <use x="529.736328" xlink:href="#DejaVuSans-97"/>
       <use x="591.015625" xlink:href="#DejaVuSans-110"/>
       <use x="654.394531" xlink:href="#DejaVuSans-100"/>
      </g>
     </g>
    </g>
    <g id="ytick_25">
     <g id="line2d_32">
      <g>
       <use style="stroke:#000000;stroke-width:0.8;" x="140.826563" xlink:href="#mbf9c5750a8" y="106.712056"/>
      </g>
     </g>
     <g id="text_33">
      <!-- to play with -->
      <defs>
       <path d="M 18.109375 8.203125 
L 18.109375 -20.796875 
L 9.078125 -20.796875 
L 9.078125 54.6875 
L 18.109375 54.6875 
L 18.109375 46.390625 
Q 20.953125 51.265625 25.265625 53.625 
Q 29.59375 56 35.59375 56 
Q 45.5625 56 51.78125 48.09375 
Q 58.015625 40.1875 58.015625 27.296875 
Q 58.015625 14.40625 51.78125 6.484375 
Q 45.5625 -1.421875 35.59375 -1.421875 
Q 29.59375 -1.421875 25.265625 0.953125 
Q 20.953125 3.328125 18.109375 8.203125 
z
M 48.6875 27.296875 
Q 48.6875 37.203125 44.609375 42.84375 
Q 40.53125 48.484375 33.40625 48.484375 
Q 26.265625 48.484375 22.1875 42.84375 
Q 18.109375 37.203125 18.109375 27.296875 
Q 18.109375 17.390625 22.1875 11.75 
Q 26.265625 6.109375 33.40625 6.109375 
Q 40.53125 6.109375 44.609375 11.75 
Q 48.6875 17.390625 48.6875 27.296875 
z
" id="DejaVuSans-112"/>
       <path d="M 4.203125 54.6875 
L 13.1875 54.6875 
L 24.421875 12.015625 
L 35.59375 54.6875 
L 46.1875 54.6875 
L 57.421875 12.015625 
L 68.609375 54.6875 
L 77.59375 54.6875 
L 63.28125 0 
L 52.6875 0 
L 40.921875 44.828125 
L 29.109375 0 
L 18.5 0 
z
" id="DejaVuSans-119"/>
      </defs>
      <g transform="translate(75.04375 110.511275)scale(0.1 -0.1)">
       <use xlink:href="#DejaVuSans-116"/>
       <use x="39.208984" xlink:href="#DejaVuSans-111"/>
       <use x="100.390625" xlink:href="#DejaVuSans-32"/>
       <use x="132.177734" xlink:href="#DejaVuSans-112"/>
       <use x="195.654297" xlink:href="#DejaVuSans-108"/>
       <use x="223.4375" xlink:href="#DejaVuSans-97"/>
       <use x="284.716797" xlink:href="#DejaVuSans-121"/>
       <use x="343.896484" xlink:href="#DejaVuSans-32"/>
       <use x="375.683594" xlink:href="#DejaVuSans-119"/>
       <use x="457.470703" xlink:href="#DejaVuSans-105"/>
       <use x="485.253906" xlink:href="#DejaVuSans-116"/>
       <use x="524.462891" xlink:href="#DejaVuSans-104"/>
      </g>
     </g>
    </g>
    <g id="ytick_26">
     <g id="line2d_33">
      <g>
       <use style="stroke:#000000;stroke-width:0.8;" x="140.826563" xlink:href="#mbf9c5750a8" y="99.760332"/>
      </g>
     </g>
     <g id="text_34">
      <!-- you want to -->
      <g transform="translate(74.492188 103.559551)scale(0.1 -0.1)">
       <use xlink:href="#DejaVuSans-121"/>
       <use x="59.179688" xlink:href="#DejaVuSans-111"/>
       <use x="120.361328" xlink:href="#DejaVuSans-117"/>
       <use x="183.740234" xlink:href="#DejaVuSans-32"/>
       <use x="215.527344" xlink:href="#DejaVuSans-119"/>
       <use x="297.314453" xlink:href="#DejaVuSans-97"/>
       <use x="358.59375" xlink:href="#DejaVuSans-110"/>
       <use x="421.972656" xlink:href="#DejaVuSans-116"/>
       <use x="461.181641" xlink:href="#DejaVuSans-32"/>
       <use x="492.96875" xlink:href="#DejaVuSans-116"/>
       <use x="532.177734" xlink:href="#DejaVuSans-111"/>
      </g>
     </g>
    </g>
    <g id="ytick_27">
     <g id="line2d_34">
      <g>
       <use style="stroke:#000000;stroke-width:0.8;" x="140.826563" xlink:href="#mbf9c5750a8" y="92.808608"/>
      </g>
     </g>
     <g id="text_35">
      <!-- this game has -->
      <g transform="translate(63.179688 96.607827)scale(0.1 -0.1)">
       <use xlink:href="#DejaVuSans-116"/>
       <use x="39.208984" xlink:href="#DejaVuSans-104"/>
       <use x="102.587891" xlink:href="#DejaVuSans-105"/>
       <use x="130.371094" xlink:href="#DejaVuSans-115"/>
       <use x="182.470703" xlink:href="#DejaVuSans-32"/>
       <use x="214.257812" xlink:href="#DejaVuSans-103"/>
       <use x="277.734375" xlink:href="#DejaVuSans-97"/>
       <use x="339.013672" xlink:href="#DejaVuSans-109"/>
       <use x="436.425781" xlink:href="#DejaVuSans-101"/>
       <use x="497.949219" xlink:href="#DejaVuSans-32"/>
       <use x="529.736328" xlink:href="#DejaVuSans-104"/>
       <use x="593.115234" xlink:href="#DejaVuSans-97"/>
       <use x="654.394531" xlink:href="#DejaVuSans-115"/>
      </g>
     </g>
    </g>
    <g id="ytick_28">
     <g id="line2d_35">
      <g>
       <use style="stroke:#000000;stroke-width:0.8;" x="140.826563" xlink:href="#mbf9c5750a8" y="85.856884"/>
      </g>
     </g>
     <g id="text_36">
      <!-- i have ever -->
      <g transform="translate(77.81875 89.656102)scale(0.1 -0.1)">
       <use xlink:href="#DejaVuSans-105"/>
       <use x="27.783203" xlink:href="#DejaVuSans-32"/>
       <use x="59.570312" xlink:href="#DejaVuSans-104"/>
       <use x="122.949219" xlink:href="#DejaVuSans-97"/>
       <use x="184.228516" xlink:href="#DejaVuSans-118"/>
       <use x="243.408203" xlink:href="#DejaVuSans-101"/>
       <use x="304.931641" xlink:href="#DejaVuSans-32"/>
       <use x="336.71875" xlink:href="#DejaVuSans-101"/>
       <use x="398.242188" xlink:href="#DejaVuSans-118"/>
       <use x="457.421875" xlink:href="#DejaVuSans-101"/>
       <use x="518.945312" xlink:href="#DejaVuSans-114"/>
      </g>
     </g>
    </g>
    <g id="ytick_29">
     <g id="line2d_36">
      <g>
       <use style="stroke:#000000;stroke-width:0.8;" x="140.826563" xlink:href="#mbf9c5750a8" y="78.905159"/>
      </g>
     </g>
     <g id="text_37">
      <!-- if you want -->
      <g transform="translate(78.232813 82.704378)scale(0.1 -0.1)">
       <use xlink:href="#DejaVuSans-105"/>
       <use x="27.783203" xlink:href="#DejaVuSans-102"/>
       <use x="62.988281" xlink:href="#DejaVuSans-32"/>
       <use x="94.775391" xlink:href="#DejaVuSans-121"/>
       <use x="153.955078" xlink:href="#DejaVuSans-111"/>
       <use x="215.136719" xlink:href="#DejaVuSans-117"/>
       <use x="278.515625" xlink:href="#DejaVuSans-32"/>
       <use x="310.302734" xlink:href="#DejaVuSans-119"/>
       <use x="392.089844" xlink:href="#DejaVuSans-97"/>
       <use x="453.369141" xlink:href="#DejaVuSans-110"/>
       <use x="516.748047" xlink:href="#DejaVuSans-116"/>
      </g>
     </g>
    </g>
    <g id="ytick_30">
     <g id="line2d_37">
      <g>
       <use style="stroke:#000000;stroke-width:0.8;" x="140.826563" xlink:href="#mbf9c5750a8" y="71.953435"/>
      </g>
     </g>
     <g id="text_38">
      <!-- if you like -->
      <defs>
       <path d="M 9.078125 75.984375 
L 18.109375 75.984375 
L 18.109375 31.109375 
L 44.921875 54.6875 
L 56.390625 54.6875 
L 27.390625 29.109375 
L 57.625 0 
L 45.90625 0 
L 18.109375 26.703125 
L 18.109375 0 
L 9.078125 0 
z
" id="DejaVuSans-107"/>
      </defs>
      <g transform="translate(85.659375 75.752654)scale(0.1 -0.1)">
       <use xlink:href="#DejaVuSans-105"/>
       <use x="27.783203" xlink:href="#DejaVuSans-102"/>
       <use x="62.988281" xlink:href="#DejaVuSans-32"/>
       <use x="94.775391" xlink:href="#DejaVuSans-121"/>
       <use x="153.955078" xlink:href="#DejaVuSans-111"/>
       <use x="215.136719" xlink:href="#DejaVuSans-117"/>
       <use x="278.515625" xlink:href="#DejaVuSans-32"/>
       <use x="310.302734" xlink:href="#DejaVuSans-108"/>
       <use x="338.085938" xlink:href="#DejaVuSans-105"/>
       <use x="365.869141" xlink:href="#DejaVuSans-107"/>
       <use x="420.154297" xlink:href="#DejaVuSans-101"/>
      </g>
     </g>
    </g>
    <g id="ytick_31">
     <g id="line2d_38">
      <g>
       <use style="stroke:#000000;stroke-width:0.8;" x="140.826563" xlink:href="#mbf9c5750a8" y="65.001711"/>
      </g>
     </g>
     <g id="text_39">
      <!-- if you are -->
      <g transform="translate(86.629688 68.80093)scale(0.1 -0.1)">
       <use xlink:href="#DejaVuSans-105"/>
       <use x="27.783203" xlink:href="#DejaVuSans-102"/>
       <use x="62.988281" xlink:href="#DejaVuSans-32"/>
       <use x="94.775391" xlink:href="#DejaVuSans-121"/>
       <use x="153.955078" xlink:href="#DejaVuSans-111"/>
       <use x="215.136719" xlink:href="#DejaVuSans-117"/>
       <use x="278.515625" xlink:href="#DejaVuSans-32"/>
       <use x="310.302734" xlink:href="#DejaVuSans-97"/>
       <use x="371.582031" xlink:href="#DejaVuSans-114"/>
       <use x="410.445312" xlink:href="#DejaVuSans-101"/>
      </g>
     </g>
    </g>
    <g id="ytick_32">
     <g id="line2d_39">
      <g>
       <use style="stroke:#000000;stroke-width:0.8;" x="140.826563" xlink:href="#mbf9c5750a8" y="58.049987"/>
      </g>
     </g>
     <g id="text_40">
      <!-- this game to -->
      <g transform="translate(70.815625 61.849206)scale(0.1 -0.1)">
       <use xlink:href="#DejaVuSans-116"/>
       <use x="39.208984" xlink:href="#DejaVuSans-104"/>
       <use x="102.587891" xlink:href="#DejaVuSans-105"/>
       <use x="130.371094" xlink:href="#DejaVuSans-115"/>
       <use x="182.470703" xlink:href="#DejaVuSans-32"/>
       <use x="214.257812" xlink:href="#DejaVuSans-103"/>
       <use x="277.734375" xlink:href="#DejaVuSans-97"/>
       <use x="339.013672" xlink:href="#DejaVuSans-109"/>
       <use x="436.425781" xlink:href="#DejaVuSans-101"/>
       <use x="497.949219" xlink:href="#DejaVuSans-32"/>
       <use x="529.736328" xlink:href="#DejaVuSans-116"/>
       <use x="568.945312" xlink:href="#DejaVuSans-111"/>
      </g>
     </g>
    </g>
    <g id="ytick_33">
     <g id="line2d_40">
      <g>
       <use style="stroke:#000000;stroke-width:0.8;" x="140.826563" xlink:href="#mbf9c5750a8" y="51.098263"/>
      </g>
     </g>
     <g id="text_41">
      <!-- game is a -->
      <g transform="translate(84.984375 54.897482)scale(0.1 -0.1)">
       <use xlink:href="#DejaVuSans-103"/>
       <use x="63.476562" xlink:href="#DejaVuSans-97"/>
       <use x="124.755859" xlink:href="#DejaVuSans-109"/>
       <use x="222.167969" xlink:href="#DejaVuSans-101"/>
       <use x="283.691406" xlink:href="#DejaVuSans-32"/>
       <use x="315.478516" xlink:href="#DejaVuSans-105"/>
       <use x="343.261719" xlink:href="#DejaVuSans-115"/>
       <use x="395.361328" xlink:href="#DejaVuSans-32"/>
       <use x="427.148438" xlink:href="#DejaVuSans-97"/>
      </g>
     </g>
    </g>
    <g id="ytick_34">
     <g id="line2d_41">
      <g>
       <use style="stroke:#000000;stroke-width:0.8;" x="140.826563" xlink:href="#mbf9c5750a8" y="44.146539"/>
      </g>
     </g>
     <g id="text_42">
      <!-- of this game -->
      <g transform="translate(71.215625 47.945758)scale(0.1 -0.1)">
       <use xlink:href="#DejaVuSans-111"/>
       <use x="61.181641" xlink:href="#DejaVuSans-102"/>
       <use x="96.386719" xlink:href="#DejaVuSans-32"/>
       <use x="128.173828" xlink:href="#DejaVuSans-116"/>
       <use x="167.382812" xlink:href="#DejaVuSans-104"/>
       <use x="230.761719" xlink:href="#DejaVuSans-105"/>
       <use x="258.544922" xlink:href="#DejaVuSans-115"/>
       <use x="310.644531" xlink:href="#DejaVuSans-32"/>
       <use x="342.431641" xlink:href="#DejaVuSans-103"/>
       <use x="405.908203" xlink:href="#DejaVuSans-97"/>
       <use x="467.1875" xlink:href="#DejaVuSans-109"/>
       <use x="564.599609" xlink:href="#DejaVuSans-101"/>
      </g>
     </g>
    </g>
    <g id="ytick_35">
     <g id="line2d_42">
      <g>
       <use style="stroke:#000000;stroke-width:0.8;" x="140.826563" xlink:href="#mbf9c5750a8" y="37.194815"/>
      </g>
     </g>
     <g id="text_43">
      <!-- if you have -->
      <g transform="translate(78.259375 40.994033)scale(0.1 -0.1)">
       <use xlink:href="#DejaVuSans-105"/>
       <use x="27.783203" xlink:href="#DejaVuSans-102"/>
       <use x="62.988281" xlink:href="#DejaVuSans-32"/>
       <use x="94.775391" xlink:href="#DejaVuSans-121"/>
       <use x="153.955078" xlink:href="#DejaVuSans-111"/>
       <use x="215.136719" xlink:href="#DejaVuSans-117"/>
       <use x="278.515625" xlink:href="#DejaVuSans-32"/>
       <use x="310.302734" xlink:href="#DejaVuSans-104"/>
       <use x="373.681641" xlink:href="#DejaVuSans-97"/>
       <use x="434.960938" xlink:href="#DejaVuSans-118"/>
       <use x="494.140625" xlink:href="#DejaVuSans-101"/>
      </g>
     </g>
    </g>
    <g id="text_44">
     <!-- Grams -->
     <defs>
      <path d="M 59.515625 10.40625 
L 59.515625 29.984375 
L 43.40625 29.984375 
L 43.40625 38.09375 
L 69.28125 38.09375 
L 69.28125 6.78125 
Q 63.578125 2.734375 56.6875 0.65625 
Q 49.8125 -1.421875 42 -1.421875 
Q 24.90625 -1.421875 15.25 8.5625 
Q 5.609375 18.5625 5.609375 36.375 
Q 5.609375 54.25 15.25 64.234375 
Q 24.90625 74.21875 42 74.21875 
Q 49.125 74.21875 55.546875 72.453125 
Q 61.96875 70.703125 67.390625 67.28125 
L 67.390625 56.78125 
Q 61.921875 61.421875 55.765625 63.765625 
Q 49.609375 66.109375 42.828125 66.109375 
Q 29.4375 66.109375 22.71875 58.640625 
Q 16.015625 51.171875 16.015625 36.375 
Q 16.015625 21.625 22.71875 14.15625 
Q 29.4375 6.6875 42.828125 6.6875 
Q 48.046875 6.6875 52.140625 7.59375 
Q 56.25 8.5 59.515625 10.40625 
z
" id="DejaVuSans-71"/>
     </defs>
     <g transform="translate(14.798438 171.842875)rotate(-90)scale(0.1 -0.1)">
      <use xlink:href="#DejaVuSans-71"/>
      <use x="77.490234" xlink:href="#DejaVuSans-114"/>
      <use x="118.603516" xlink:href="#DejaVuSans-97"/>
      <use x="179.882812" xlink:href="#DejaVuSans-109"/>
      <use x="277.294922" xlink:href="#DejaVuSans-115"/>
     </g>
    </g>
   </g>
   <g id="patch_38">
    <path d="M 140.826563 288.430125 
L 140.826563 22.318125 
" style="fill:none;stroke:#000000;stroke-linecap:square;stroke-linejoin:miter;stroke-width:0.8;"/>
   </g>
   <g id="patch_39">
    <path d="M 497.946563 288.430125 
L 497.946563 22.318125 
" style="fill:none;stroke:#000000;stroke-linecap:square;stroke-linejoin:miter;stroke-width:0.8;"/>
   </g>
   <g id="patch_40">
    <path d="M 140.826563 288.430125 
L 497.946563 288.430125 
" style="fill:none;stroke:#000000;stroke-linecap:square;stroke-linejoin:miter;stroke-width:0.8;"/>
   </g>
   <g id="patch_41">
    <path d="M 140.826563 22.318125 
L 497.946563 22.318125 
" style="fill:none;stroke:#000000;stroke-linecap:square;stroke-linejoin:miter;stroke-width:0.8;"/>
   </g>
   <g id="text_45">
    <!--  5784 -->
    <defs>
     <path d="M 8.203125 72.90625 
L 55.078125 72.90625 
L 55.078125 68.703125 
L 28.609375 0 
L 18.3125 0 
L 43.21875 64.59375 
L 8.203125 64.59375 
z
" id="DejaVuSans-55"/>
     <path d="M 31.78125 34.625 
Q 24.75 34.625 20.71875 30.859375 
Q 16.703125 27.09375 16.703125 20.515625 
Q 16.703125 13.921875 20.71875 10.15625 
Q 24.75 6.390625 31.78125 6.390625 
Q 38.8125 6.390625 42.859375 10.171875 
Q 46.921875 13.96875 46.921875 20.515625 
Q 46.921875 27.09375 42.890625 30.859375 
Q 38.875 34.625 31.78125 34.625 
z
M 21.921875 38.8125 
Q 15.578125 40.375 12.03125 44.71875 
Q 8.5 49.078125 8.5 55.328125 
Q 8.5 64.0625 14.71875 69.140625 
Q 20.953125 74.21875 31.78125 74.21875 
Q 42.671875 74.21875 48.875 69.140625 
Q 55.078125 64.0625 55.078125 55.328125 
Q 55.078125 49.078125 51.53125 44.71875 
Q 48 40.375 41.703125 38.8125 
Q 48.828125 37.15625 52.796875 32.3125 
Q 56.78125 27.484375 56.78125 20.515625 
Q 56.78125 9.90625 50.3125 4.234375 
Q 43.84375 -1.421875 31.78125 -1.421875 
Q 19.734375 -1.421875 13.25 4.234375 
Q 6.78125 9.90625 6.78125 20.515625 
Q 6.78125 27.484375 10.78125 32.3125 
Q 14.796875 37.15625 21.921875 38.8125 
z
M 18.3125 54.390625 
Q 18.3125 48.734375 21.84375 45.5625 
Q 25.390625 42.390625 31.78125 42.390625 
Q 38.140625 42.390625 41.71875 45.5625 
Q 45.3125 48.734375 45.3125 54.390625 
Q 45.3125 60.0625 41.71875 63.234375 
Q 38.140625 66.40625 31.78125 66.40625 
Q 25.390625 66.40625 21.84375 63.234375 
Q 18.3125 60.0625 18.3125 54.390625 
z
" id="DejaVuSans-56"/>
    </defs>
    <g style="fill:#0000ff;" transform="translate(480.940848 276.31281)scale(0.1 -0.1)">
     <use xlink:href="#DejaVuSans-32"/>
     <use x="31.787109" xlink:href="#DejaVuSans-53"/>
     <use x="95.410156" xlink:href="#DejaVuSans-55"/>
     <use x="159.033203" xlink:href="#DejaVuSans-56"/>
     <use x="222.65625" xlink:href="#DejaVuSans-52"/>
    </g>
   </g>
   <g id="text_46">
    <!--  2684 -->
    <g style="fill:#0000ff;" transform="translate(298.652763 269.361086)scale(0.1 -0.1)">
     <use xlink:href="#DejaVuSans-32"/>
     <use x="31.787109" xlink:href="#DejaVuSans-50"/>
     <use x="95.410156" xlink:href="#DejaVuSans-54"/>
     <use x="159.033203" xlink:href="#DejaVuSans-56"/>
     <use x="222.65625" xlink:href="#DejaVuSans-52"/>
    </g>
   </g>
   <g id="text_47">
    <!--  2279 -->
    <defs>
     <path d="M 10.984375 1.515625 
L 10.984375 10.5 
Q 14.703125 8.734375 18.5 7.8125 
Q 22.3125 6.890625 25.984375 6.890625 
Q 35.75 6.890625 40.890625 13.453125 
Q 46.046875 20.015625 46.78125 33.40625 
Q 43.953125 29.203125 39.59375 26.953125 
Q 35.25 24.703125 29.984375 24.703125 
Q 19.046875 24.703125 12.671875 31.3125 
Q 6.296875 37.9375 6.296875 49.421875 
Q 6.296875 60.640625 12.9375 67.421875 
Q 19.578125 74.21875 30.609375 74.21875 
Q 43.265625 74.21875 49.921875 64.515625 
Q 56.59375 54.828125 56.59375 36.375 
Q 56.59375 19.140625 48.40625 8.859375 
Q 40.234375 -1.421875 26.421875 -1.421875 
Q 22.703125 -1.421875 18.890625 -0.6875 
Q 15.09375 0.046875 10.984375 1.515625 
z
M 30.609375 32.421875 
Q 37.25 32.421875 41.125 36.953125 
Q 45.015625 41.5 45.015625 49.421875 
Q 45.015625 57.28125 41.125 61.84375 
Q 37.25 66.40625 30.609375 66.40625 
Q 23.96875 66.40625 20.09375 61.84375 
Q 16.21875 57.28125 16.21875 49.421875 
Q 16.21875 41.5 20.09375 36.953125 
Q 23.96875 32.421875 30.609375 32.421875 
z
" id="DejaVuSans-57"/>
    </defs>
    <g style="fill:#0000ff;" transform="translate(274.837707 262.409362)scale(0.1 -0.1)">
     <use xlink:href="#DejaVuSans-32"/>
     <use x="31.787109" xlink:href="#DejaVuSans-50"/>
     <use x="95.410156" xlink:href="#DejaVuSans-50"/>
     <use x="159.033203" xlink:href="#DejaVuSans-55"/>
     <use x="222.65625" xlink:href="#DejaVuSans-57"/>
    </g>
   </g>
   <g id="text_48">
    <!--  1998 -->
    <g style="fill:#0000ff;" transform="translate(258.314174 255.457638)scale(0.1 -0.1)">
     <use xlink:href="#DejaVuSans-32"/>
     <use x="31.787109" xlink:href="#DejaVuSans-49"/>
     <use x="95.410156" xlink:href="#DejaVuSans-57"/>
     <use x="159.033203" xlink:href="#DejaVuSans-57"/>
     <use x="222.65625" xlink:href="#DejaVuSans-56"/>
    </g>
   </g>
   <g id="text_49">
    <!--  1598 -->
    <g style="fill:#0000ff;" transform="translate(234.79313 248.505914)scale(0.1 -0.1)">
     <use xlink:href="#DejaVuSans-32"/>
     <use x="31.787109" xlink:href="#DejaVuSans-49"/>
     <use x="95.410156" xlink:href="#DejaVuSans-53"/>
     <use x="159.033203" xlink:href="#DejaVuSans-57"/>
     <use x="222.65625" xlink:href="#DejaVuSans-56"/>
    </g>
   </g>
   <g id="text_50">
    <!--  1521 -->
    <g style="fill:#0000ff;" transform="translate(230.26533 241.55419)scale(0.1 -0.1)">
     <use xlink:href="#DejaVuSans-32"/>
     <use x="31.787109" xlink:href="#DejaVuSans-49"/>
     <use x="95.410156" xlink:href="#DejaVuSans-53"/>
     <use x="159.033203" xlink:href="#DejaVuSans-50"/>
     <use x="222.65625" xlink:href="#DejaVuSans-49"/>
    </g>
   </g>
   <g id="text_51">
    <!--  1385 -->
    <g style="fill:#0000ff;" transform="translate(222.268175 234.602466)scale(0.1 -0.1)">
     <use xlink:href="#DejaVuSans-32"/>
     <use x="31.787109" xlink:href="#DejaVuSans-49"/>
     <use x="95.410156" xlink:href="#DejaVuSans-51"/>
     <use x="159.033203" xlink:href="#DejaVuSans-56"/>
     <use x="222.65625" xlink:href="#DejaVuSans-53"/>
    </g>
   </g>
   <g id="text_52">
    <!--  1366 -->
    <g style="fill:#0000ff;" transform="translate(221.150925 227.650741)scale(0.1 -0.1)">
     <use xlink:href="#DejaVuSans-32"/>
     <use x="31.787109" xlink:href="#DejaVuSans-49"/>
     <use x="95.410156" xlink:href="#DejaVuSans-51"/>
     <use x="159.033203" xlink:href="#DejaVuSans-54"/>
     <use x="222.65625" xlink:href="#DejaVuSans-54"/>
    </g>
   </g>
   <g id="text_53">
    <!--  1221 -->
    <g style="fill:#0000ff;" transform="translate(212.624547 220.699017)scale(0.1 -0.1)">
     <use xlink:href="#DejaVuSans-32"/>
     <use x="31.787109" xlink:href="#DejaVuSans-49"/>
     <use x="95.410156" xlink:href="#DejaVuSans-50"/>
     <use x="159.033203" xlink:href="#DejaVuSans-50"/>
     <use x="222.65625" xlink:href="#DejaVuSans-49"/>
    </g>
   </g>
   <g id="text_54">
    <!--  1141 -->
    <g style="fill:#0000ff;" transform="translate(207.920338 213.747293)scale(0.1 -0.1)">
     <use xlink:href="#DejaVuSans-32"/>
     <use x="31.787109" xlink:href="#DejaVuSans-49"/>
     <use x="95.410156" xlink:href="#DejaVuSans-49"/>
     <use x="159.033203" xlink:href="#DejaVuSans-52"/>
     <use x="222.65625" xlink:href="#DejaVuSans-49"/>
    </g>
   </g>
   <g id="text_55">
    <!--  1107 -->
    <g style="fill:#0000ff;" transform="translate(205.92105 206.795569)scale(0.1 -0.1)">
     <use xlink:href="#DejaVuSans-32"/>
     <use x="31.787109" xlink:href="#DejaVuSans-49"/>
     <use x="95.410156" xlink:href="#DejaVuSans-49"/>
     <use x="159.033203" xlink:href="#DejaVuSans-48"/>
     <use x="222.65625" xlink:href="#DejaVuSans-55"/>
    </g>
   </g>
   <g id="text_56">
    <!--  936 -->
    <g style="fill:#0000ff;" transform="translate(195.865804 199.843845)scale(0.1 -0.1)">
     <use xlink:href="#DejaVuSans-32"/>
     <use x="31.787109" xlink:href="#DejaVuSans-57"/>
     <use x="95.410156" xlink:href="#DejaVuSans-51"/>
     <use x="159.033203" xlink:href="#DejaVuSans-54"/>
    </g>
   </g>
   <g id="text_57">
    <!--  924 -->
    <g style="fill:#0000ff;" transform="translate(195.160172 192.892121)scale(0.1 -0.1)">
     <use xlink:href="#DejaVuSans-32"/>
     <use x="31.787109" xlink:href="#DejaVuSans-57"/>
     <use x="95.410156" xlink:href="#DejaVuSans-50"/>
     <use x="159.033203" xlink:href="#DejaVuSans-52"/>
    </g>
   </g>
   <g id="text_58">
    <!--  826 -->
    <g style="fill:#0000ff;" transform="translate(189.397517 185.940397)scale(0.1 -0.1)">
     <use xlink:href="#DejaVuSans-32"/>
     <use x="31.787109" xlink:href="#DejaVuSans-56"/>
     <use x="95.410156" xlink:href="#DejaVuSans-50"/>
     <use x="159.033203" xlink:href="#DejaVuSans-54"/>
    </g>
   </g>
   <g id="text_59">
    <!--  816 -->
    <g style="fill:#0000ff;" transform="translate(188.809491 178.988672)scale(0.1 -0.1)">
     <use xlink:href="#DejaVuSans-32"/>
     <use x="31.787109" xlink:href="#DejaVuSans-56"/>
     <use x="95.410156" xlink:href="#DejaVuSans-49"/>
     <use x="159.033203" xlink:href="#DejaVuSans-54"/>
    </g>
   </g>
   <g id="text_60">
    <!--  781 -->
    <g style="fill:#0000ff;" transform="translate(186.751399 172.036948)scale(0.1 -0.1)">
     <use xlink:href="#DejaVuSans-32"/>
     <use x="31.787109" xlink:href="#DejaVuSans-55"/>
     <use x="95.410156" xlink:href="#DejaVuSans-56"/>
     <use x="159.033203" xlink:href="#DejaVuSans-49"/>
    </g>
   </g>
   <g id="text_61">
    <!--  779 -->
    <g style="fill:#0000ff;" transform="translate(186.633794 165.085224)scale(0.1 -0.1)">
     <use xlink:href="#DejaVuSans-32"/>
     <use x="31.787109" xlink:href="#DejaVuSans-55"/>
     <use x="95.410156" xlink:href="#DejaVuSans-55"/>
     <use x="159.033203" xlink:href="#DejaVuSans-57"/>
    </g>
   </g>
   <g id="text_62">
    <!--  779 -->
    <g style="fill:#0000ff;" transform="translate(186.633794 158.1335)scale(0.1 -0.1)">
     <use xlink:href="#DejaVuSans-32"/>
     <use x="31.787109" xlink:href="#DejaVuSans-55"/>
     <use x="95.410156" xlink:href="#DejaVuSans-55"/>
     <use x="159.033203" xlink:href="#DejaVuSans-57"/>
    </g>
   </g>
   <g id="text_63">
    <!--  777 -->
    <g style="fill:#0000ff;" transform="translate(186.516189 151.181776)scale(0.1 -0.1)">
     <use xlink:href="#DejaVuSans-32"/>
     <use x="31.787109" xlink:href="#DejaVuSans-55"/>
     <use x="95.410156" xlink:href="#DejaVuSans-55"/>
     <use x="159.033203" xlink:href="#DejaVuSans-55"/>
    </g>
   </g>
   <g id="text_64">
    <!--  763 -->
    <g style="fill:#0000ff;" transform="translate(185.692953 144.230052)scale(0.1 -0.1)">
     <use xlink:href="#DejaVuSans-32"/>
     <use x="31.787109" xlink:href="#DejaVuSans-55"/>
     <use x="95.410156" xlink:href="#DejaVuSans-54"/>
     <use x="159.033203" xlink:href="#DejaVuSans-51"/>
    </g>
   </g>
   <g id="text_65">
    <!--  762 -->
    <g style="fill:#0000ff;" transform="translate(185.63415 137.278328)scale(0.1 -0.1)">
     <use xlink:href="#DejaVuSans-32"/>
     <use x="31.787109" xlink:href="#DejaVuSans-55"/>
     <use x="95.410156" xlink:href="#DejaVuSans-54"/>
     <use x="159.033203" xlink:href="#DejaVuSans-50"/>
    </g>
   </g>
   <g id="text_66">
    <!--  737 -->
    <g style="fill:#0000ff;" transform="translate(184.164085 130.326603)scale(0.1 -0.1)">
     <use xlink:href="#DejaVuSans-32"/>
     <use x="31.787109" xlink:href="#DejaVuSans-55"/>
     <use x="95.410156" xlink:href="#DejaVuSans-51"/>
     <use x="159.033203" xlink:href="#DejaVuSans-55"/>
    </g>
   </g>
   <g id="text_67">
    <!--  712 -->
    <g style="fill:#0000ff;" transform="translate(182.69402 123.374879)scale(0.1 -0.1)">
     <use xlink:href="#DejaVuSans-32"/>
     <use x="31.787109" xlink:href="#DejaVuSans-55"/>
     <use x="95.410156" xlink:href="#DejaVuSans-49"/>
     <use x="159.033203" xlink:href="#DejaVuSans-50"/>
    </g>
   </g>
   <g id="text_68">
    <!--  712 -->
    <g style="fill:#0000ff;" transform="translate(182.69402 116.423155)scale(0.1 -0.1)">
     <use xlink:href="#DejaVuSans-32"/>
     <use x="31.787109" xlink:href="#DejaVuSans-55"/>
     <use x="95.410156" xlink:href="#DejaVuSans-49"/>
     <use x="159.033203" xlink:href="#DejaVuSans-50"/>
    </g>
   </g>
   <g id="text_69">
    <!--  705 -->
    <g style="fill:#0000ff;" transform="translate(182.282401 109.471431)scale(0.1 -0.1)">
     <use xlink:href="#DejaVuSans-32"/>
     <use x="31.787109" xlink:href="#DejaVuSans-55"/>
     <use x="95.410156" xlink:href="#DejaVuSans-48"/>
     <use x="159.033203" xlink:href="#DejaVuSans-53"/>
    </g>
   </g>
   <g id="text_70">
    <!--  702 -->
    <g style="fill:#0000ff;" transform="translate(182.105993 102.519707)scale(0.1 -0.1)">
     <use xlink:href="#DejaVuSans-32"/>
     <use x="31.787109" xlink:href="#DejaVuSans-55"/>
     <use x="95.410156" xlink:href="#DejaVuSans-48"/>
     <use x="159.033203" xlink:href="#DejaVuSans-50"/>
    </g>
   </g>
   <g id="text_71">
    <!--  698 -->
    <g style="fill:#0000ff;" transform="translate(181.870783 95.567983)scale(0.1 -0.1)">
     <use xlink:href="#DejaVuSans-32"/>
     <use x="31.787109" xlink:href="#DejaVuSans-54"/>
     <use x="95.410156" xlink:href="#DejaVuSans-57"/>
     <use x="159.033203" xlink:href="#DejaVuSans-56"/>
    </g>
   </g>
   <g id="text_72">
    <!--  673 -->
    <g style="fill:#0000ff;" transform="translate(180.400718 88.616259)scale(0.1 -0.1)">
     <use xlink:href="#DejaVuSans-32"/>
     <use x="31.787109" xlink:href="#DejaVuSans-54"/>
     <use x="95.410156" xlink:href="#DejaVuSans-55"/>
     <use x="159.033203" xlink:href="#DejaVuSans-51"/>
    </g>
   </g>
   <g id="text_73">
    <!--  668 -->
    <g style="fill:#0000ff;" transform="translate(180.106705 81.664534)scale(0.1 -0.1)">
     <use xlink:href="#DejaVuSans-32"/>
     <use x="31.787109" xlink:href="#DejaVuSans-54"/>
     <use x="95.410156" xlink:href="#DejaVuSans-54"/>
     <use x="159.033203" xlink:href="#DejaVuSans-56"/>
    </g>
   </g>
   <g id="text_74">
    <!--  652 -->
    <g style="fill:#0000ff;" transform="translate(179.165863 74.71281)scale(0.1 -0.1)">
     <use xlink:href="#DejaVuSans-32"/>
     <use x="31.787109" xlink:href="#DejaVuSans-54"/>
     <use x="95.410156" xlink:href="#DejaVuSans-53"/>
     <use x="159.033203" xlink:href="#DejaVuSans-50"/>
    </g>
   </g>
   <g id="text_75">
    <!--  646 -->
    <g style="fill:#0000ff;" transform="translate(178.813047 67.761086)scale(0.1 -0.1)">
     <use xlink:href="#DejaVuSans-32"/>
     <use x="31.787109" xlink:href="#DejaVuSans-54"/>
     <use x="95.410156" xlink:href="#DejaVuSans-52"/>
     <use x="159.033203" xlink:href="#DejaVuSans-54"/>
    </g>
   </g>
   <g id="text_76">
    <!--  632 -->
    <g style="fill:#0000ff;" transform="translate(177.989811 60.809362)scale(0.1 -0.1)">
     <use xlink:href="#DejaVuSans-32"/>
     <use x="31.787109" xlink:href="#DejaVuSans-54"/>
     <use x="95.410156" xlink:href="#DejaVuSans-51"/>
     <use x="159.033203" xlink:href="#DejaVuSans-50"/>
    </g>
   </g>
   <g id="text_77">
    <!--  631 -->
    <g style="fill:#0000ff;" transform="translate(177.931008 53.857638)scale(0.1 -0.1)">
     <use xlink:href="#DejaVuSans-32"/>
     <use x="31.787109" xlink:href="#DejaVuSans-54"/>
     <use x="95.410156" xlink:href="#DejaVuSans-51"/>
     <use x="159.033203" xlink:href="#DejaVuSans-49"/>
    </g>
   </g>
   <g id="text_78">
    <!--  605 -->
    <g style="fill:#0000ff;" transform="translate(176.40214 46.905914)scale(0.1 -0.1)">
     <use xlink:href="#DejaVuSans-32"/>
     <use x="31.787109" xlink:href="#DejaVuSans-54"/>
     <use x="95.410156" xlink:href="#DejaVuSans-48"/>
     <use x="159.033203" xlink:href="#DejaVuSans-53"/>
    </g>
   </g>
   <g id="text_79">
    <!--  600 -->
    <g style="fill:#0000ff;" transform="translate(176.108127 39.95419)scale(0.1 -0.1)">
     <use xlink:href="#DejaVuSans-32"/>
     <use x="31.787109" xlink:href="#DejaVuSans-54"/>
     <use x="95.410156" xlink:href="#DejaVuSans-48"/>
     <use x="159.033203" xlink:href="#DejaVuSans-48"/>
    </g>
   </g>
   <g id="text_80">
    <!-- No Punctuation, Keep Stopwords, No Stemming -->
    <defs>
     <path d="M 9.8125 72.90625 
L 23.09375 72.90625 
L 55.421875 11.921875 
L 55.421875 72.90625 
L 64.984375 72.90625 
L 64.984375 0 
L 51.703125 0 
L 19.390625 60.984375 
L 19.390625 0 
L 9.8125 0 
z
" id="DejaVuSans-78"/>
     <path d="M 19.671875 64.796875 
L 19.671875 37.40625 
L 32.078125 37.40625 
Q 38.96875 37.40625 42.71875 40.96875 
Q 46.484375 44.53125 46.484375 51.125 
Q 46.484375 57.671875 42.71875 61.234375 
Q 38.96875 64.796875 32.078125 64.796875 
z
M 9.8125 72.90625 
L 32.078125 72.90625 
Q 44.34375 72.90625 50.609375 67.359375 
Q 56.890625 61.8125 56.890625 51.125 
Q 56.890625 40.328125 50.609375 34.8125 
Q 44.34375 29.296875 32.078125 29.296875 
L 19.671875 29.296875 
L 19.671875 0 
L 9.8125 0 
z
" id="DejaVuSans-80"/>
     <path d="M 11.71875 12.40625 
L 22.015625 12.40625 
L 22.015625 4 
L 14.015625 -11.625 
L 7.71875 -11.625 
L 11.71875 4 
z
" id="DejaVuSans-44"/>
     <path d="M 9.8125 72.90625 
L 19.671875 72.90625 
L 19.671875 42.09375 
L 52.390625 72.90625 
L 65.09375 72.90625 
L 28.90625 38.921875 
L 67.671875 0 
L 54.6875 0 
L 19.671875 35.109375 
L 19.671875 0 
L 9.8125 0 
z
" id="DejaVuSans-75"/>
     <path d="M 53.515625 70.515625 
L 53.515625 60.890625 
Q 47.90625 63.578125 42.921875 64.890625 
Q 37.9375 66.21875 33.296875 66.21875 
Q 25.25 66.21875 20.875 63.09375 
Q 16.5 59.96875 16.5 54.203125 
Q 16.5 49.359375 19.40625 46.890625 
Q 22.3125 44.4375 30.421875 42.921875 
L 36.375 41.703125 
Q 47.40625 39.59375 52.65625 34.296875 
Q 57.90625 29 57.90625 20.125 
Q 57.90625 9.515625 50.796875 4.046875 
Q 43.703125 -1.421875 29.984375 -1.421875 
Q 24.8125 -1.421875 18.96875 -0.25 
Q 13.140625 0.921875 6.890625 3.21875 
L 6.890625 13.375 
Q 12.890625 10.015625 18.65625 8.296875 
Q 24.421875 6.59375 29.984375 6.59375 
Q 38.421875 6.59375 43.015625 9.90625 
Q 47.609375 13.234375 47.609375 19.390625 
Q 47.609375 24.75 44.3125 27.78125 
Q 41.015625 30.8125 33.5 32.328125 
L 27.484375 33.5 
Q 16.453125 35.6875 11.515625 40.375 
Q 6.59375 45.0625 6.59375 53.421875 
Q 6.59375 63.09375 13.40625 68.65625 
Q 20.21875 74.21875 32.171875 74.21875 
Q 37.3125 74.21875 42.625 73.28125 
Q 47.953125 72.359375 53.515625 70.515625 
z
" id="DejaVuSans-83"/>
    </defs>
    <g transform="translate(176.813438 16.318125)scale(0.12 -0.12)">
     <use xlink:href="#DejaVuSans-78"/>
     <use x="74.804688" xlink:href="#DejaVuSans-111"/>
     <use x="135.986328" xlink:href="#DejaVuSans-32"/>
     <use x="167.773438" xlink:href="#DejaVuSans-80"/>
     <use x="226.326172" xlink:href="#DejaVuSans-117"/>
     <use x="289.705078" xlink:href="#DejaVuSans-110"/>
     <use x="353.083984" xlink:href="#DejaVuSans-99"/>
     <use x="408.064453" xlink:href="#DejaVuSans-116"/>
     <use x="447.273438" xlink:href="#DejaVuSans-117"/>
     <use x="510.652344" xlink:href="#DejaVuSans-97"/>
     <use x="571.931641" xlink:href="#DejaVuSans-116"/>
     <use x="611.140625" xlink:href="#DejaVuSans-105"/>
     <use x="638.923828" xlink:href="#DejaVuSans-111"/>
     <use x="700.105469" xlink:href="#DejaVuSans-110"/>
     <use x="763.484375" xlink:href="#DejaVuSans-44"/>
     <use x="795.271484" xlink:href="#DejaVuSans-32"/>
     <use x="827.058594" xlink:href="#DejaVuSans-75"/>
     <use x="887.634766" xlink:href="#DejaVuSans-101"/>
     <use x="949.158203" xlink:href="#DejaVuSans-101"/>
     <use x="1010.681641" xlink:href="#DejaVuSans-112"/>
     <use x="1074.158203" xlink:href="#DejaVuSans-32"/>
     <use x="1105.945312" xlink:href="#DejaVuSans-83"/>
     <use x="1169.421875" xlink:href="#DejaVuSans-116"/>
     <use x="1208.630859" xlink:href="#DejaVuSans-111"/>
     <use x="1269.8125" xlink:href="#DejaVuSans-112"/>
     <use x="1333.289062" xlink:href="#DejaVuSans-119"/>
     <use x="1415.076172" xlink:href="#DejaVuSans-111"/>
     <use x="1476.257812" xlink:href="#DejaVuSans-114"/>
     <use x="1515.621094" xlink:href="#DejaVuSans-100"/>
     <use x="1579.097656" xlink:href="#DejaVuSans-115"/>
     <use x="1631.197266" xlink:href="#DejaVuSans-44"/>
     <use x="1662.984375" xlink:href="#DejaVuSans-32"/>
     <use x="1694.771484" xlink:href="#DejaVuSans-78"/>
     <use x="1769.576172" xlink:href="#DejaVuSans-111"/>
     <use x="1830.757812" xlink:href="#DejaVuSans-32"/>
     <use x="1862.544922" xlink:href="#DejaVuSans-83"/>
     <use x="1926.021484" xlink:href="#DejaVuSans-116"/>
     <use x="1965.230469" xlink:href="#DejaVuSans-101"/>
     <use x="2026.753906" xlink:href="#DejaVuSans-109"/>
     <use x="2124.166016" xlink:href="#DejaVuSans-109"/>
     <use x="2221.578125" xlink:href="#DejaVuSans-105"/>
     <use x="2249.361328" xlink:href="#DejaVuSans-110"/>
     <use x="2312.740234" xlink:href="#DejaVuSans-103"/>
    </g>
   </g>
  </g>
 </g>
 <defs>
  <clipPath id="padb67ffed7">
   <rect height="266.112" width="357.12" x="140.826563" y="22.318125"/>
  </clipPath>
 </defs>
</svg>
