<?xml version="1.0" encoding="utf-8" standalone="no"?>
<!DOCTYPE svg PUBLIC "-//W3C//DTD SVG 1.1//EN"
  "http://www.w3.org/Graphics/SVG/1.1/DTD/svg11.dtd">
<!-- Created with matplotlib (https://matplotlib.org/) -->
<svg height="325.986375pt" version="1.1" viewBox="0 0 502.361161 325.986375" width="502.361161pt" xmlns="http://www.w3.org/2000/svg" xmlns:xlink="http://www.w3.org/1999/xlink">
 <defs>
  <style type="text/css">
*{stroke-linecap:butt;stroke-linejoin:round;}
  </style>
 </defs>
 <g id="figure_1">
  <g id="patch_1">
   <path d="M 0 325.986375 
L 502.361161 325.986375 
L 502.361161 0 
L 0 0 
z
" style="fill:#ffffff;"/>
  </g>
  <g id="axes_1">
   <g id="patch_2">
    <path d="M 126.41875 288.430125 
L 483.53875 288.430125 
L 483.53875 22.318125 
L 126.41875 22.318125 
z
" style="fill:#ffffff;"/>
   </g>
   <g id="patch_3">
    <path clip-path="url(#p550854a4dd)" d="M 126.41875 276.334125 
L 466.533036 276.334125 
L 466.533036 270.772746 
L 126.41875 270.772746 
z
" style="fill:#008000;"/>
   </g>
   <g id="patch_4">
    <path clip-path="url(#p550854a4dd)" d="M 126.41875 269.382401 
L 384.176342 269.382401 
L 384.176342 263.821022 
L 126.41875 263.821022 
z
" style="fill:#008000;"/>
   </g>
   <g id="patch_5">
    <path clip-path="url(#p550854a4dd)" d="M 126.41875 262.430677 
L 293.856405 262.430677 
L 293.856405 256.869297 
L 126.41875 256.869297 
z
" style="fill:#008000;"/>
   </g>
   <g id="patch_6">
    <path clip-path="url(#p550854a4dd)" d="M 126.41875 255.478953 
L 222.920678 255.478953 
L 222.920678 249.917573 
L 126.41875 249.917573 
z
" style="fill:#008000;"/>
   </g>
   <g id="patch_7">
    <path clip-path="url(#p550854a4dd)" d="M 126.41875 248.527228 
L 213.80486 248.527228 
L 213.80486 242.965849 
L 126.41875 242.965849 
z
" style="fill:#008000;"/>
   </g>
   <g id="patch_8">
    <path clip-path="url(#p550854a4dd)" d="M 126.41875 241.575504 
L 212.861845 241.575504 
L 212.861845 236.014125 
L 126.41875 236.014125 
z
" style="fill:#008000;"/>
   </g>
   <g id="patch_9">
    <path clip-path="url(#p550854a4dd)" d="M 126.41875 234.62378 
L 212.023609 234.62378 
L 212.023609 229.062401 
L 126.41875 229.062401 
z
" style="fill:#008000;"/>
   </g>
   <g id="patch_10">
    <path clip-path="url(#p550854a4dd)" d="M 126.41875 227.672056 
L 181.742331 227.672056 
L 181.742331 222.110677 
L 126.41875 222.110677 
z
" style="fill:#008000;"/>
   </g>
   <g id="patch_11">
    <path clip-path="url(#p550854a4dd)" d="M 126.41875 220.720332 
L 178.494166 220.720332 
L 178.494166 215.158953 
L 126.41875 215.158953 
z
" style="fill:#008000;"/>
   </g>
   <g id="patch_12">
    <path clip-path="url(#p550854a4dd)" d="M 126.41875 213.768608 
L 172.626513 213.768608 
L 172.626513 208.207228 
L 126.41875 208.207228 
z
" style="fill:#008000;"/>
   </g>
   <g id="patch_13">
    <path clip-path="url(#p550854a4dd)" d="M 126.41875 206.816884 
L 171.788277 206.816884 
L 171.788277 201.255504 
L 126.41875 201.255504 
z
" style="fill:#008000;"/>
   </g>
   <g id="patch_14">
    <path clip-path="url(#p550854a4dd)" d="M 126.41875 199.865159 
L 167.177979 199.865159 
L 167.177979 194.30378 
L 126.41875 194.30378 
z
" style="fill:#008000;"/>
   </g>
   <g id="patch_15">
    <path clip-path="url(#p550854a4dd)" d="M 126.41875 192.913435 
L 167.073199 192.913435 
L 167.073199 187.352056 
L 126.41875 187.352056 
z
" style="fill:#008000;"/>
   </g>
   <g id="patch_16">
    <path clip-path="url(#p550854a4dd)" d="M 126.41875 185.961711 
L 162.358122 185.961711 
L 162.358122 180.400332 
L 126.41875 180.400332 
z
" style="fill:#008000;"/>
   </g>
   <g id="patch_17">
    <path clip-path="url(#p550854a4dd)" d="M 126.41875 179.009987 
L 162.043783 179.009987 
L 162.043783 173.448608 
L 126.41875 173.448608 
z
" style="fill:#008000;"/>
   </g>
   <g id="patch_18">
    <path clip-path="url(#p550854a4dd)" d="M 126.41875 172.058263 
L 160.57687 172.058263 
L 160.57687 166.496884 
L 126.41875 166.496884 
z
" style="fill:#008000;"/>
   </g>
   <g id="patch_19">
    <path clip-path="url(#p550854a4dd)" d="M 126.41875 165.106539 
L 160.57687 165.106539 
L 160.57687 159.545159 
L 126.41875 159.545159 
z
" style="fill:#008000;"/>
   </g>
   <g id="patch_20">
    <path clip-path="url(#p550854a4dd)" d="M 126.41875 158.154815 
L 160.052972 158.154815 
L 160.052972 152.593435 
L 126.41875 152.593435 
z
" style="fill:#008000;"/>
   </g>
   <g id="patch_21">
    <path clip-path="url(#p550854a4dd)" d="M 126.41875 151.203091 
L 155.861792 151.203091 
L 155.861792 145.641711 
L 126.41875 145.641711 
z
" style="fill:#008000;"/>
   </g>
   <g id="patch_22">
    <path clip-path="url(#p550854a4dd)" d="M 126.41875 144.251366 
L 155.337894 144.251366 
L 155.337894 138.689987 
L 126.41875 138.689987 
z
" style="fill:#008000;"/>
   </g>
   <g id="patch_23">
    <path clip-path="url(#p550854a4dd)" d="M 126.41875 137.299642 
L 154.08054 137.299642 
L 154.08054 131.738263 
L 126.41875 131.738263 
z
" style="fill:#008000;"/>
   </g>
   <g id="patch_24">
    <path clip-path="url(#p550854a4dd)" d="M 126.41875 130.347918 
L 153.451863 130.347918 
L 153.451863 124.786539 
L 126.41875 124.786539 
z
" style="fill:#008000;"/>
   </g>
   <g id="patch_25">
    <path clip-path="url(#p550854a4dd)" d="M 126.41875 123.396194 
L 152.08973 123.396194 
L 152.08973 117.834815 
L 126.41875 117.834815 
z
" style="fill:#008000;"/>
   </g>
   <g id="patch_26">
    <path clip-path="url(#p550854a4dd)" d="M 126.41875 116.44447 
L 151.041935 116.44447 
L 151.041935 110.883091 
L 126.41875 110.883091 
z
" style="fill:#008000;"/>
   </g>
   <g id="patch_27">
    <path clip-path="url(#p550854a4dd)" d="M 126.41875 109.492746 
L 150.413258 109.492746 
L 150.413258 103.931366 
L 126.41875 103.931366 
z
" style="fill:#008000;"/>
   </g>
   <g id="patch_28">
    <path clip-path="url(#p550854a4dd)" d="M 126.41875 102.541022 
L 150.203699 102.541022 
L 150.203699 96.979642 
L 126.41875 96.979642 
z
" style="fill:#008000;"/>
   </g>
   <g id="patch_29">
    <path clip-path="url(#p550854a4dd)" d="M 126.41875 95.589297 
L 149.679801 95.589297 
L 149.679801 90.027918 
L 126.41875 90.027918 
z
" style="fill:#008000;"/>
   </g>
   <g id="patch_30">
    <path clip-path="url(#p550854a4dd)" d="M 126.41875 88.637573 
L 149.470242 88.637573 
L 149.470242 83.076194 
L 126.41875 83.076194 
z
" style="fill:#008000;"/>
   </g>
   <g id="patch_31">
    <path clip-path="url(#p550854a4dd)" d="M 126.41875 81.685849 
L 148.212888 81.685849 
L 148.212888 76.12447 
L 126.41875 76.12447 
z
" style="fill:#008000;"/>
   </g>
   <g id="patch_32">
    <path clip-path="url(#p550854a4dd)" d="M 126.41875 74.734125 
L 147.898549 74.734125 
L 147.898549 69.172746 
L 126.41875 69.172746 
z
" style="fill:#008000;"/>
   </g>
   <g id="patch_33">
    <path clip-path="url(#p550854a4dd)" d="M 126.41875 67.782401 
L 147.060313 67.782401 
L 147.060313 62.221022 
L 126.41875 62.221022 
z
" style="fill:#008000;"/>
   </g>
   <g id="patch_34">
    <path clip-path="url(#p550854a4dd)" d="M 126.41875 60.830677 
L 146.431636 60.830677 
L 146.431636 55.269297 
L 126.41875 55.269297 
z
" style="fill:#008000;"/>
   </g>
   <g id="patch_35">
    <path clip-path="url(#p550854a4dd)" d="M 126.41875 53.878953 
L 146.117298 53.878953 
L 146.117298 48.317573 
L 126.41875 48.317573 
z
" style="fill:#008000;"/>
   </g>
   <g id="patch_36">
    <path clip-path="url(#p550854a4dd)" d="M 126.41875 46.927228 
L 145.802959 46.927228 
L 145.802959 41.365849 
L 126.41875 41.365849 
z
" style="fill:#008000;"/>
   </g>
   <g id="patch_37">
    <path clip-path="url(#p550854a4dd)" d="M 126.41875 39.975504 
L 145.69818 39.975504 
L 145.69818 34.414125 
L 126.41875 34.414125 
z
" style="fill:#008000;"/>
   </g>
   <g id="matplotlib.axis_1">
    <g id="xtick_1">
     <g id="line2d_1">
      <defs>
       <path d="M 0 0 
L 0 3.5 
" id="m228435ed6b" style="stroke:#000000;stroke-width:0.8;"/>
      </defs>
      <g>
       <use style="stroke:#000000;stroke-width:0.8;" x="126.41875" xlink:href="#m228435ed6b" y="288.430125"/>
      </g>
     </g>
     <g id="text_1">
      <!-- 0 -->
      <defs>
       <path d="M 31.78125 66.40625 
Q 24.171875 66.40625 20.328125 58.90625 
Q 16.5 51.421875 16.5 36.375 
Q 16.5 21.390625 20.328125 13.890625 
Q 24.171875 6.390625 31.78125 6.390625 
Q 39.453125 6.390625 43.28125 13.890625 
Q 47.125 21.390625 47.125 36.375 
Q 47.125 51.421875 43.28125 58.90625 
Q 39.453125 66.40625 31.78125 66.40625 
z
M 31.78125 74.21875 
Q 44.046875 74.21875 50.515625 64.515625 
Q 56.984375 54.828125 56.984375 36.375 
Q 56.984375 17.96875 50.515625 8.265625 
Q 44.046875 -1.421875 31.78125 -1.421875 
Q 19.53125 -1.421875 13.0625 8.265625 
Q 6.59375 17.96875 6.59375 36.375 
Q 6.59375 54.828125 13.0625 64.515625 
Q 19.53125 74.21875 31.78125 74.21875 
z
" id="DejaVuSans-48"/>
      </defs>
      <g transform="translate(123.2375 303.028562)scale(0.1 -0.1)">
       <use xlink:href="#DejaVuSans-48"/>
      </g>
     </g>
    </g>
    <g id="xtick_2">
     <g id="line2d_2">
      <g>
       <use style="stroke:#000000;stroke-width:0.8;" x="178.808504" xlink:href="#m228435ed6b" y="288.430125"/>
      </g>
     </g>
     <g id="text_2">
      <!-- 500 -->
      <defs>
       <path d="M 10.796875 72.90625 
L 49.515625 72.90625 
L 49.515625 64.59375 
L 19.828125 64.59375 
L 19.828125 46.734375 
Q 21.96875 47.46875 24.109375 47.828125 
Q 26.265625 48.1875 28.421875 48.1875 
Q 40.625 48.1875 47.75 41.5 
Q 54.890625 34.8125 54.890625 23.390625 
Q 54.890625 11.625 47.5625 5.09375 
Q 40.234375 -1.421875 26.90625 -1.421875 
Q 22.3125 -1.421875 17.546875 -0.640625 
Q 12.796875 0.140625 7.71875 1.703125 
L 7.71875 11.625 
Q 12.109375 9.234375 16.796875 8.0625 
Q 21.484375 6.890625 26.703125 6.890625 
Q 35.15625 6.890625 40.078125 11.328125 
Q 45.015625 15.765625 45.015625 23.390625 
Q 45.015625 31 40.078125 35.4375 
Q 35.15625 39.890625 26.703125 39.890625 
Q 22.75 39.890625 18.8125 39.015625 
Q 14.890625 38.140625 10.796875 36.28125 
z
" id="DejaVuSans-53"/>
      </defs>
      <g transform="translate(169.264754 303.028562)scale(0.1 -0.1)">
       <use xlink:href="#DejaVuSans-53"/>
       <use x="63.623047" xlink:href="#DejaVuSans-48"/>
       <use x="127.246094" xlink:href="#DejaVuSans-48"/>
      </g>
     </g>
    </g>
    <g id="xtick_3">
     <g id="line2d_3">
      <g>
       <use style="stroke:#000000;stroke-width:0.8;" x="231.198259" xlink:href="#m228435ed6b" y="288.430125"/>
      </g>
     </g>
     <g id="text_3">
      <!-- 1000 -->
      <defs>
       <path d="M 12.40625 8.296875 
L 28.515625 8.296875 
L 28.515625 63.921875 
L 10.984375 60.40625 
L 10.984375 69.390625 
L 28.421875 72.90625 
L 38.28125 72.90625 
L 38.28125 8.296875 
L 54.390625 8.296875 
L 54.390625 0 
L 12.40625 0 
z
" id="DejaVuSans-49"/>
      </defs>
      <g transform="translate(218.473259 303.028562)scale(0.1 -0.1)">
       <use xlink:href="#DejaVuSans-49"/>
       <use x="63.623047" xlink:href="#DejaVuSans-48"/>
       <use x="127.246094" xlink:href="#DejaVuSans-48"/>
       <use x="190.869141" xlink:href="#DejaVuSans-48"/>
      </g>
     </g>
    </g>
    <g id="xtick_4">
     <g id="line2d_4">
      <g>
       <use style="stroke:#000000;stroke-width:0.8;" x="283.588013" xlink:href="#m228435ed6b" y="288.430125"/>
      </g>
     </g>
     <g id="text_4">
      <!-- 1500 -->
      <g transform="translate(270.863013 303.028562)scale(0.1 -0.1)">
       <use xlink:href="#DejaVuSans-49"/>
       <use x="63.623047" xlink:href="#DejaVuSans-53"/>
       <use x="127.246094" xlink:href="#DejaVuSans-48"/>
       <use x="190.869141" xlink:href="#DejaVuSans-48"/>
      </g>
     </g>
    </g>
    <g id="xtick_5">
     <g id="line2d_5">
      <g>
       <use style="stroke:#000000;stroke-width:0.8;" x="335.977768" xlink:href="#m228435ed6b" y="288.430125"/>
      </g>
     </g>
     <g id="text_5">
      <!-- 2000 -->
      <defs>
       <path d="M 19.1875 8.296875 
L 53.609375 8.296875 
L 53.609375 0 
L 7.328125 0 
L 7.328125 8.296875 
Q 12.9375 14.109375 22.625 23.890625 
Q 32.328125 33.6875 34.8125 36.53125 
Q 39.546875 41.84375 41.421875 45.53125 
Q 43.3125 49.21875 43.3125 52.78125 
Q 43.3125 58.59375 39.234375 62.25 
Q 35.15625 65.921875 28.609375 65.921875 
Q 23.96875 65.921875 18.8125 64.3125 
Q 13.671875 62.703125 7.8125 59.421875 
L 7.8125 69.390625 
Q 13.765625 71.78125 18.9375 73 
Q 24.125 74.21875 28.421875 74.21875 
Q 39.75 74.21875 46.484375 68.546875 
Q 53.21875 62.890625 53.21875 53.421875 
Q 53.21875 48.921875 51.53125 44.890625 
Q 49.859375 40.875 45.40625 35.40625 
Q 44.1875 33.984375 37.640625 27.21875 
Q 31.109375 20.453125 19.1875 8.296875 
z
" id="DejaVuSans-50"/>
      </defs>
      <g transform="translate(323.252768 303.028562)scale(0.1 -0.1)">
       <use xlink:href="#DejaVuSans-50"/>
       <use x="63.623047" xlink:href="#DejaVuSans-48"/>
       <use x="127.246094" xlink:href="#DejaVuSans-48"/>
       <use x="190.869141" xlink:href="#DejaVuSans-48"/>
      </g>
     </g>
    </g>
    <g id="xtick_6">
     <g id="line2d_6">
      <g>
       <use style="stroke:#000000;stroke-width:0.8;" x="388.367522" xlink:href="#m228435ed6b" y="288.430125"/>
      </g>
     </g>
     <g id="text_6">
      <!-- 2500 -->
      <g transform="translate(375.642522 303.028562)scale(0.1 -0.1)">
       <use xlink:href="#DejaVuSans-50"/>
       <use x="63.623047" xlink:href="#DejaVuSans-53"/>
       <use x="127.246094" xlink:href="#DejaVuSans-48"/>
       <use x="190.869141" xlink:href="#DejaVuSans-48"/>
      </g>
     </g>
    </g>
    <g id="xtick_7">
     <g id="line2d_7">
      <g>
       <use style="stroke:#000000;stroke-width:0.8;" x="440.757277" xlink:href="#m228435ed6b" y="288.430125"/>
      </g>
     </g>
     <g id="text_7">
      <!-- 3000 -->
      <defs>
       <path d="M 40.578125 39.3125 
Q 47.65625 37.796875 51.625 33 
Q 55.609375 28.21875 55.609375 21.1875 
Q 55.609375 10.40625 48.1875 4.484375 
Q 40.765625 -1.421875 27.09375 -1.421875 
Q 22.515625 -1.421875 17.65625 -0.515625 
Q 12.796875 0.390625 7.625 2.203125 
L 7.625 11.71875 
Q 11.71875 9.328125 16.59375 8.109375 
Q 21.484375 6.890625 26.8125 6.890625 
Q 36.078125 6.890625 40.9375 10.546875 
Q 45.796875 14.203125 45.796875 21.1875 
Q 45.796875 27.640625 41.28125 31.265625 
Q 36.765625 34.90625 28.71875 34.90625 
L 20.21875 34.90625 
L 20.21875 43.015625 
L 29.109375 43.015625 
Q 36.375 43.015625 40.234375 45.921875 
Q 44.09375 48.828125 44.09375 54.296875 
Q 44.09375 59.90625 40.109375 62.90625 
Q 36.140625 65.921875 28.71875 65.921875 
Q 24.65625 65.921875 20.015625 65.03125 
Q 15.375 64.15625 9.8125 62.3125 
L 9.8125 71.09375 
Q 15.4375 72.65625 20.34375 73.4375 
Q 25.25 74.21875 29.59375 74.21875 
Q 40.828125 74.21875 47.359375 69.109375 
Q 53.90625 64.015625 53.90625 55.328125 
Q 53.90625 49.265625 50.4375 45.09375 
Q 46.96875 40.921875 40.578125 39.3125 
z
" id="DejaVuSans-51"/>
      </defs>
      <g transform="translate(428.032277 303.028562)scale(0.1 -0.1)">
       <use xlink:href="#DejaVuSans-51"/>
       <use x="63.623047" xlink:href="#DejaVuSans-48"/>
       <use x="127.246094" xlink:href="#DejaVuSans-48"/>
       <use x="190.869141" xlink:href="#DejaVuSans-48"/>
      </g>
     </g>
    </g>
    <g id="text_8">
     <!-- Count -->
     <defs>
      <path d="M 64.40625 67.28125 
L 64.40625 56.890625 
Q 59.421875 61.53125 53.78125 63.8125 
Q 48.140625 66.109375 41.796875 66.109375 
Q 29.296875 66.109375 22.65625 58.46875 
Q 16.015625 50.828125 16.015625 36.375 
Q 16.015625 21.96875 22.65625 14.328125 
Q 29.296875 6.6875 41.796875 6.6875 
Q 48.140625 6.6875 53.78125 8.984375 
Q 59.421875 11.28125 64.40625 15.921875 
L 64.40625 5.609375 
Q 59.234375 2.09375 53.4375 0.328125 
Q 47.65625 -1.421875 41.21875 -1.421875 
Q 24.65625 -1.421875 15.125 8.703125 
Q 5.609375 18.84375 5.609375 36.375 
Q 5.609375 53.953125 15.125 64.078125 
Q 24.65625 74.21875 41.21875 74.21875 
Q 47.75 74.21875 53.53125 72.484375 
Q 59.328125 70.75 64.40625 67.28125 
z
" id="DejaVuSans-67"/>
      <path d="M 30.609375 48.390625 
Q 23.390625 48.390625 19.1875 42.75 
Q 14.984375 37.109375 14.984375 27.296875 
Q 14.984375 17.484375 19.15625 11.84375 
Q 23.34375 6.203125 30.609375 6.203125 
Q 37.796875 6.203125 41.984375 11.859375 
Q 46.1875 17.53125 46.1875 27.296875 
Q 46.1875 37.015625 41.984375 42.703125 
Q 37.796875 48.390625 30.609375 48.390625 
z
M 30.609375 56 
Q 42.328125 56 49.015625 48.375 
Q 55.71875 40.765625 55.71875 27.296875 
Q 55.71875 13.875 49.015625 6.21875 
Q 42.328125 -1.421875 30.609375 -1.421875 
Q 18.84375 -1.421875 12.171875 6.21875 
Q 5.515625 13.875 5.515625 27.296875 
Q 5.515625 40.765625 12.171875 48.375 
Q 18.84375 56 30.609375 56 
z
" id="DejaVuSans-111"/>
      <path d="M 8.5 21.578125 
L 8.5 54.6875 
L 17.484375 54.6875 
L 17.484375 21.921875 
Q 17.484375 14.15625 20.5 10.265625 
Q 23.53125 6.390625 29.59375 6.390625 
Q 36.859375 6.390625 41.078125 11.03125 
Q 45.3125 15.671875 45.3125 23.6875 
L 45.3125 54.6875 
L 54.296875 54.6875 
L 54.296875 0 
L 45.3125 0 
L 45.3125 8.40625 
Q 42.046875 3.421875 37.71875 1 
Q 33.40625 -1.421875 27.6875 -1.421875 
Q 18.265625 -1.421875 13.375 4.4375 
Q 8.5 10.296875 8.5 21.578125 
z
M 31.109375 56 
z
" id="DejaVuSans-117"/>
      <path d="M 54.890625 33.015625 
L 54.890625 0 
L 45.90625 0 
L 45.90625 32.71875 
Q 45.90625 40.484375 42.875 44.328125 
Q 39.84375 48.1875 33.796875 48.1875 
Q 26.515625 48.1875 22.3125 43.546875 
Q 18.109375 38.921875 18.109375 30.90625 
L 18.109375 0 
L 9.078125 0 
L 9.078125 54.6875 
L 18.109375 54.6875 
L 18.109375 46.1875 
Q 21.34375 51.125 25.703125 53.5625 
Q 30.078125 56 35.796875 56 
Q 45.21875 56 50.046875 50.171875 
Q 54.890625 44.34375 54.890625 33.015625 
z
" id="DejaVuSans-110"/>
      <path d="M 18.3125 70.21875 
L 18.3125 54.6875 
L 36.8125 54.6875 
L 36.8125 47.703125 
L 18.3125 47.703125 
L 18.3125 18.015625 
Q 18.3125 11.328125 20.140625 9.421875 
Q 21.96875 7.515625 27.59375 7.515625 
L 36.8125 7.515625 
L 36.8125 0 
L 27.59375 0 
Q 17.1875 0 13.234375 3.875 
Q 9.28125 7.765625 9.28125 18.015625 
L 9.28125 47.703125 
L 2.6875 47.703125 
L 2.6875 54.6875 
L 9.28125 54.6875 
L 9.28125 70.21875 
z
" id="DejaVuSans-116"/>
     </defs>
     <g transform="translate(290.130313 316.706687)scale(0.1 -0.1)">
      <use xlink:href="#DejaVuSans-67"/>
      <use x="69.824219" xlink:href="#DejaVuSans-111"/>
      <use x="131.005859" xlink:href="#DejaVuSans-117"/>
      <use x="194.384766" xlink:href="#DejaVuSans-110"/>
      <use x="257.763672" xlink:href="#DejaVuSans-116"/>
     </g>
    </g>
   </g>
   <g id="matplotlib.axis_2">
    <g id="ytick_1">
     <g id="line2d_8">
      <defs>
       <path d="M 0 0 
L -3.5 0 
" id="m43a637a7bd" style="stroke:#000000;stroke-width:0.8;"/>
      </defs>
      <g>
       <use style="stroke:#000000;stroke-width:0.8;" x="126.41875" xlink:href="#m43a637a7bd" y="273.553435"/>
      </g>
     </g>
     <g id="text_9">
      <!-- great game -->
      <defs>
       <path d="M 45.40625 27.984375 
Q 45.40625 37.75 41.375 43.109375 
Q 37.359375 48.484375 30.078125 48.484375 
Q 22.859375 48.484375 18.828125 43.109375 
Q 14.796875 37.75 14.796875 27.984375 
Q 14.796875 18.265625 18.828125 12.890625 
Q 22.859375 7.515625 30.078125 7.515625 
Q 37.359375 7.515625 41.375 12.890625 
Q 45.40625 18.265625 45.40625 27.984375 
z
M 54.390625 6.78125 
Q 54.390625 -7.171875 48.1875 -13.984375 
Q 42 -20.796875 29.203125 -20.796875 
Q 24.46875 -20.796875 20.265625 -20.09375 
Q 16.0625 -19.390625 12.109375 -17.921875 
L 12.109375 -9.1875 
Q 16.0625 -11.328125 19.921875 -12.34375 
Q 23.78125 -13.375 27.78125 -13.375 
Q 36.625 -13.375 41.015625 -8.765625 
Q 45.40625 -4.15625 45.40625 5.171875 
L 45.40625 9.625 
Q 42.625 4.78125 38.28125 2.390625 
Q 33.9375 0 27.875 0 
Q 17.828125 0 11.671875 7.65625 
Q 5.515625 15.328125 5.515625 27.984375 
Q 5.515625 40.671875 11.671875 48.328125 
Q 17.828125 56 27.875 56 
Q 33.9375 56 38.28125 53.609375 
Q 42.625 51.21875 45.40625 46.390625 
L 45.40625 54.6875 
L 54.390625 54.6875 
z
" id="DejaVuSans-103"/>
       <path d="M 41.109375 46.296875 
Q 39.59375 47.171875 37.8125 47.578125 
Q 36.03125 48 33.890625 48 
Q 26.265625 48 22.1875 43.046875 
Q 18.109375 38.09375 18.109375 28.8125 
L 18.109375 0 
L 9.078125 0 
L 9.078125 54.6875 
L 18.109375 54.6875 
L 18.109375 46.1875 
Q 20.953125 51.171875 25.484375 53.578125 
Q 30.03125 56 36.53125 56 
Q 37.453125 56 38.578125 55.875 
Q 39.703125 55.765625 41.0625 55.515625 
z
" id="DejaVuSans-114"/>
       <path d="M 56.203125 29.59375 
L 56.203125 25.203125 
L 14.890625 25.203125 
Q 15.484375 15.921875 20.484375 11.0625 
Q 25.484375 6.203125 34.421875 6.203125 
Q 39.59375 6.203125 44.453125 7.46875 
Q 49.3125 8.734375 54.109375 11.28125 
L 54.109375 2.78125 
Q 49.265625 0.734375 44.1875 -0.34375 
Q 39.109375 -1.421875 33.890625 -1.421875 
Q 20.796875 -1.421875 13.15625 6.1875 
Q 5.515625 13.8125 5.515625 26.8125 
Q 5.515625 40.234375 12.765625 48.109375 
Q 20.015625 56 32.328125 56 
Q 43.359375 56 49.78125 48.890625 
Q 56.203125 41.796875 56.203125 29.59375 
z
M 47.21875 32.234375 
Q 47.125 39.59375 43.09375 43.984375 
Q 39.0625 48.390625 32.421875 48.390625 
Q 24.90625 48.390625 20.390625 44.140625 
Q 15.875 39.890625 15.1875 32.171875 
z
" id="DejaVuSans-101"/>
       <path d="M 34.28125 27.484375 
Q 23.390625 27.484375 19.1875 25 
Q 14.984375 22.515625 14.984375 16.5 
Q 14.984375 11.71875 18.140625 8.90625 
Q 21.296875 6.109375 26.703125 6.109375 
Q 34.1875 6.109375 38.703125 11.40625 
Q 43.21875 16.703125 43.21875 25.484375 
L 43.21875 27.484375 
z
M 52.203125 31.203125 
L 52.203125 0 
L 43.21875 0 
L 43.21875 8.296875 
Q 40.140625 3.328125 35.546875 0.953125 
Q 30.953125 -1.421875 24.3125 -1.421875 
Q 15.921875 -1.421875 10.953125 3.296875 
Q 6 8.015625 6 15.921875 
Q 6 25.140625 12.171875 29.828125 
Q 18.359375 34.515625 30.609375 34.515625 
L 43.21875 34.515625 
L 43.21875 35.40625 
Q 43.21875 41.609375 39.140625 45 
Q 35.0625 48.390625 27.6875 48.390625 
Q 23 48.390625 18.546875 47.265625 
Q 14.109375 46.140625 10.015625 43.890625 
L 10.015625 52.203125 
Q 14.9375 54.109375 19.578125 55.046875 
Q 24.21875 56 28.609375 56 
Q 40.484375 56 46.34375 49.84375 
Q 52.203125 43.703125 52.203125 31.203125 
z
" id="DejaVuSans-97"/>
       <path id="DejaVuSans-32"/>
       <path d="M 52 44.1875 
Q 55.375 50.25 60.0625 53.125 
Q 64.75 56 71.09375 56 
Q 79.640625 56 84.28125 50.015625 
Q 88.921875 44.046875 88.921875 33.015625 
L 88.921875 0 
L 79.890625 0 
L 79.890625 32.71875 
Q 79.890625 40.578125 77.09375 44.375 
Q 74.3125 48.1875 68.609375 48.1875 
Q 61.625 48.1875 57.5625 43.546875 
Q 53.515625 38.921875 53.515625 30.90625 
L 53.515625 0 
L 44.484375 0 
L 44.484375 32.71875 
Q 44.484375 40.625 41.703125 44.40625 
Q 38.921875 48.1875 33.109375 48.1875 
Q 26.21875 48.1875 22.15625 43.53125 
Q 18.109375 38.875 18.109375 30.90625 
L 18.109375 0 
L 9.078125 0 
L 9.078125 54.6875 
L 18.109375 54.6875 
L 18.109375 46.1875 
Q 21.1875 51.21875 25.484375 53.609375 
Q 29.78125 56 35.6875 56 
Q 41.65625 56 45.828125 52.96875 
Q 50 49.953125 52 44.1875 
z
" id="DejaVuSans-109"/>
      </defs>
      <g transform="translate(61.434375 277.352654)scale(0.1 -0.1)">
       <use xlink:href="#DejaVuSans-103"/>
       <use x="63.476562" xlink:href="#DejaVuSans-114"/>
       <use x="102.339844" xlink:href="#DejaVuSans-101"/>
       <use x="163.863281" xlink:href="#DejaVuSans-97"/>
       <use x="225.142578" xlink:href="#DejaVuSans-116"/>
       <use x="264.351562" xlink:href="#DejaVuSans-32"/>
       <use x="296.138672" xlink:href="#DejaVuSans-103"/>
       <use x="359.615234" xlink:href="#DejaVuSans-97"/>
       <use x="420.894531" xlink:href="#DejaVuSans-109"/>
       <use x="518.306641" xlink:href="#DejaVuSans-101"/>
      </g>
     </g>
    </g>
    <g id="ytick_2">
     <g id="line2d_9">
      <g>
       <use style="stroke:#000000;stroke-width:0.8;" x="126.41875" xlink:href="#m43a637a7bd" y="266.601711"/>
      </g>
     </g>
     <g id="text_10">
      <!-- good game -->
      <defs>
       <path d="M 45.40625 46.390625 
L 45.40625 75.984375 
L 54.390625 75.984375 
L 54.390625 0 
L 45.40625 0 
L 45.40625 8.203125 
Q 42.578125 3.328125 38.25 0.953125 
Q 33.9375 -1.421875 27.875 -1.421875 
Q 17.96875 -1.421875 11.734375 6.484375 
Q 5.515625 14.40625 5.515625 27.296875 
Q 5.515625 40.1875 11.734375 48.09375 
Q 17.96875 56 27.875 56 
Q 33.9375 56 38.25 53.625 
Q 42.578125 51.265625 45.40625 46.390625 
z
M 14.796875 27.296875 
Q 14.796875 17.390625 18.875 11.75 
Q 22.953125 6.109375 30.078125 6.109375 
Q 37.203125 6.109375 41.296875 11.75 
Q 45.40625 17.390625 45.40625 27.296875 
Q 45.40625 37.203125 41.296875 42.84375 
Q 37.203125 48.484375 30.078125 48.484375 
Q 22.953125 48.484375 18.875 42.84375 
Q 14.796875 37.203125 14.796875 27.296875 
z
" id="DejaVuSans-100"/>
      </defs>
      <g transform="translate(62.935938 270.40093)scale(0.1 -0.1)">
       <use xlink:href="#DejaVuSans-103"/>
       <use x="63.476562" xlink:href="#DejaVuSans-111"/>
       <use x="124.658203" xlink:href="#DejaVuSans-111"/>
       <use x="185.839844" xlink:href="#DejaVuSans-100"/>
       <use x="249.316406" xlink:href="#DejaVuSans-32"/>
       <use x="281.103516" xlink:href="#DejaVuSans-103"/>
       <use x="344.580078" xlink:href="#DejaVuSans-97"/>
       <use x="405.859375" xlink:href="#DejaVuSans-109"/>
       <use x="503.271484" xlink:href="#DejaVuSans-101"/>
      </g>
     </g>
    </g>
    <g id="ytick_3">
     <g id="line2d_10">
      <g>
       <use style="stroke:#000000;stroke-width:0.8;" x="126.41875" xlink:href="#m43a637a7bd" y="259.649987"/>
      </g>
     </g>
     <g id="text_11">
      <!-- nyan nyan -->
      <defs>
       <path d="M 32.171875 -5.078125 
Q 28.375 -14.84375 24.75 -17.8125 
Q 21.140625 -20.796875 15.09375 -20.796875 
L 7.90625 -20.796875 
L 7.90625 -13.28125 
L 13.1875 -13.28125 
Q 16.890625 -13.28125 18.9375 -11.515625 
Q 21 -9.765625 23.484375 -3.21875 
L 25.09375 0.875 
L 2.984375 54.6875 
L 12.5 54.6875 
L 29.59375 11.921875 
L 46.6875 54.6875 
L 56.203125 54.6875 
z
" id="DejaVuSans-121"/>
      </defs>
      <g transform="translate(66.796875 263.449206)scale(0.1 -0.1)">
       <use xlink:href="#DejaVuSans-110"/>
       <use x="63.378906" xlink:href="#DejaVuSans-121"/>
       <use x="122.558594" xlink:href="#DejaVuSans-97"/>
       <use x="183.837891" xlink:href="#DejaVuSans-110"/>
       <use x="247.216797" xlink:href="#DejaVuSans-32"/>
       <use x="279.003906" xlink:href="#DejaVuSans-110"/>
       <use x="342.382812" xlink:href="#DejaVuSans-121"/>
       <use x="401.5625" xlink:href="#DejaVuSans-97"/>
       <use x="462.841797" xlink:href="#DejaVuSans-110"/>
      </g>
     </g>
    </g>
    <g id="ytick_4">
     <g id="line2d_11">
      <g>
       <use style="stroke:#000000;stroke-width:0.8;" x="126.41875" xlink:href="#m43a637a7bd" y="252.698263"/>
      </g>
     </g>
     <g id="text_12">
      <!-- ever played -->
      <defs>
       <path d="M 2.984375 54.6875 
L 12.5 54.6875 
L 29.59375 8.796875 
L 46.6875 54.6875 
L 56.203125 54.6875 
L 35.6875 0 
L 23.484375 0 
z
" id="DejaVuSans-118"/>
       <path d="M 18.109375 8.203125 
L 18.109375 -20.796875 
L 9.078125 -20.796875 
L 9.078125 54.6875 
L 18.109375 54.6875 
L 18.109375 46.390625 
Q 20.953125 51.265625 25.265625 53.625 
Q 29.59375 56 35.59375 56 
Q 45.5625 56 51.78125 48.09375 
Q 58.015625 40.1875 58.015625 27.296875 
Q 58.015625 14.40625 51.78125 6.484375 
Q 45.5625 -1.421875 35.59375 -1.421875 
Q 29.59375 -1.421875 25.265625 0.953125 
Q 20.953125 3.328125 18.109375 8.203125 
z
M 48.6875 27.296875 
Q 48.6875 37.203125 44.609375 42.84375 
Q 40.53125 48.484375 33.40625 48.484375 
Q 26.265625 48.484375 22.1875 42.84375 
Q 18.109375 37.203125 18.109375 27.296875 
Q 18.109375 17.390625 22.1875 11.75 
Q 26.265625 6.109375 33.40625 6.109375 
Q 40.53125 6.109375 44.609375 11.75 
Q 48.6875 17.390625 48.6875 27.296875 
z
" id="DejaVuSans-112"/>
       <path d="M 9.421875 75.984375 
L 18.40625 75.984375 
L 18.40625 0 
L 9.421875 0 
z
" id="DejaVuSans-108"/>
      </defs>
      <g transform="translate(60.229687 256.497482)scale(0.1 -0.1)">
       <use xlink:href="#DejaVuSans-101"/>
       <use x="61.523438" xlink:href="#DejaVuSans-118"/>
       <use x="120.703125" xlink:href="#DejaVuSans-101"/>
       <use x="182.226562" xlink:href="#DejaVuSans-114"/>
       <use x="223.339844" xlink:href="#DejaVuSans-32"/>
       <use x="255.126953" xlink:href="#DejaVuSans-112"/>
       <use x="318.603516" xlink:href="#DejaVuSans-108"/>
       <use x="346.386719" xlink:href="#DejaVuSans-97"/>
       <use x="407.666016" xlink:href="#DejaVuSans-121"/>
       <use x="466.845703" xlink:href="#DejaVuSans-101"/>
       <use x="528.369141" xlink:href="#DejaVuSans-100"/>
      </g>
     </g>
    </g>
    <g id="ytick_5">
     <g id="line2d_12">
      <g>
       <use style="stroke:#000000;stroke-width:0.8;" x="126.41875" xlink:href="#m43a637a7bd" y="245.746539"/>
      </g>
     </g>
     <g id="text_13">
      <!-- amazing game -->
      <defs>
       <path d="M 5.515625 54.6875 
L 48.1875 54.6875 
L 48.1875 46.484375 
L 14.40625 7.171875 
L 48.1875 7.171875 
L 48.1875 0 
L 4.296875 0 
L 4.296875 8.203125 
L 38.09375 47.515625 
L 5.515625 47.515625 
z
" id="DejaVuSans-122"/>
       <path d="M 9.421875 54.6875 
L 18.40625 54.6875 
L 18.40625 0 
L 9.421875 0 
z
M 9.421875 75.984375 
L 18.40625 75.984375 
L 18.40625 64.59375 
L 9.421875 64.59375 
z
" id="DejaVuSans-105"/>
      </defs>
      <g transform="translate(45.160938 249.545758)scale(0.1 -0.1)">
       <use xlink:href="#DejaVuSans-97"/>
       <use x="61.279297" xlink:href="#DejaVuSans-109"/>
       <use x="158.691406" xlink:href="#DejaVuSans-97"/>
       <use x="219.970703" xlink:href="#DejaVuSans-122"/>
       <use x="272.460938" xlink:href="#DejaVuSans-105"/>
       <use x="300.244141" xlink:href="#DejaVuSans-110"/>
       <use x="363.623047" xlink:href="#DejaVuSans-103"/>
       <use x="427.099609" xlink:href="#DejaVuSans-32"/>
       <use x="458.886719" xlink:href="#DejaVuSans-103"/>
       <use x="522.363281" xlink:href="#DejaVuSans-97"/>
       <use x="583.642578" xlink:href="#DejaVuSans-109"/>
       <use x="681.054688" xlink:href="#DejaVuSans-101"/>
      </g>
     </g>
    </g>
    <g id="ytick_6">
     <g id="line2d_13">
      <g>
       <use style="stroke:#000000;stroke-width:0.8;" x="126.41875" xlink:href="#m43a637a7bd" y="238.794815"/>
      </g>
     </g>
     <g id="text_14">
      <!-- awesome game -->
      <defs>
       <path d="M 4.203125 54.6875 
L 13.1875 54.6875 
L 24.421875 12.015625 
L 35.59375 54.6875 
L 46.1875 54.6875 
L 57.421875 12.015625 
L 68.609375 54.6875 
L 77.59375 54.6875 
L 63.28125 0 
L 52.6875 0 
L 40.921875 44.828125 
L 29.109375 0 
L 18.5 0 
z
" id="DejaVuSans-119"/>
       <path d="M 44.28125 53.078125 
L 44.28125 44.578125 
Q 40.484375 46.53125 36.375 47.5 
Q 32.28125 48.484375 27.875 48.484375 
Q 21.1875 48.484375 17.84375 46.4375 
Q 14.5 44.390625 14.5 40.28125 
Q 14.5 37.15625 16.890625 35.375 
Q 19.28125 33.59375 26.515625 31.984375 
L 29.59375 31.296875 
Q 39.15625 29.25 43.1875 25.515625 
Q 47.21875 21.78125 47.21875 15.09375 
Q 47.21875 7.46875 41.1875 3.015625 
Q 35.15625 -1.421875 24.609375 -1.421875 
Q 20.21875 -1.421875 15.453125 -0.5625 
Q 10.6875 0.296875 5.421875 2 
L 5.421875 11.28125 
Q 10.40625 8.6875 15.234375 7.390625 
Q 20.0625 6.109375 24.8125 6.109375 
Q 31.15625 6.109375 34.5625 8.28125 
Q 37.984375 10.453125 37.984375 14.40625 
Q 37.984375 18.0625 35.515625 20.015625 
Q 33.0625 21.96875 24.703125 23.78125 
L 21.578125 24.515625 
Q 13.234375 26.265625 9.515625 29.90625 
Q 5.8125 33.546875 5.8125 39.890625 
Q 5.8125 47.609375 11.28125 51.796875 
Q 16.75 56 26.8125 56 
Q 31.78125 56 36.171875 55.265625 
Q 40.578125 54.546875 44.28125 53.078125 
z
" id="DejaVuSans-115"/>
      </defs>
      <g transform="translate(40.189062 242.594033)scale(0.1 -0.1)">
       <use xlink:href="#DejaVuSans-97"/>
       <use x="61.279297" xlink:href="#DejaVuSans-119"/>
       <use x="143.066406" xlink:href="#DejaVuSans-101"/>
       <use x="204.589844" xlink:href="#DejaVuSans-115"/>
       <use x="256.689453" xlink:href="#DejaVuSans-111"/>
       <use x="317.871094" xlink:href="#DejaVuSans-109"/>
       <use x="415.283203" xlink:href="#DejaVuSans-101"/>
       <use x="476.806641" xlink:href="#DejaVuSans-32"/>
       <use x="508.59375" xlink:href="#DejaVuSans-103"/>
       <use x="572.070312" xlink:href="#DejaVuSans-97"/>
       <use x="633.349609" xlink:href="#DejaVuSans-109"/>
       <use x="730.761719" xlink:href="#DejaVuSans-101"/>
      </g>
     </g>
    </g>
    <g id="ytick_7">
     <g id="line2d_14">
      <g>
       <use style="stroke:#000000;stroke-width:0.8;" x="126.41875" xlink:href="#m43a637a7bd" y="231.843091"/>
      </g>
     </g>
     <g id="text_15">
      <!-- bad bad -->
      <defs>
       <path d="M 48.6875 27.296875 
Q 48.6875 37.203125 44.609375 42.84375 
Q 40.53125 48.484375 33.40625 48.484375 
Q 26.265625 48.484375 22.1875 42.84375 
Q 18.109375 37.203125 18.109375 27.296875 
Q 18.109375 17.390625 22.1875 11.75 
Q 26.265625 6.109375 33.40625 6.109375 
Q 40.53125 6.109375 44.609375 11.75 
Q 48.6875 17.390625 48.6875 27.296875 
z
M 18.109375 46.390625 
Q 20.953125 51.265625 25.265625 53.625 
Q 29.59375 56 35.59375 56 
Q 45.5625 56 51.78125 48.09375 
Q 58.015625 40.1875 58.015625 27.296875 
Q 58.015625 14.40625 51.78125 6.484375 
Q 45.5625 -1.421875 35.59375 -1.421875 
Q 29.59375 -1.421875 25.265625 0.953125 
Q 20.953125 3.328125 18.109375 8.203125 
L 18.109375 0 
L 9.078125 0 
L 9.078125 75.984375 
L 18.109375 75.984375 
z
" id="DejaVuSans-98"/>
      </defs>
      <g transform="translate(78.590625 235.642309)scale(0.1 -0.1)">
       <use xlink:href="#DejaVuSans-98"/>
       <use x="63.476562" xlink:href="#DejaVuSans-97"/>
       <use x="124.755859" xlink:href="#DejaVuSans-100"/>
       <use x="188.232422" xlink:href="#DejaVuSans-32"/>
       <use x="220.019531" xlink:href="#DejaVuSans-98"/>
       <use x="283.496094" xlink:href="#DejaVuSans-97"/>
       <use x="344.775391" xlink:href="#DejaVuSans-100"/>
      </g>
     </g>
    </g>
    <g id="ytick_8">
     <g id="line2d_15">
      <g>
       <use style="stroke:#000000;stroke-width:0.8;" x="126.41875" xlink:href="#m43a637a7bd" y="224.891366"/>
      </g>
     </g>
     <g id="text_16">
      <!-- early access -->
      <defs>
       <path d="M 48.78125 52.59375 
L 48.78125 44.1875 
Q 44.96875 46.296875 41.140625 47.34375 
Q 37.3125 48.390625 33.40625 48.390625 
Q 24.65625 48.390625 19.8125 42.84375 
Q 14.984375 37.3125 14.984375 27.296875 
Q 14.984375 17.28125 19.8125 11.734375 
Q 24.65625 6.203125 33.40625 6.203125 
Q 37.3125 6.203125 41.140625 7.25 
Q 44.96875 8.296875 48.78125 10.40625 
L 48.78125 2.09375 
Q 45.015625 0.34375 40.984375 -0.53125 
Q 36.96875 -1.421875 32.421875 -1.421875 
Q 20.0625 -1.421875 12.78125 6.34375 
Q 5.515625 14.109375 5.515625 27.296875 
Q 5.515625 40.671875 12.859375 48.328125 
Q 20.21875 56 33.015625 56 
Q 37.15625 56 41.109375 55.140625 
Q 45.0625 54.296875 48.78125 52.59375 
z
" id="DejaVuSans-99"/>
      </defs>
      <g transform="translate(57.454687 228.690585)scale(0.1 -0.1)">
       <use xlink:href="#DejaVuSans-101"/>
       <use x="61.523438" xlink:href="#DejaVuSans-97"/>
       <use x="122.802734" xlink:href="#DejaVuSans-114"/>
       <use x="163.916016" xlink:href="#DejaVuSans-108"/>
       <use x="191.699219" xlink:href="#DejaVuSans-121"/>
       <use x="250.878906" xlink:href="#DejaVuSans-32"/>
       <use x="282.666016" xlink:href="#DejaVuSans-97"/>
       <use x="343.945312" xlink:href="#DejaVuSans-99"/>
       <use x="398.925781" xlink:href="#DejaVuSans-99"/>
       <use x="453.90625" xlink:href="#DejaVuSans-101"/>
       <use x="515.429688" xlink:href="#DejaVuSans-115"/>
       <use x="567.529297" xlink:href="#DejaVuSans-115"/>
      </g>
     </g>
    </g>
    <g id="ytick_9">
     <g id="line2d_16">
      <g>
       <use style="stroke:#000000;stroke-width:0.8;" x="126.41875" xlink:href="#m43a637a7bd" y="217.939642"/>
      </g>
     </g>
     <g id="text_17">
      <!-- fun game -->
      <defs>
       <path d="M 37.109375 75.984375 
L 37.109375 68.5 
L 28.515625 68.5 
Q 23.6875 68.5 21.796875 66.546875 
Q 19.921875 64.59375 19.921875 59.515625 
L 19.921875 54.6875 
L 34.71875 54.6875 
L 34.71875 47.703125 
L 19.921875 47.703125 
L 19.921875 0 
L 10.890625 0 
L 10.890625 47.703125 
L 2.296875 47.703125 
L 2.296875 54.6875 
L 10.890625 54.6875 
L 10.890625 58.5 
Q 10.890625 67.625 15.140625 71.796875 
Q 19.390625 75.984375 28.609375 75.984375 
z
" id="DejaVuSans-102"/>
      </defs>
      <g transform="translate(71.675 221.738861)scale(0.1 -0.1)">
       <use xlink:href="#DejaVuSans-102"/>
       <use x="35.205078" xlink:href="#DejaVuSans-117"/>
       <use x="98.583984" xlink:href="#DejaVuSans-110"/>
       <use x="161.962891" xlink:href="#DejaVuSans-32"/>
       <use x="193.75" xlink:href="#DejaVuSans-103"/>
       <use x="257.226562" xlink:href="#DejaVuSans-97"/>
       <use x="318.505859" xlink:href="#DejaVuSans-109"/>
       <use x="415.917969" xlink:href="#DejaVuSans-101"/>
      </g>
     </g>
    </g>
    <g id="ytick_10">
     <g id="line2d_17">
      <g>
       <use style="stroke:#000000;stroke-width:0.8;" x="126.41875" xlink:href="#m43a637a7bd" y="210.987918"/>
      </g>
     </g>
     <g id="text_18">
      <!-- free play -->
      <g transform="translate(75.354687 214.787137)scale(0.1 -0.1)">
       <use xlink:href="#DejaVuSans-102"/>
       <use x="35.205078" xlink:href="#DejaVuSans-114"/>
       <use x="74.068359" xlink:href="#DejaVuSans-101"/>
       <use x="135.591797" xlink:href="#DejaVuSans-101"/>
       <use x="197.115234" xlink:href="#DejaVuSans-32"/>
       <use x="228.902344" xlink:href="#DejaVuSans-112"/>
       <use x="292.378906" xlink:href="#DejaVuSans-108"/>
       <use x="320.162109" xlink:href="#DejaVuSans-97"/>
       <use x="381.441406" xlink:href="#DejaVuSans-121"/>
      </g>
     </g>
    </g>
    <g id="ytick_11">
     <g id="line2d_18">
      <g>
       <use style="stroke:#000000;stroke-width:0.8;" x="126.41875" xlink:href="#m43a637a7bd" y="204.036194"/>
      </g>
     </g>
     <g id="text_19">
      <!-- recommend game -->
      <g transform="translate(27.89375 207.835413)scale(0.1 -0.1)">
       <use xlink:href="#DejaVuSans-114"/>
       <use x="38.863281" xlink:href="#DejaVuSans-101"/>
       <use x="100.386719" xlink:href="#DejaVuSans-99"/>
       <use x="155.367188" xlink:href="#DejaVuSans-111"/>
       <use x="216.548828" xlink:href="#DejaVuSans-109"/>
       <use x="313.960938" xlink:href="#DejaVuSans-109"/>
       <use x="411.373047" xlink:href="#DejaVuSans-101"/>
       <use x="472.896484" xlink:href="#DejaVuSans-110"/>
       <use x="536.275391" xlink:href="#DejaVuSans-100"/>
       <use x="599.751953" xlink:href="#DejaVuSans-32"/>
       <use x="631.539062" xlink:href="#DejaVuSans-103"/>
       <use x="695.015625" xlink:href="#DejaVuSans-97"/>
       <use x="756.294922" xlink:href="#DejaVuSans-109"/>
       <use x="853.707031" xlink:href="#DejaVuSans-101"/>
      </g>
     </g>
    </g>
    <g id="ytick_12">
     <g id="line2d_19">
      <g>
       <use style="stroke:#000000;stroke-width:0.8;" x="126.41875" xlink:href="#m43a637a7bd" y="197.08447"/>
      </g>
     </g>
     <g id="text_20">
      <!-- hot super -->
      <defs>
       <path d="M 54.890625 33.015625 
L 54.890625 0 
L 45.90625 0 
L 45.90625 32.71875 
Q 45.90625 40.484375 42.875 44.328125 
Q 39.84375 48.1875 33.796875 48.1875 
Q 26.515625 48.1875 22.3125 43.546875 
Q 18.109375 38.921875 18.109375 30.90625 
L 18.109375 0 
L 9.078125 0 
L 9.078125 75.984375 
L 18.109375 75.984375 
L 18.109375 46.1875 
Q 21.34375 51.125 25.703125 53.5625 
Q 30.078125 56 35.796875 56 
Q 45.21875 56 50.046875 50.171875 
Q 54.890625 44.34375 54.890625 33.015625 
z
" id="DejaVuSans-104"/>
      </defs>
      <g transform="translate(71.704688 200.883689)scale(0.1 -0.1)">
       <use xlink:href="#DejaVuSans-104"/>
       <use x="63.378906" xlink:href="#DejaVuSans-111"/>
       <use x="124.560547" xlink:href="#DejaVuSans-116"/>
       <use x="163.769531" xlink:href="#DejaVuSans-32"/>
       <use x="195.556641" xlink:href="#DejaVuSans-115"/>
       <use x="247.65625" xlink:href="#DejaVuSans-117"/>
       <use x="311.035156" xlink:href="#DejaVuSans-112"/>
       <use x="374.511719" xlink:href="#DejaVuSans-101"/>
       <use x="436.035156" xlink:href="#DejaVuSans-114"/>
      </g>
     </g>
    </g>
    <g id="ytick_13">
     <g id="line2d_20">
      <g>
       <use style="stroke:#000000;stroke-width:0.8;" x="126.41875" xlink:href="#m43a637a7bd" y="190.132746"/>
      </g>
     </g>
     <g id="text_21">
      <!-- super hot -->
      <g transform="translate(71.704688 193.931964)scale(0.1 -0.1)">
       <use xlink:href="#DejaVuSans-115"/>
       <use x="52.099609" xlink:href="#DejaVuSans-117"/>
       <use x="115.478516" xlink:href="#DejaVuSans-112"/>
       <use x="178.955078" xlink:href="#DejaVuSans-101"/>
       <use x="240.478516" xlink:href="#DejaVuSans-114"/>
       <use x="281.591797" xlink:href="#DejaVuSans-32"/>
       <use x="313.378906" xlink:href="#DejaVuSans-104"/>
       <use x="376.757812" xlink:href="#DejaVuSans-111"/>
       <use x="437.939453" xlink:href="#DejaVuSans-116"/>
      </g>
     </g>
    </g>
    <g id="ytick_14">
     <g id="line2d_21">
      <g>
       <use style="stroke:#000000;stroke-width:0.8;" x="126.41875" xlink:href="#m43a637a7bd" y="183.181022"/>
      </g>
     </g>
     <g id="text_22">
      <!-- much fun -->
      <g transform="translate(72.13125 186.98024)scale(0.1 -0.1)">
       <use xlink:href="#DejaVuSans-109"/>
       <use x="97.412109" xlink:href="#DejaVuSans-117"/>
       <use x="160.791016" xlink:href="#DejaVuSans-99"/>
       <use x="215.771484" xlink:href="#DejaVuSans-104"/>
       <use x="279.150391" xlink:href="#DejaVuSans-32"/>
       <use x="310.9375" xlink:href="#DejaVuSans-102"/>
       <use x="346.142578" xlink:href="#DejaVuSans-117"/>
       <use x="409.521484" xlink:href="#DejaVuSans-110"/>
      </g>
     </g>
    </g>
    <g id="ytick_15">
     <g id="line2d_22">
      <g>
       <use style="stroke:#000000;stroke-width:0.8;" x="126.41875" xlink:href="#m43a637a7bd" y="176.229297"/>
      </g>
     </g>
     <g id="text_23">
      <!-- game great -->
      <g transform="translate(61.434375 180.028516)scale(0.1 -0.1)">
       <use xlink:href="#DejaVuSans-103"/>
       <use x="63.476562" xlink:href="#DejaVuSans-97"/>
       <use x="124.755859" xlink:href="#DejaVuSans-109"/>
       <use x="222.167969" xlink:href="#DejaVuSans-101"/>
       <use x="283.691406" xlink:href="#DejaVuSans-32"/>
       <use x="315.478516" xlink:href="#DejaVuSans-103"/>
       <use x="378.955078" xlink:href="#DejaVuSans-114"/>
       <use x="417.818359" xlink:href="#DejaVuSans-101"/>
       <use x="479.341797" xlink:href="#DejaVuSans-97"/>
       <use x="540.621094" xlink:href="#DejaVuSans-116"/>
      </g>
     </g>
    </g>
    <g id="ytick_16">
     <g id="line2d_23">
      <g>
       <use style="stroke:#000000;stroke-width:0.8;" x="126.41875" xlink:href="#m43a637a7bd" y="169.277573"/>
      </g>
     </g>
     <g id="text_24">
      <!-- single player -->
      <g transform="translate(55.198437 173.076792)scale(0.1 -0.1)">
       <use xlink:href="#DejaVuSans-115"/>
       <use x="52.099609" xlink:href="#DejaVuSans-105"/>
       <use x="79.882812" xlink:href="#DejaVuSans-110"/>
       <use x="143.261719" xlink:href="#DejaVuSans-103"/>
       <use x="206.738281" xlink:href="#DejaVuSans-108"/>
       <use x="234.521484" xlink:href="#DejaVuSans-101"/>
       <use x="296.044922" xlink:href="#DejaVuSans-32"/>
       <use x="327.832031" xlink:href="#DejaVuSans-112"/>
       <use x="391.308594" xlink:href="#DejaVuSans-108"/>
       <use x="419.091797" xlink:href="#DejaVuSans-97"/>
       <use x="480.371094" xlink:href="#DejaVuSans-121"/>
       <use x="539.550781" xlink:href="#DejaVuSans-101"/>
       <use x="601.074219" xlink:href="#DejaVuSans-114"/>
      </g>
     </g>
    </g>
    <g id="ytick_17">
     <g id="line2d_24">
      <g>
       <use style="stroke:#000000;stroke-width:0.8;" x="126.41875" xlink:href="#m43a637a7bd" y="162.325849"/>
      </g>
     </g>
     <g id="text_25">
      <!-- game ive -->
      <g transform="translate(73.020313 166.125068)scale(0.1 -0.1)">
       <use xlink:href="#DejaVuSans-103"/>
       <use x="63.476562" xlink:href="#DejaVuSans-97"/>
       <use x="124.755859" xlink:href="#DejaVuSans-109"/>
       <use x="222.167969" xlink:href="#DejaVuSans-101"/>
       <use x="283.691406" xlink:href="#DejaVuSans-32"/>
       <use x="315.478516" xlink:href="#DejaVuSans-105"/>
       <use x="343.261719" xlink:href="#DejaVuSans-118"/>
       <use x="402.441406" xlink:href="#DejaVuSans-101"/>
      </g>
     </g>
    </g>
    <g id="ytick_18">
     <g id="line2d_25">
      <g>
       <use style="stroke:#000000;stroke-width:0.8;" x="126.41875" xlink:href="#m43a637a7bd" y="155.374125"/>
      </g>
     </g>
     <g id="text_26">
      <!-- long time -->
      <g transform="translate(72.065625 159.173344)scale(0.1 -0.1)">
       <use xlink:href="#DejaVuSans-108"/>
       <use x="27.783203" xlink:href="#DejaVuSans-111"/>
       <use x="88.964844" xlink:href="#DejaVuSans-110"/>
       <use x="152.34375" xlink:href="#DejaVuSans-103"/>
       <use x="215.820312" xlink:href="#DejaVuSans-32"/>
       <use x="247.607422" xlink:href="#DejaVuSans-116"/>
       <use x="286.816406" xlink:href="#DejaVuSans-105"/>
       <use x="314.599609" xlink:href="#DejaVuSans-109"/>
       <use x="412.011719" xlink:href="#DejaVuSans-101"/>
      </g>
     </g>
    </g>
    <g id="ytick_19">
     <g id="line2d_26">
      <g>
       <use style="stroke:#000000;stroke-width:0.8;" x="126.41875" xlink:href="#m43a637a7bd" y="148.422401"/>
      </g>
     </g>
     <g id="text_27">
      <!-- open world -->
      <g transform="translate(63.748438 152.22162)scale(0.1 -0.1)">
       <use xlink:href="#DejaVuSans-111"/>
       <use x="61.181641" xlink:href="#DejaVuSans-112"/>
       <use x="124.658203" xlink:href="#DejaVuSans-101"/>
       <use x="186.181641" xlink:href="#DejaVuSans-110"/>
       <use x="249.560547" xlink:href="#DejaVuSans-32"/>
       <use x="281.347656" xlink:href="#DejaVuSans-119"/>
       <use x="363.134766" xlink:href="#DejaVuSans-111"/>
       <use x="424.316406" xlink:href="#DejaVuSans-114"/>
       <use x="465.429688" xlink:href="#DejaVuSans-108"/>
       <use x="493.212891" xlink:href="#DejaVuSans-100"/>
      </g>
     </g>
    </g>
    <g id="ytick_20">
     <g id="line2d_27">
      <g>
       <use style="stroke:#000000;stroke-width:0.8;" x="126.41875" xlink:href="#m43a637a7bd" y="141.470677"/>
      </g>
     </g>
     <g id="text_28">
      <!-- awesome awesome -->
      <g transform="translate(20.878125 145.269895)scale(0.1 -0.1)">
       <use xlink:href="#DejaVuSans-97"/>
       <use x="61.279297" xlink:href="#DejaVuSans-119"/>
       <use x="143.066406" xlink:href="#DejaVuSans-101"/>
       <use x="204.589844" xlink:href="#DejaVuSans-115"/>
       <use x="256.689453" xlink:href="#DejaVuSans-111"/>
       <use x="317.871094" xlink:href="#DejaVuSans-109"/>
       <use x="415.283203" xlink:href="#DejaVuSans-101"/>
       <use x="476.806641" xlink:href="#DejaVuSans-32"/>
       <use x="508.59375" xlink:href="#DejaVuSans-97"/>
       <use x="569.873047" xlink:href="#DejaVuSans-119"/>
       <use x="651.660156" xlink:href="#DejaVuSans-101"/>
       <use x="713.183594" xlink:href="#DejaVuSans-115"/>
       <use x="765.283203" xlink:href="#DejaVuSans-111"/>
       <use x="826.464844" xlink:href="#DejaVuSans-109"/>
       <use x="923.876953" xlink:href="#DejaVuSans-101"/>
      </g>
     </g>
    </g>
    <g id="ytick_21">
     <g id="line2d_28">
      <g>
       <use style="stroke:#000000;stroke-width:0.8;" x="126.41875" xlink:href="#m43a637a7bd" y="134.518953"/>
      </g>
     </g>
     <g id="text_29">
      <!-- um jogo -->
      <defs>
       <path d="M 9.421875 54.6875 
L 18.40625 54.6875 
L 18.40625 -0.984375 
Q 18.40625 -11.421875 14.421875 -16.109375 
Q 10.453125 -20.796875 1.609375 -20.796875 
L -1.8125 -20.796875 
L -1.8125 -13.1875 
L 0.59375 -13.1875 
Q 5.71875 -13.1875 7.5625 -10.8125 
Q 9.421875 -8.453125 9.421875 -0.984375 
z
M 9.421875 75.984375 
L 18.40625 75.984375 
L 18.40625 64.59375 
L 9.421875 64.59375 
z
" id="DejaVuSans-106"/>
      </defs>
      <g transform="translate(78.798438 138.318171)scale(0.1 -0.1)">
       <use xlink:href="#DejaVuSans-117"/>
       <use x="63.378906" xlink:href="#DejaVuSans-109"/>
       <use x="160.791016" xlink:href="#DejaVuSans-32"/>
       <use x="192.578125" xlink:href="#DejaVuSans-106"/>
       <use x="220.361328" xlink:href="#DejaVuSans-111"/>
       <use x="281.542969" xlink:href="#DejaVuSans-103"/>
       <use x="345.019531" xlink:href="#DejaVuSans-111"/>
      </g>
     </g>
    </g>
    <g id="ytick_22">
     <g id="line2d_29">
      <g>
       <use style="stroke:#000000;stroke-width:0.8;" x="126.41875" xlink:href="#m43a637a7bd" y="127.567228"/>
      </g>
     </g>
     <g id="text_30">
      <!-- nice game -->
      <g transform="translate(67.103125 131.366447)scale(0.1 -0.1)">
       <use xlink:href="#DejaVuSans-110"/>
       <use x="63.378906" xlink:href="#DejaVuSans-105"/>
       <use x="91.162109" xlink:href="#DejaVuSans-99"/>
       <use x="146.142578" xlink:href="#DejaVuSans-101"/>
       <use x="207.666016" xlink:href="#DejaVuSans-32"/>
       <use x="239.453125" xlink:href="#DejaVuSans-103"/>
       <use x="302.929688" xlink:href="#DejaVuSans-97"/>
       <use x="364.208984" xlink:href="#DejaVuSans-109"/>
       <use x="461.621094" xlink:href="#DejaVuSans-101"/>
      </g>
     </g>
    </g>
    <g id="ytick_23">
     <g id="line2d_30">
      <g>
       <use style="stroke:#000000;stroke-width:0.8;" x="126.41875" xlink:href="#m43a637a7bd" y="120.615504"/>
      </g>
     </g>
     <g id="text_31">
      <!-- games ive -->
      <g transform="translate(67.810937 124.414723)scale(0.1 -0.1)">
       <use xlink:href="#DejaVuSans-103"/>
       <use x="63.476562" xlink:href="#DejaVuSans-97"/>
       <use x="124.755859" xlink:href="#DejaVuSans-109"/>
       <use x="222.167969" xlink:href="#DejaVuSans-101"/>
       <use x="283.691406" xlink:href="#DejaVuSans-115"/>
       <use x="335.791016" xlink:href="#DejaVuSans-32"/>
       <use x="367.578125" xlink:href="#DejaVuSans-105"/>
       <use x="395.361328" xlink:href="#DejaVuSans-118"/>
       <use x="454.541016" xlink:href="#DejaVuSans-101"/>
      </g>
     </g>
    </g>
    <g id="ytick_24">
     <g id="line2d_31">
      <g>
       <use style="stroke:#000000;stroke-width:0.8;" x="126.41875" xlink:href="#m43a637a7bd" y="113.66378"/>
      </g>
     </g>
     <g id="text_32">
      <!-- great fun -->
      <g transform="translate(73.609375 117.462999)scale(0.1 -0.1)">
       <use xlink:href="#DejaVuSans-103"/>
       <use x="63.476562" xlink:href="#DejaVuSans-114"/>
       <use x="102.339844" xlink:href="#DejaVuSans-101"/>
       <use x="163.863281" xlink:href="#DejaVuSans-97"/>
       <use x="225.142578" xlink:href="#DejaVuSans-116"/>
       <use x="264.351562" xlink:href="#DejaVuSans-32"/>
       <use x="296.138672" xlink:href="#DejaVuSans-102"/>
       <use x="331.34375" xlink:href="#DejaVuSans-117"/>
       <use x="394.722656" xlink:href="#DejaVuSans-110"/>
      </g>
     </g>
    </g>
    <g id="ytick_25">
     <g id="line2d_32">
      <g>
       <use style="stroke:#000000;stroke-width:0.8;" x="126.41875" xlink:href="#m43a637a7bd" y="106.712056"/>
      </g>
     </g>
     <g id="text_33">
      <!-- cant wait -->
      <g transform="translate(73.351562 110.511275)scale(0.1 -0.1)">
       <use xlink:href="#DejaVuSans-99"/>
       <use x="54.980469" xlink:href="#DejaVuSans-97"/>
       <use x="116.259766" xlink:href="#DejaVuSans-110"/>
       <use x="179.638672" xlink:href="#DejaVuSans-116"/>
       <use x="218.847656" xlink:href="#DejaVuSans-32"/>
       <use x="250.634766" xlink:href="#DejaVuSans-119"/>
       <use x="332.421875" xlink:href="#DejaVuSans-97"/>
       <use x="393.701172" xlink:href="#DejaVuSans-105"/>
       <use x="421.484375" xlink:href="#DejaVuSans-116"/>
      </g>
     </g>
    </g>
    <g id="ytick_26">
     <g id="line2d_33">
      <g>
       <use style="stroke:#000000;stroke-width:0.8;" x="126.41875" xlink:href="#m43a637a7bd" y="99.760332"/>
      </g>
     </g>
     <g id="text_34">
      <!-- really fun -->
      <g transform="translate(72.403125 103.559551)scale(0.1 -0.1)">
       <use xlink:href="#DejaVuSans-114"/>
       <use x="38.863281" xlink:href="#DejaVuSans-101"/>
       <use x="100.386719" xlink:href="#DejaVuSans-97"/>
       <use x="161.666016" xlink:href="#DejaVuSans-108"/>
       <use x="189.449219" xlink:href="#DejaVuSans-108"/>
       <use x="217.232422" xlink:href="#DejaVuSans-121"/>
       <use x="276.412109" xlink:href="#DejaVuSans-32"/>
       <use x="308.199219" xlink:href="#DejaVuSans-102"/>
       <use x="343.404297" xlink:href="#DejaVuSans-117"/>
       <use x="406.783203" xlink:href="#DejaVuSans-110"/>
      </g>
     </g>
    </g>
    <g id="ytick_27">
     <g id="line2d_34">
      <g>
       <use style="stroke:#000000;stroke-width:0.8;" x="126.41875" xlink:href="#m43a637a7bd" y="92.808608"/>
      </g>
     </g>
     <g id="text_35">
      <!-- first time -->
      <g transform="translate(74.109375 96.607827)scale(0.1 -0.1)">
       <use xlink:href="#DejaVuSans-102"/>
       <use x="35.205078" xlink:href="#DejaVuSans-105"/>
       <use x="62.988281" xlink:href="#DejaVuSans-114"/>
       <use x="104.101562" xlink:href="#DejaVuSans-115"/>
       <use x="156.201172" xlink:href="#DejaVuSans-116"/>
       <use x="195.410156" xlink:href="#DejaVuSans-32"/>
       <use x="227.197266" xlink:href="#DejaVuSans-116"/>
       <use x="266.40625" xlink:href="#DejaVuSans-105"/>
       <use x="294.189453" xlink:href="#DejaVuSans-109"/>
       <use x="391.601562" xlink:href="#DejaVuSans-101"/>
      </g>
     </g>
    </g>
    <g id="ytick_28">
     <g id="line2d_35">
      <g>
       <use style="stroke:#000000;stroke-width:0.8;" x="126.41875" xlink:href="#m43a637a7bd" y="85.856884"/>
      </g>
     </g>
     <g id="text_36">
      <!-- worth money -->
      <g transform="translate(53.30625 89.656102)scale(0.1 -0.1)">
       <use xlink:href="#DejaVuSans-119"/>
       <use x="81.787109" xlink:href="#DejaVuSans-111"/>
       <use x="142.96875" xlink:href="#DejaVuSans-114"/>
       <use x="184.082031" xlink:href="#DejaVuSans-116"/>
       <use x="223.291016" xlink:href="#DejaVuSans-104"/>
       <use x="286.669922" xlink:href="#DejaVuSans-32"/>
       <use x="318.457031" xlink:href="#DejaVuSans-109"/>
       <use x="415.869141" xlink:href="#DejaVuSans-111"/>
       <use x="477.050781" xlink:href="#DejaVuSans-110"/>
       <use x="540.429688" xlink:href="#DejaVuSans-101"/>
       <use x="601.953125" xlink:href="#DejaVuSans-121"/>
      </g>
     </g>
    </g>
    <g id="ytick_29">
     <g id="line2d_36">
      <g>
       <use style="stroke:#000000;stroke-width:0.8;" x="126.41875" xlink:href="#m43a637a7bd" y="78.905159"/>
      </g>
     </g>
     <g id="text_37">
      <!-- new update -->
      <g transform="translate(60.335938 82.704378)scale(0.1 -0.1)">
       <use xlink:href="#DejaVuSans-110"/>
       <use x="63.378906" xlink:href="#DejaVuSans-101"/>
       <use x="124.902344" xlink:href="#DejaVuSans-119"/>
       <use x="206.689453" xlink:href="#DejaVuSans-32"/>
       <use x="238.476562" xlink:href="#DejaVuSans-117"/>
       <use x="301.855469" xlink:href="#DejaVuSans-112"/>
       <use x="365.332031" xlink:href="#DejaVuSans-100"/>
       <use x="428.808594" xlink:href="#DejaVuSans-97"/>
       <use x="490.087891" xlink:href="#DejaVuSans-116"/>
       <use x="529.296875" xlink:href="#DejaVuSans-101"/>
      </g>
     </g>
    </g>
    <g id="ytick_30">
     <g id="line2d_37">
      <g>
       <use style="stroke:#000000;stroke-width:0.8;" x="126.41875" xlink:href="#m43a637a7bd" y="71.953435"/>
      </g>
     </g>
     <g id="text_38">
      <!-- highly recommend -->
      <g transform="translate(25.765625 75.752654)scale(0.1 -0.1)">
       <use xlink:href="#DejaVuSans-104"/>
       <use x="63.378906" xlink:href="#DejaVuSans-105"/>
       <use x="91.162109" xlink:href="#DejaVuSans-103"/>
       <use x="154.638672" xlink:href="#DejaVuSans-104"/>
       <use x="218.017578" xlink:href="#DejaVuSans-108"/>
       <use x="245.800781" xlink:href="#DejaVuSans-121"/>
       <use x="304.980469" xlink:href="#DejaVuSans-32"/>
       <use x="336.767578" xlink:href="#DejaVuSans-114"/>
       <use x="375.630859" xlink:href="#DejaVuSans-101"/>
       <use x="437.154297" xlink:href="#DejaVuSans-99"/>
       <use x="492.134766" xlink:href="#DejaVuSans-111"/>
       <use x="553.316406" xlink:href="#DejaVuSans-109"/>
       <use x="650.728516" xlink:href="#DejaVuSans-109"/>
       <use x="748.140625" xlink:href="#DejaVuSans-101"/>
       <use x="809.664062" xlink:href="#DejaVuSans-110"/>
       <use x="873.042969" xlink:href="#DejaVuSans-100"/>
      </g>
     </g>
    </g>
    <g id="ytick_31">
     <g id="line2d_38">
      <g>
       <use style="stroke:#000000;stroke-width:0.8;" x="126.41875" xlink:href="#m43a637a7bd" y="65.001711"/>
      </g>
     </g>
     <g id="text_39">
      <!-- fantastic game -->
      <g transform="translate(44.429688 68.80093)scale(0.1 -0.1)">
       <use xlink:href="#DejaVuSans-102"/>
       <use x="35.205078" xlink:href="#DejaVuSans-97"/>
       <use x="96.484375" xlink:href="#DejaVuSans-110"/>
       <use x="159.863281" xlink:href="#DejaVuSans-116"/>
       <use x="199.072266" xlink:href="#DejaVuSans-97"/>
       <use x="260.351562" xlink:href="#DejaVuSans-115"/>
       <use x="312.451172" xlink:href="#DejaVuSans-116"/>
       <use x="351.660156" xlink:href="#DejaVuSans-105"/>
       <use x="379.443359" xlink:href="#DejaVuSans-99"/>
       <use x="434.423828" xlink:href="#DejaVuSans-32"/>
       <use x="466.210938" xlink:href="#DejaVuSans-103"/>
       <use x="529.6875" xlink:href="#DejaVuSans-97"/>
       <use x="590.966797" xlink:href="#DejaVuSans-109"/>
       <use x="688.378906" xlink:href="#DejaVuSans-101"/>
      </g>
     </g>
    </g>
    <g id="ytick_32">
     <g id="line2d_39">
      <g>
       <use style="stroke:#000000;stroke-width:0.8;" x="126.41875" xlink:href="#m43a637a7bd" y="58.049987"/>
      </g>
     </g>
     <g id="text_40">
      <!-- great story -->
      <g transform="translate(64.526562 61.849206)scale(0.1 -0.1)">
       <use xlink:href="#DejaVuSans-103"/>
       <use x="63.476562" xlink:href="#DejaVuSans-114"/>
       <use x="102.339844" xlink:href="#DejaVuSans-101"/>
       <use x="163.863281" xlink:href="#DejaVuSans-97"/>
       <use x="225.142578" xlink:href="#DejaVuSans-116"/>
       <use x="264.351562" xlink:href="#DejaVuSans-32"/>
       <use x="296.138672" xlink:href="#DejaVuSans-115"/>
       <use x="348.238281" xlink:href="#DejaVuSans-116"/>
       <use x="387.447266" xlink:href="#DejaVuSans-111"/>
       <use x="448.628906" xlink:href="#DejaVuSans-114"/>
       <use x="489.742188" xlink:href="#DejaVuSans-121"/>
      </g>
     </g>
    </g>
    <g id="ytick_33">
     <g id="line2d_40">
      <g>
       <use style="stroke:#000000;stroke-width:0.8;" x="126.41875" xlink:href="#m43a637a7bd" y="51.098263"/>
      </g>
     </g>
     <g id="text_41">
      <!-- first person -->
      <g transform="translate(62.423437 54.897482)scale(0.1 -0.1)">
       <use xlink:href="#DejaVuSans-102"/>
       <use x="35.205078" xlink:href="#DejaVuSans-105"/>
       <use x="62.988281" xlink:href="#DejaVuSans-114"/>
       <use x="104.101562" xlink:href="#DejaVuSans-115"/>
       <use x="156.201172" xlink:href="#DejaVuSans-116"/>
       <use x="195.410156" xlink:href="#DejaVuSans-32"/>
       <use x="227.197266" xlink:href="#DejaVuSans-112"/>
       <use x="290.673828" xlink:href="#DejaVuSans-101"/>
       <use x="352.197266" xlink:href="#DejaVuSans-114"/>
       <use x="393.310547" xlink:href="#DejaVuSans-115"/>
       <use x="445.410156" xlink:href="#DejaVuSans-111"/>
       <use x="506.591797" xlink:href="#DejaVuSans-110"/>
      </g>
     </g>
    </g>
    <g id="ytick_34">
     <g id="line2d_41">
      <g>
       <use style="stroke:#000000;stroke-width:0.8;" x="126.41875" xlink:href="#m43a637a7bd" y="44.146539"/>
      </g>
     </g>
     <g id="text_42">
      <!-- good fun -->
      <g transform="translate(75.110938 47.945758)scale(0.1 -0.1)">
       <use xlink:href="#DejaVuSans-103"/>
       <use x="63.476562" xlink:href="#DejaVuSans-111"/>
       <use x="124.658203" xlink:href="#DejaVuSans-111"/>
       <use x="185.839844" xlink:href="#DejaVuSans-100"/>
       <use x="249.316406" xlink:href="#DejaVuSans-32"/>
       <use x="281.103516" xlink:href="#DejaVuSans-102"/>
       <use x="316.308594" xlink:href="#DejaVuSans-117"/>
       <use x="379.6875" xlink:href="#DejaVuSans-110"/>
      </g>
     </g>
    </g>
    <g id="ytick_35">
     <g id="line2d_42">
      <g>
       <use style="stroke:#000000;stroke-width:0.8;" x="126.41875" xlink:href="#m43a637a7bd" y="37.194815"/>
      </g>
     </g>
     <g id="text_43">
      <!-- exile path -->
      <defs>
       <path d="M 54.890625 54.6875 
L 35.109375 28.078125 
L 55.90625 0 
L 45.3125 0 
L 29.390625 21.484375 
L 13.484375 0 
L 2.875 0 
L 24.125 28.609375 
L 4.6875 54.6875 
L 15.28125 54.6875 
L 29.78125 35.203125 
L 44.28125 54.6875 
z
" id="DejaVuSans-120"/>
      </defs>
      <g transform="translate(69.9 40.994033)scale(0.1 -0.1)">
       <use xlink:href="#DejaVuSans-101"/>
       <use x="59.773438" xlink:href="#DejaVuSans-120"/>
       <use x="118.953125" xlink:href="#DejaVuSans-105"/>
       <use x="146.736328" xlink:href="#DejaVuSans-108"/>
       <use x="174.519531" xlink:href="#DejaVuSans-101"/>
       <use x="236.042969" xlink:href="#DejaVuSans-32"/>
       <use x="267.830078" xlink:href="#DejaVuSans-112"/>
       <use x="331.306641" xlink:href="#DejaVuSans-97"/>
       <use x="392.585938" xlink:href="#DejaVuSans-116"/>
       <use x="431.794922" xlink:href="#DejaVuSans-104"/>
      </g>
     </g>
    </g>
    <g id="text_44">
     <!-- Grams -->
     <defs>
      <path d="M 59.515625 10.40625 
L 59.515625 29.984375 
L 43.40625 29.984375 
L 43.40625 38.09375 
L 69.28125 38.09375 
L 69.28125 6.78125 
Q 63.578125 2.734375 56.6875 0.65625 
Q 49.8125 -1.421875 42 -1.421875 
Q 24.90625 -1.421875 15.25 8.5625 
Q 5.609375 18.5625 5.609375 36.375 
Q 5.609375 54.25 15.25 64.234375 
Q 24.90625 74.21875 42 74.21875 
Q 49.125 74.21875 55.546875 72.453125 
Q 61.96875 70.703125 67.390625 67.28125 
L 67.390625 56.78125 
Q 61.921875 61.421875 55.765625 63.765625 
Q 49.609375 66.109375 42.828125 66.109375 
Q 29.4375 66.109375 22.71875 58.640625 
Q 16.015625 51.171875 16.015625 36.375 
Q 16.015625 21.625 22.71875 14.15625 
Q 29.4375 6.6875 42.828125 6.6875 
Q 48.046875 6.6875 52.140625 7.59375 
Q 56.25 8.5 59.515625 10.40625 
z
" id="DejaVuSans-71"/>
     </defs>
     <g transform="translate(14.798437 171.842875)rotate(-90)scale(0.1 -0.1)">
      <use xlink:href="#DejaVuSans-71"/>
      <use x="77.490234" xlink:href="#DejaVuSans-114"/>
      <use x="118.603516" xlink:href="#DejaVuSans-97"/>
      <use x="179.882812" xlink:href="#DejaVuSans-109"/>
      <use x="277.294922" xlink:href="#DejaVuSans-115"/>
     </g>
    </g>
   </g>
   <g id="patch_38">
    <path d="M 126.41875 288.430125 
L 126.41875 22.318125 
" style="fill:none;stroke:#000000;stroke-linecap:square;stroke-linejoin:miter;stroke-width:0.8;"/>
   </g>
   <g id="patch_39">
    <path d="M 483.53875 288.430125 
L 483.53875 22.318125 
" style="fill:none;stroke:#000000;stroke-linecap:square;stroke-linejoin:miter;stroke-width:0.8;"/>
   </g>
   <g id="patch_40">
    <path d="M 126.41875 288.430125 
L 483.53875 288.430125 
" style="fill:none;stroke:#000000;stroke-linecap:square;stroke-linejoin:miter;stroke-width:0.8;"/>
   </g>
   <g id="patch_41">
    <path d="M 126.41875 22.318125 
L 483.53875 22.318125 
" style="fill:none;stroke:#000000;stroke-linecap:square;stroke-linejoin:miter;stroke-width:0.8;"/>
   </g>
   <g id="text_45">
    <!--  3246 -->
    <defs>
     <path d="M 37.796875 64.3125 
L 12.890625 25.390625 
L 37.796875 25.390625 
z
M 35.203125 72.90625 
L 47.609375 72.90625 
L 47.609375 25.390625 
L 58.015625 25.390625 
L 58.015625 17.1875 
L 47.609375 17.1875 
L 47.609375 0 
L 37.796875 0 
L 37.796875 17.1875 
L 4.890625 17.1875 
L 4.890625 26.703125 
z
" id="DejaVuSans-52"/>
     <path d="M 33.015625 40.375 
Q 26.375 40.375 22.484375 35.828125 
Q 18.609375 31.296875 18.609375 23.390625 
Q 18.609375 15.53125 22.484375 10.953125 
Q 26.375 6.390625 33.015625 6.390625 
Q 39.65625 6.390625 43.53125 10.953125 
Q 47.40625 15.53125 47.40625 23.390625 
Q 47.40625 31.296875 43.53125 35.828125 
Q 39.65625 40.375 33.015625 40.375 
z
M 52.59375 71.296875 
L 52.59375 62.3125 
Q 48.875 64.0625 45.09375 64.984375 
Q 41.3125 65.921875 37.59375 65.921875 
Q 27.828125 65.921875 22.671875 59.328125 
Q 17.53125 52.734375 16.796875 39.40625 
Q 19.671875 43.65625 24.015625 45.921875 
Q 28.375 48.1875 33.59375 48.1875 
Q 44.578125 48.1875 50.953125 41.515625 
Q 57.328125 34.859375 57.328125 23.390625 
Q 57.328125 12.15625 50.6875 5.359375 
Q 44.046875 -1.421875 33.015625 -1.421875 
Q 20.359375 -1.421875 13.671875 8.265625 
Q 6.984375 17.96875 6.984375 36.375 
Q 6.984375 53.65625 15.1875 63.9375 
Q 23.390625 74.21875 37.203125 74.21875 
Q 40.921875 74.21875 44.703125 73.484375 
Q 48.484375 72.75 52.59375 71.296875 
z
" id="DejaVuSans-54"/>
    </defs>
    <g style="fill:#0000ff;" transform="translate(466.533036 276.31281)scale(0.1 -0.1)">
     <use xlink:href="#DejaVuSans-32"/>
     <use x="31.787109" xlink:href="#DejaVuSans-51"/>
     <use x="95.410156" xlink:href="#DejaVuSans-50"/>
     <use x="159.033203" xlink:href="#DejaVuSans-52"/>
     <use x="222.65625" xlink:href="#DejaVuSans-54"/>
    </g>
   </g>
   <g id="text_46">
    <!--  2460 -->
    <g style="fill:#0000ff;" transform="translate(384.176342 269.361086)scale(0.1 -0.1)">
     <use xlink:href="#DejaVuSans-32"/>
     <use x="31.787109" xlink:href="#DejaVuSans-50"/>
     <use x="95.410156" xlink:href="#DejaVuSans-52"/>
     <use x="159.033203" xlink:href="#DejaVuSans-54"/>
     <use x="222.65625" xlink:href="#DejaVuSans-48"/>
    </g>
   </g>
   <g id="text_47">
    <!--  1598 -->
    <defs>
     <path d="M 10.984375 1.515625 
L 10.984375 10.5 
Q 14.703125 8.734375 18.5 7.8125 
Q 22.3125 6.890625 25.984375 6.890625 
Q 35.75 6.890625 40.890625 13.453125 
Q 46.046875 20.015625 46.78125 33.40625 
Q 43.953125 29.203125 39.59375 26.953125 
Q 35.25 24.703125 29.984375 24.703125 
Q 19.046875 24.703125 12.671875 31.3125 
Q 6.296875 37.9375 6.296875 49.421875 
Q 6.296875 60.640625 12.9375 67.421875 
Q 19.578125 74.21875 30.609375 74.21875 
Q 43.265625 74.21875 49.921875 64.515625 
Q 56.59375 54.828125 56.59375 36.375 
Q 56.59375 19.140625 48.40625 8.859375 
Q 40.234375 -1.421875 26.421875 -1.421875 
Q 22.703125 -1.421875 18.890625 -0.6875 
Q 15.09375 0.046875 10.984375 1.515625 
z
M 30.609375 32.421875 
Q 37.25 32.421875 41.125 36.953125 
Q 45.015625 41.5 45.015625 49.421875 
Q 45.015625 57.28125 41.125 61.84375 
Q 37.25 66.40625 30.609375 66.40625 
Q 23.96875 66.40625 20.09375 61.84375 
Q 16.21875 57.28125 16.21875 49.421875 
Q 16.21875 41.5 20.09375 36.953125 
Q 23.96875 32.421875 30.609375 32.421875 
z
" id="DejaVuSans-57"/>
     <path d="M 31.78125 34.625 
Q 24.75 34.625 20.71875 30.859375 
Q 16.703125 27.09375 16.703125 20.515625 
Q 16.703125 13.921875 20.71875 10.15625 
Q 24.75 6.390625 31.78125 6.390625 
Q 38.8125 6.390625 42.859375 10.171875 
Q 46.921875 13.96875 46.921875 20.515625 
Q 46.921875 27.09375 42.890625 30.859375 
Q 38.875 34.625 31.78125 34.625 
z
M 21.921875 38.8125 
Q 15.578125 40.375 12.03125 44.71875 
Q 8.5 49.078125 8.5 55.328125 
Q 8.5 64.0625 14.71875 69.140625 
Q 20.953125 74.21875 31.78125 74.21875 
Q 42.671875 74.21875 48.875 69.140625 
Q 55.078125 64.0625 55.078125 55.328125 
Q 55.078125 49.078125 51.53125 44.71875 
Q 48 40.375 41.703125 38.8125 
Q 48.828125 37.15625 52.796875 32.3125 
Q 56.78125 27.484375 56.78125 20.515625 
Q 56.78125 9.90625 50.3125 4.234375 
Q 43.84375 -1.421875 31.78125 -1.421875 
Q 19.734375 -1.421875 13.25 4.234375 
Q 6.78125 9.90625 6.78125 20.515625 
Q 6.78125 27.484375 10.78125 32.3125 
Q 14.796875 37.15625 21.921875 38.8125 
z
M 18.3125 54.390625 
Q 18.3125 48.734375 21.84375 45.5625 
Q 25.390625 42.390625 31.78125 42.390625 
Q 38.140625 42.390625 41.71875 45.5625 
Q 45.3125 48.734375 45.3125 54.390625 
Q 45.3125 60.0625 41.71875 63.234375 
Q 38.140625 66.40625 31.78125 66.40625 
Q 25.390625 66.40625 21.84375 63.234375 
Q 18.3125 60.0625 18.3125 54.390625 
z
" id="DejaVuSans-56"/>
    </defs>
    <g style="fill:#0000ff;" transform="translate(293.856405 262.409362)scale(0.1 -0.1)">
     <use xlink:href="#DejaVuSans-32"/>
     <use x="31.787109" xlink:href="#DejaVuSans-49"/>
     <use x="95.410156" xlink:href="#DejaVuSans-53"/>
     <use x="159.033203" xlink:href="#DejaVuSans-57"/>
     <use x="222.65625" xlink:href="#DejaVuSans-56"/>
    </g>
   </g>
   <g id="text_48">
    <!--  921 -->
    <g style="fill:#0000ff;" transform="translate(222.920678 255.457638)scale(0.1 -0.1)">
     <use xlink:href="#DejaVuSans-32"/>
     <use x="31.787109" xlink:href="#DejaVuSans-57"/>
     <use x="95.410156" xlink:href="#DejaVuSans-50"/>
     <use x="159.033203" xlink:href="#DejaVuSans-49"/>
    </g>
   </g>
   <g id="text_49">
    <!--  834 -->
    <g style="fill:#0000ff;" transform="translate(213.80486 248.505914)scale(0.1 -0.1)">
     <use xlink:href="#DejaVuSans-32"/>
     <use x="31.787109" xlink:href="#DejaVuSans-56"/>
     <use x="95.410156" xlink:href="#DejaVuSans-51"/>
     <use x="159.033203" xlink:href="#DejaVuSans-52"/>
    </g>
   </g>
   <g id="text_50">
    <!--  825 -->
    <g style="fill:#0000ff;" transform="translate(212.861845 241.55419)scale(0.1 -0.1)">
     <use xlink:href="#DejaVuSans-32"/>
     <use x="31.787109" xlink:href="#DejaVuSans-56"/>
     <use x="95.410156" xlink:href="#DejaVuSans-50"/>
     <use x="159.033203" xlink:href="#DejaVuSans-53"/>
    </g>
   </g>
   <g id="text_51">
    <!--  817 -->
    <defs>
     <path d="M 8.203125 72.90625 
L 55.078125 72.90625 
L 55.078125 68.703125 
L 28.609375 0 
L 18.3125 0 
L 43.21875 64.59375 
L 8.203125 64.59375 
z
" id="DejaVuSans-55"/>
    </defs>
    <g style="fill:#0000ff;" transform="translate(212.023609 234.602466)scale(0.1 -0.1)">
     <use xlink:href="#DejaVuSans-32"/>
     <use x="31.787109" xlink:href="#DejaVuSans-56"/>
     <use x="95.410156" xlink:href="#DejaVuSans-49"/>
     <use x="159.033203" xlink:href="#DejaVuSans-55"/>
    </g>
   </g>
   <g id="text_52">
    <!--  528 -->
    <g style="fill:#0000ff;" transform="translate(181.742331 227.650741)scale(0.1 -0.1)">
     <use xlink:href="#DejaVuSans-32"/>
     <use x="31.787109" xlink:href="#DejaVuSans-53"/>
     <use x="95.410156" xlink:href="#DejaVuSans-50"/>
     <use x="159.033203" xlink:href="#DejaVuSans-56"/>
    </g>
   </g>
   <g id="text_53">
    <!--  497 -->
    <g style="fill:#0000ff;" transform="translate(178.494166 220.699017)scale(0.1 -0.1)">
     <use xlink:href="#DejaVuSans-32"/>
     <use x="31.787109" xlink:href="#DejaVuSans-52"/>
     <use x="95.410156" xlink:href="#DejaVuSans-57"/>
     <use x="159.033203" xlink:href="#DejaVuSans-55"/>
    </g>
   </g>
   <g id="text_54">
    <!--  441 -->
    <g style="fill:#0000ff;" transform="translate(172.626513 213.747293)scale(0.1 -0.1)">
     <use xlink:href="#DejaVuSans-32"/>
     <use x="31.787109" xlink:href="#DejaVuSans-52"/>
     <use x="95.410156" xlink:href="#DejaVuSans-52"/>
     <use x="159.033203" xlink:href="#DejaVuSans-49"/>
    </g>
   </g>
   <g id="text_55">
    <!--  433 -->
    <g style="fill:#0000ff;" transform="translate(171.788277 206.795569)scale(0.1 -0.1)">
     <use xlink:href="#DejaVuSans-32"/>
     <use x="31.787109" xlink:href="#DejaVuSans-52"/>
     <use x="95.410156" xlink:href="#DejaVuSans-51"/>
     <use x="159.033203" xlink:href="#DejaVuSans-51"/>
    </g>
   </g>
   <g id="text_56">
    <!--  389 -->
    <g style="fill:#0000ff;" transform="translate(167.177979 199.843845)scale(0.1 -0.1)">
     <use xlink:href="#DejaVuSans-32"/>
     <use x="31.787109" xlink:href="#DejaVuSans-51"/>
     <use x="95.410156" xlink:href="#DejaVuSans-56"/>
     <use x="159.033203" xlink:href="#DejaVuSans-57"/>
    </g>
   </g>
   <g id="text_57">
    <!--  388 -->
    <g style="fill:#0000ff;" transform="translate(167.073199 192.892121)scale(0.1 -0.1)">
     <use xlink:href="#DejaVuSans-32"/>
     <use x="31.787109" xlink:href="#DejaVuSans-51"/>
     <use x="95.410156" xlink:href="#DejaVuSans-56"/>
     <use x="159.033203" xlink:href="#DejaVuSans-56"/>
    </g>
   </g>
   <g id="text_58">
    <!--  343 -->
    <g style="fill:#0000ff;" transform="translate(162.358122 185.940397)scale(0.1 -0.1)">
     <use xlink:href="#DejaVuSans-32"/>
     <use x="31.787109" xlink:href="#DejaVuSans-51"/>
     <use x="95.410156" xlink:href="#DejaVuSans-52"/>
     <use x="159.033203" xlink:href="#DejaVuSans-51"/>
    </g>
   </g>
   <g id="text_59">
    <!--  340 -->
    <g style="fill:#0000ff;" transform="translate(162.043783 178.988672)scale(0.1 -0.1)">
     <use xlink:href="#DejaVuSans-32"/>
     <use x="31.787109" xlink:href="#DejaVuSans-51"/>
     <use x="95.410156" xlink:href="#DejaVuSans-52"/>
     <use x="159.033203" xlink:href="#DejaVuSans-48"/>
    </g>
   </g>
   <g id="text_60">
    <!--  326 -->
    <g style="fill:#0000ff;" transform="translate(160.57687 172.036948)scale(0.1 -0.1)">
     <use xlink:href="#DejaVuSans-32"/>
     <use x="31.787109" xlink:href="#DejaVuSans-51"/>
     <use x="95.410156" xlink:href="#DejaVuSans-50"/>
     <use x="159.033203" xlink:href="#DejaVuSans-54"/>
    </g>
   </g>
   <g id="text_61">
    <!--  326 -->
    <g style="fill:#0000ff;" transform="translate(160.57687 165.085224)scale(0.1 -0.1)">
     <use xlink:href="#DejaVuSans-32"/>
     <use x="31.787109" xlink:href="#DejaVuSans-51"/>
     <use x="95.410156" xlink:href="#DejaVuSans-50"/>
     <use x="159.033203" xlink:href="#DejaVuSans-54"/>
    </g>
   </g>
   <g id="text_62">
    <!--  321 -->
    <g style="fill:#0000ff;" transform="translate(160.052972 158.1335)scale(0.1 -0.1)">
     <use xlink:href="#DejaVuSans-32"/>
     <use x="31.787109" xlink:href="#DejaVuSans-51"/>
     <use x="95.410156" xlink:href="#DejaVuSans-50"/>
     <use x="159.033203" xlink:href="#DejaVuSans-49"/>
    </g>
   </g>
   <g id="text_63">
    <!--  281 -->
    <g style="fill:#0000ff;" transform="translate(155.861792 151.181776)scale(0.1 -0.1)">
     <use xlink:href="#DejaVuSans-32"/>
     <use x="31.787109" xlink:href="#DejaVuSans-50"/>
     <use x="95.410156" xlink:href="#DejaVuSans-56"/>
     <use x="159.033203" xlink:href="#DejaVuSans-49"/>
    </g>
   </g>
   <g id="text_64">
    <!--  276 -->
    <g style="fill:#0000ff;" transform="translate(155.337894 144.230052)scale(0.1 -0.1)">
     <use xlink:href="#DejaVuSans-32"/>
     <use x="31.787109" xlink:href="#DejaVuSans-50"/>
     <use x="95.410156" xlink:href="#DejaVuSans-55"/>
     <use x="159.033203" xlink:href="#DejaVuSans-54"/>
    </g>
   </g>
   <g id="text_65">
    <!--  264 -->
    <g style="fill:#0000ff;" transform="translate(154.08054 137.278328)scale(0.1 -0.1)">
     <use xlink:href="#DejaVuSans-32"/>
     <use x="31.787109" xlink:href="#DejaVuSans-50"/>
     <use x="95.410156" xlink:href="#DejaVuSans-54"/>
     <use x="159.033203" xlink:href="#DejaVuSans-52"/>
    </g>
   </g>
   <g id="text_66">
    <!--  258 -->
    <g style="fill:#0000ff;" transform="translate(153.451863 130.326603)scale(0.1 -0.1)">
     <use xlink:href="#DejaVuSans-32"/>
     <use x="31.787109" xlink:href="#DejaVuSans-50"/>
     <use x="95.410156" xlink:href="#DejaVuSans-53"/>
     <use x="159.033203" xlink:href="#DejaVuSans-56"/>
    </g>
   </g>
   <g id="text_67">
    <!--  245 -->
    <g style="fill:#0000ff;" transform="translate(152.08973 123.374879)scale(0.1 -0.1)">
     <use xlink:href="#DejaVuSans-32"/>
     <use x="31.787109" xlink:href="#DejaVuSans-50"/>
     <use x="95.410156" xlink:href="#DejaVuSans-52"/>
     <use x="159.033203" xlink:href="#DejaVuSans-53"/>
    </g>
   </g>
   <g id="text_68">
    <!--  235 -->
    <g style="fill:#0000ff;" transform="translate(151.041935 116.423155)scale(0.1 -0.1)">
     <use xlink:href="#DejaVuSans-32"/>
     <use x="31.787109" xlink:href="#DejaVuSans-50"/>
     <use x="95.410156" xlink:href="#DejaVuSans-51"/>
     <use x="159.033203" xlink:href="#DejaVuSans-53"/>
    </g>
   </g>
   <g id="text_69">
    <!--  229 -->
    <g style="fill:#0000ff;" transform="translate(150.413258 109.471431)scale(0.1 -0.1)">
     <use xlink:href="#DejaVuSans-32"/>
     <use x="31.787109" xlink:href="#DejaVuSans-50"/>
     <use x="95.410156" xlink:href="#DejaVuSans-50"/>
     <use x="159.033203" xlink:href="#DejaVuSans-57"/>
    </g>
   </g>
   <g id="text_70">
    <!--  227 -->
    <g style="fill:#0000ff;" transform="translate(150.203699 102.519707)scale(0.1 -0.1)">
     <use xlink:href="#DejaVuSans-32"/>
     <use x="31.787109" xlink:href="#DejaVuSans-50"/>
     <use x="95.410156" xlink:href="#DejaVuSans-50"/>
     <use x="159.033203" xlink:href="#DejaVuSans-55"/>
    </g>
   </g>
   <g id="text_71">
    <!--  222 -->
    <g style="fill:#0000ff;" transform="translate(149.679801 95.567983)scale(0.1 -0.1)">
     <use xlink:href="#DejaVuSans-32"/>
     <use x="31.787109" xlink:href="#DejaVuSans-50"/>
     <use x="95.410156" xlink:href="#DejaVuSans-50"/>
     <use x="159.033203" xlink:href="#DejaVuSans-50"/>
    </g>
   </g>
   <g id="text_72">
    <!--  220 -->
    <g style="fill:#0000ff;" transform="translate(149.470242 88.616259)scale(0.1 -0.1)">
     <use xlink:href="#DejaVuSans-32"/>
     <use x="31.787109" xlink:href="#DejaVuSans-50"/>
     <use x="95.410156" xlink:href="#DejaVuSans-50"/>
     <use x="159.033203" xlink:href="#DejaVuSans-48"/>
    </g>
   </g>
   <g id="text_73">
    <!--  208 -->
    <g style="fill:#0000ff;" transform="translate(148.212888 81.664534)scale(0.1 -0.1)">
     <use xlink:href="#DejaVuSans-32"/>
     <use x="31.787109" xlink:href="#DejaVuSans-50"/>
     <use x="95.410156" xlink:href="#DejaVuSans-48"/>
     <use x="159.033203" xlink:href="#DejaVuSans-56"/>
    </g>
   </g>
   <g id="text_74">
    <!--  205 -->
    <g style="fill:#0000ff;" transform="translate(147.898549 74.71281)scale(0.1 -0.1)">
     <use xlink:href="#DejaVuSans-32"/>
     <use x="31.787109" xlink:href="#DejaVuSans-50"/>
     <use x="95.410156" xlink:href="#DejaVuSans-48"/>
     <use x="159.033203" xlink:href="#DejaVuSans-53"/>
    </g>
   </g>
   <g id="text_75">
    <!--  197 -->
    <g style="fill:#0000ff;" transform="translate(147.060313 67.761086)scale(0.1 -0.1)">
     <use xlink:href="#DejaVuSans-32"/>
     <use x="31.787109" xlink:href="#DejaVuSans-49"/>
     <use x="95.410156" xlink:href="#DejaVuSans-57"/>
     <use x="159.033203" xlink:href="#DejaVuSans-55"/>
    </g>
   </g>
   <g id="text_76">
    <!--  191 -->
    <g style="fill:#0000ff;" transform="translate(146.431636 60.809362)scale(0.1 -0.1)">
     <use xlink:href="#DejaVuSans-32"/>
     <use x="31.787109" xlink:href="#DejaVuSans-49"/>
     <use x="95.410156" xlink:href="#DejaVuSans-57"/>
     <use x="159.033203" xlink:href="#DejaVuSans-49"/>
    </g>
   </g>
   <g id="text_77">
    <!--  188 -->
    <g style="fill:#0000ff;" transform="translate(146.117298 53.857638)scale(0.1 -0.1)">
     <use xlink:href="#DejaVuSans-32"/>
     <use x="31.787109" xlink:href="#DejaVuSans-49"/>
     <use x="95.410156" xlink:href="#DejaVuSans-56"/>
     <use x="159.033203" xlink:href="#DejaVuSans-56"/>
    </g>
   </g>
   <g id="text_78">
    <!--  185 -->
    <g style="fill:#0000ff;" transform="translate(145.802959 46.905914)scale(0.1 -0.1)">
     <use xlink:href="#DejaVuSans-32"/>
     <use x="31.787109" xlink:href="#DejaVuSans-49"/>
     <use x="95.410156" xlink:href="#DejaVuSans-56"/>
     <use x="159.033203" xlink:href="#DejaVuSans-53"/>
    </g>
   </g>
   <g id="text_79">
    <!--  184 -->
    <g style="fill:#0000ff;" transform="translate(145.69818 39.95419)scale(0.1 -0.1)">
     <use xlink:href="#DejaVuSans-32"/>
     <use x="31.787109" xlink:href="#DejaVuSans-49"/>
     <use x="95.410156" xlink:href="#DejaVuSans-56"/>
     <use x="159.033203" xlink:href="#DejaVuSans-52"/>
    </g>
   </g>
   <g id="text_80">
    <!-- No Punctuation, No Stopwords, No Stemming: POS -->
    <defs>
     <path d="M 9.8125 72.90625 
L 23.09375 72.90625 
L 55.421875 11.921875 
L 55.421875 72.90625 
L 64.984375 72.90625 
L 64.984375 0 
L 51.703125 0 
L 19.390625 60.984375 
L 19.390625 0 
L 9.8125 0 
z
" id="DejaVuSans-78"/>
     <path d="M 19.671875 64.796875 
L 19.671875 37.40625 
L 32.078125 37.40625 
Q 38.96875 37.40625 42.71875 40.96875 
Q 46.484375 44.53125 46.484375 51.125 
Q 46.484375 57.671875 42.71875 61.234375 
Q 38.96875 64.796875 32.078125 64.796875 
z
M 9.8125 72.90625 
L 32.078125 72.90625 
Q 44.34375 72.90625 50.609375 67.359375 
Q 56.890625 61.8125 56.890625 51.125 
Q 56.890625 40.328125 50.609375 34.8125 
Q 44.34375 29.296875 32.078125 29.296875 
L 19.671875 29.296875 
L 19.671875 0 
L 9.8125 0 
z
" id="DejaVuSans-80"/>
     <path d="M 11.71875 12.40625 
L 22.015625 12.40625 
L 22.015625 4 
L 14.015625 -11.625 
L 7.71875 -11.625 
L 11.71875 4 
z
" id="DejaVuSans-44"/>
     <path d="M 53.515625 70.515625 
L 53.515625 60.890625 
Q 47.90625 63.578125 42.921875 64.890625 
Q 37.9375 66.21875 33.296875 66.21875 
Q 25.25 66.21875 20.875 63.09375 
Q 16.5 59.96875 16.5 54.203125 
Q 16.5 49.359375 19.40625 46.890625 
Q 22.3125 44.4375 30.421875 42.921875 
L 36.375 41.703125 
Q 47.40625 39.59375 52.65625 34.296875 
Q 57.90625 29 57.90625 20.125 
Q 57.90625 9.515625 50.796875 4.046875 
Q 43.703125 -1.421875 29.984375 -1.421875 
Q 24.8125 -1.421875 18.96875 -0.25 
Q 13.140625 0.921875 6.890625 3.21875 
L 6.890625 13.375 
Q 12.890625 10.015625 18.65625 8.296875 
Q 24.421875 6.59375 29.984375 6.59375 
Q 38.421875 6.59375 43.015625 9.90625 
Q 47.609375 13.234375 47.609375 19.390625 
Q 47.609375 24.75 44.3125 27.78125 
Q 41.015625 30.8125 33.5 32.328125 
L 27.484375 33.5 
Q 16.453125 35.6875 11.515625 40.375 
Q 6.59375 45.0625 6.59375 53.421875 
Q 6.59375 63.09375 13.40625 68.65625 
Q 20.21875 74.21875 32.171875 74.21875 
Q 37.3125 74.21875 42.625 73.28125 
Q 47.953125 72.359375 53.515625 70.515625 
z
" id="DejaVuSans-83"/>
     <path d="M 11.71875 12.40625 
L 22.015625 12.40625 
L 22.015625 0 
L 11.71875 0 
z
M 11.71875 51.703125 
L 22.015625 51.703125 
L 22.015625 39.3125 
L 11.71875 39.3125 
z
" id="DejaVuSans-58"/>
     <path d="M 39.40625 66.21875 
Q 28.65625 66.21875 22.328125 58.203125 
Q 16.015625 50.203125 16.015625 36.375 
Q 16.015625 22.609375 22.328125 14.59375 
Q 28.65625 6.59375 39.40625 6.59375 
Q 50.140625 6.59375 56.421875 14.59375 
Q 62.703125 22.609375 62.703125 36.375 
Q 62.703125 50.203125 56.421875 58.203125 
Q 50.140625 66.21875 39.40625 66.21875 
z
M 39.40625 74.21875 
Q 54.734375 74.21875 63.90625 63.9375 
Q 73.09375 53.65625 73.09375 36.375 
Q 73.09375 19.140625 63.90625 8.859375 
Q 54.734375 -1.421875 39.40625 -1.421875 
Q 24.03125 -1.421875 14.8125 8.828125 
Q 5.609375 19.09375 5.609375 36.375 
Q 5.609375 53.65625 14.8125 63.9375 
Q 24.03125 74.21875 39.40625 74.21875 
z
" id="DejaVuSans-79"/>
    </defs>
    <g transform="translate(152.995 16.318125)scale(0.12 -0.12)">
     <use xlink:href="#DejaVuSans-78"/>
     <use x="74.804688" xlink:href="#DejaVuSans-111"/>
     <use x="135.986328" xlink:href="#DejaVuSans-32"/>
     <use x="167.773438" xlink:href="#DejaVuSans-80"/>
     <use x="226.326172" xlink:href="#DejaVuSans-117"/>
     <use x="289.705078" xlink:href="#DejaVuSans-110"/>
     <use x="353.083984" xlink:href="#DejaVuSans-99"/>
     <use x="408.064453" xlink:href="#DejaVuSans-116"/>
     <use x="447.273438" xlink:href="#DejaVuSans-117"/>
     <use x="510.652344" xlink:href="#DejaVuSans-97"/>
     <use x="571.931641" xlink:href="#DejaVuSans-116"/>
     <use x="611.140625" xlink:href="#DejaVuSans-105"/>
     <use x="638.923828" xlink:href="#DejaVuSans-111"/>
     <use x="700.105469" xlink:href="#DejaVuSans-110"/>
     <use x="763.484375" xlink:href="#DejaVuSans-44"/>
     <use x="795.271484" xlink:href="#DejaVuSans-32"/>
     <use x="827.058594" xlink:href="#DejaVuSans-78"/>
     <use x="901.863281" xlink:href="#DejaVuSans-111"/>
     <use x="963.044922" xlink:href="#DejaVuSans-32"/>
     <use x="994.832031" xlink:href="#DejaVuSans-83"/>
     <use x="1058.308594" xlink:href="#DejaVuSans-116"/>
     <use x="1097.517578" xlink:href="#DejaVuSans-111"/>
     <use x="1158.699219" xlink:href="#DejaVuSans-112"/>
     <use x="1222.175781" xlink:href="#DejaVuSans-119"/>
     <use x="1303.962891" xlink:href="#DejaVuSans-111"/>
     <use x="1365.144531" xlink:href="#DejaVuSans-114"/>
     <use x="1404.507812" xlink:href="#DejaVuSans-100"/>
     <use x="1467.984375" xlink:href="#DejaVuSans-115"/>
     <use x="1520.083984" xlink:href="#DejaVuSans-44"/>
     <use x="1551.871094" xlink:href="#DejaVuSans-32"/>
     <use x="1583.658203" xlink:href="#DejaVuSans-78"/>
     <use x="1658.462891" xlink:href="#DejaVuSans-111"/>
     <use x="1719.644531" xlink:href="#DejaVuSans-32"/>
     <use x="1751.431641" xlink:href="#DejaVuSans-83"/>
     <use x="1814.908203" xlink:href="#DejaVuSans-116"/>
     <use x="1854.117188" xlink:href="#DejaVuSans-101"/>
     <use x="1915.640625" xlink:href="#DejaVuSans-109"/>
     <use x="2013.052734" xlink:href="#DejaVuSans-109"/>
     <use x="2110.464844" xlink:href="#DejaVuSans-105"/>
     <use x="2138.248047" xlink:href="#DejaVuSans-110"/>
     <use x="2201.626953" xlink:href="#DejaVuSans-103"/>
     <use x="2265.103516" xlink:href="#DejaVuSans-58"/>
     <use x="2298.794922" xlink:href="#DejaVuSans-32"/>
     <use x="2330.582031" xlink:href="#DejaVuSans-80"/>
     <use x="2390.884766" xlink:href="#DejaVuSans-79"/>
     <use x="2469.595703" xlink:href="#DejaVuSans-83"/>
    </g>
   </g>
  </g>
 </g>
 <defs>
  <clipPath id="p550854a4dd">
   <rect height="266.112" width="357.12" x="126.41875" y="22.318125"/>
  </clipPath>
 </defs>
</svg>
